<mxfile host="app.diagrams.net" agent="Mozilla/5.0 (Windows NT 10.0; Win64; x64; rv:139.0) Gecko/20100101 Firefox/139.0" version="27.1.4">
  <diagram name="Seite-1" id="s3C19K1CQbkiOKlLkoib">
    <mxGraphModel dx="1752" dy="966" grid="1" gridSize="10" guides="1" tooltips="1" connect="1" arrows="1" fold="1" page="1" pageScale="1" pageWidth="827" pageHeight="1169" math="0" shadow="0">
      <root>
        <mxCell id="0" />
        <mxCell id="1" parent="0" />
        <mxCell id="BaFMhR3DntHVQc-vTrnS-1" value="" style="shape=image;verticalLabelPosition=bottom;labelBackgroundColor=default;verticalAlign=top;aspect=fixed;imageAspect=0;image=data:image/png,iVBORw0KGgoAAAANSUhEUgAAAeAAAAFoCAYAAACPNyggAAAgAElEQVR4Xu29DdCdR3Um2A4QyASMCYGAkIUtadkAM8H8RNhCkmUnSEpSO8jDRyyJ2tgOE83Yu4utRGVPdr2rOKVNlTwOsplaa0YZ1mKrkCVGrO2Zyq4kgizLwqY0azAhwIRItiwrMj/O2BDAgZB4v+d1nsv5jvr9u7fvfX/u81KU9d233/55Tnc/fU53n3PO87NP0CMEhIAQEAJCQAhMFIFzRMATxVuFCQEhIASEgBDIEBABqyMIASEgBISAEGgAARFwA6CrSCEgBISAEBACImD1ASEgBISAEBACDSAgAm4AdBUpBISAEBACQkAErD4gBISAEBACQqABBETADYCuIoWAEBACQkAIiIDVB4SAEBACQkAINICACLgB0FWkEBACQkAICAERsPqAEBACQkAICIEGEBABNwC6ihQCQkAITBMCR7/xnXDir/8mnP7eD8PLX/Ki8LMvfXF492teERaf+7KxwPCjv38+HP76d8Jffv8H4YnZMl/9k7Nlvuwl4T2vPTfM/+mfHEuZw2QqAh4GNX0jBISAEBACpQj8H199Ktz6Z2fC6e//MJr2op/56fD7F50ffu38V5XmVSXB3/zd34ff/+Lp8LGvfSM8/YMfRT+59HXnho/84gUBZTf9iICbloDKFwJCQAj0DIH7v/7t8Edf+2bY+/jTpS37qRf9RPjnb3pt+K03vS689byfKk2fl+CeJ/4q/NFffDMc+MtnS/N43U/95Gx5rw0b3/RzYd4/ak4jFgGXikoJhIAQEAJCoCoC9536r+E3Hjwevvujv6v6SZZu/iwR3vdLPz+UZrrtS38Z/rcvPBl+VDO4H7TgA+99c2aebuIRATeBusoUAkJACPQQgc9967vhXz58Inzpme9HW4e93x/NBsB99odx8/CvvOG88G8vWTi7T/vSyujsO/lX4V/MlvnsD+sRPguAFrxjtswmHhFwE6irTCEgBIRAzxCA9vkvHjoRdh3/1pyWQbP9g3cuCJe+7pWZlovn+OyBrM+c+Xb4nz9/6iwy/l/fNj/83uy+cJXn8e/+ICvzM099u0ryaJpzZn/9d0sXhQ/9N68dOo9hPxQBD4ucvhMCQkAICIEBAh8//s3wm589MQeRDy58TbjzkgvDy1/8oihSOCi14YGvzSHQF59zTnjkv/uF8I9f9Y9K0QWBw/w86gPN/M//2dvDeT/54lGzqvW9CLgWXEosBISAEBACMQR+7U++GvabA1CrZ83JOy5eGN748mJz8uf/6nvhus89Fv7z098dZPs/vvl14Y4lFxYCfWb2ZPXlB74c/uI7f5NEILcvuSD8T29+fZK8qmYiAq6KlNIJASEgBIRAFAHc733jvkfmvDu0+q2zZudzKyH28Vmz9W9+9vggLTTSb6z7xcJv//jJZ8I/PfRfKuVfJdEvvf6V4eCqt1RJmiyNCDgZlMpICAgBITCdCByc3c/9lU9/ZdD4N8zu9T76T98WfmaWSKs8f/bs98Pb7vvinKSnPvDOgHzynu1feSps/s8nq2RfKc2bZp2CfPWKt1dKmypRYwT82GOPhUWLFoVrr7023HnnnWe1Z/Hixdlvx4//eFXERNddd13YsWNHeH5203/Pnj1h/fr14e677w7r1q2bk0/Ru1QA1snn6NGjYfny5WHbtm3hxhtvPOvTc2b3PvLwsImLsKlTn1HSoq6rV68O+/fvL8xmzZo14cCBA5msbr311nDTTTeFBx98MCxbtmyU4gffMv8qdeFH+Ab9Kta3klRqhEyKcIXc8f8yzH3xZWNthOrqUyGQIfCJE98Kv3H0x3P1xbNerj77q/+4Fjpv+OT/F77+3N8Ovjnx/neECwrM17h29L//6elaZRQlxt7zD37j4mT5Vclo7ATMwY/K2Im3bFLoKgGj3idO/PgggiXUcRNwWf5VOkTVNG0gYLY3tvgqase4CJgLDCwshyX3qgRcR9ZFY20ci6KqfUjp+oPAp2adYPz64a8NGrT8584Nh9e8tXIDn5v1YPULsxrwY7Ono/l8ee1F4edfme+Y45ZHn8y8XqV64JDjyVmte5LP2AkYA3znzp1Zm1atWjXQdkchYAtQmzRgTJ528uUkSRKuM2kWdYK8xUmq/Kt0wDYQMGWfUqOu0va8NNRQofEPW6equNaRtQh4FKnq2yoIwNfzpfu/PEj6qtnTxH/6vrdV9jKFA1gX//GX5hT1g//+4vDin8Alofjz7/7867OHtx6vUr1KaRa/4mXZSehJPmMnYExKGzduDCdPnhyYjdFATgowHWLCwmPNiCQZ/E6NEmZMPDRB4/djx47NMUFzRY90IEOkoYZkTXh+UkKeBw8ezEx8rI+dRDEx2sebivMWAtYEy0nTttnm4ydffsu2UKuyBEwsDh8+HFauXDmnjsALabHwgcmeD9oFUzge3w7bTruYsJYM4mrlxXqwDMqqigmauPBb3w9odrUyW7FiRSZ3PjHTve0L7EcLFy4Mtk6UG74nRnaLwNctT9tmOvQ3v7Xiy2C/stYSfIe6sQ+wD1oZUO7op/jdPsTbyo+Y+L7OfLZu3ToHQ+CO7SDkTQx8v7b9qY7Zf5KTmsqaPAI4hPVLsyeScb+XzydXvim8/42vrlQZXCXClaLBHDB7gvr/+eU3F357eNbd5S8d+PG+c6WCChL9Dz//uvDRdxefvB61DP/9WAmYkxImHDyY9DmB2Qk9tpfLyQnfzps3b86klkfAS5YsmZOOE21VAsYEHEuL8lBf7L1xUueER0BtnTCRxn4/c+ZMhgEnVW/+swTMBQFJ1+4PcwLFwgZ7qqxzTCsijpjgffm+zkULlBhpcQL2mNh8qhAwsCVm3qxcVKciDZjvSGzW7JxHwCAfe76AfZT4sp3M0w4mKy+bB9KwLrEFC/oRyrntttsy8iOB4vcYFsgPfSJP1rQy2W/tuEBZIHe2wfdBtrmIgPHtsBp+6glM+bUHAdwBxl1gPr/4sy8Pd85eQ3rHq4uDHvzJ7AGua2evIVnzM4IlXP+W8itBb7330fBfvv1cEhA+s/otYeWss5BJPmMl4CIS8avyvFV6kdbnNWAAB62Ik0Ns9R7TpuzEG5uwUxMwJzc/iVoC9nvJaBsncPsupq3Z36y27CdXO/lykWO/taTlD4jZulpNnZ2Xi4wqBIxvvIWhyqKpiIC9Rs56gdhiBBwjWVpX/ICMkQ/q70krrx8iv7wDVRZXLy8rS9937ILW1hd1mpmZmaMx2/oPQ8BcBExyolJZ7Ufg6Df/Olz38GPhy7MnmvngMNbH3rMody/3c9/66/ChWeK2JLpq3qw7yqWz94cruKPc89jTGXl/52+Hc0PJesILFtxRvshZOseN+lgJ2E+qdhLsEgFzomf9Y2bIvMMsMRN0VQLOO/HKiZjmci4a8rQiTpjjJOC8U8VVCNgSfSoN2GuhdiDVJeAybc/3D5ZFE3Bse2JcBBw7YW/HGqw81qwtAh73FDtd+f+b2fCDNxw7OafRL5uNdgTzLu4EIwYwQgY+Mrvn+8enn5nVmL81J4DCa2avLf3bWbeQaxf8TGXgbnrkiXDbbMjDYR9o6NDUobFP+hkbAce0EzsR0SyGBk/KBG0nek48nCS9Odam5b5X7LoUBcZJzk5ubK8n3KomaEyWMXOn3wukZuwJlppWFQLGtaCYuZd1r2KCjhFVXQKmXLjIKZJZFRN0bLFUlYCBW9FVOco+dqq6qAx8Z9/jb/Q/mqDz5FlkzfCythNJbO88T1vHd9baEdvGYX+a9GSl8tqPwA9myfVfzmrB/9fstaRhnv/lF+aH3397NT/QzP/4rCcsaMGHhvQHjeAPvzUbkKGJZ2wE7CcYNo4mNh72sIdf7EEaf3jIElvVQ1iYZGJ7pKgLJjlobdwzKyLgmDkzRowxM6AlAHsqOnbgxx/C8mZoa5blJBgjLOzxEa+qJmgQsK+/3bO07/A7H95J9WboGHHnWQnsQSd/cM6+8zIrOwXt5cb+VZWAsS/ttVt/xSjvhLFdbAKr2F11ayHyh7CAa5EJ2pI46xTrfzzAaBcSbL8tE/kRH3t4jeMz1veamLBUZvsR+PPZPVnEAt75ta+H7/3o7ytV+MLZ+74gwX8++/9XV3TeYTN+eNaU/e9ny9xl9qDLCobmu3E2BjHiAjf1jI2Am2pQ6nJjWmVVhxl16zKufOvWQ+mFgBAQAqMisHt2fxZXhbA3XPTMzJ6U/q3/9ufCL8+6ghzl+du/fz78+7/4RvijP/9G+GJOOETmjz1fEH4TZmfbRhFwBYl7TWoURwux4qzmUrbfWKG6SiIEhIAQaAUC3509HLX38afD3tmYvSdmryjhutLLX/IT4Wdf+pJsP/j9b/yZ8GvzX1V437duQ77+3A9ny/yrAOcgfzkbsOHkbMhC+Jb+2Ze9JLznteeGDQtfPfHTznltEAHXla7SCwEhIASEgBBIgIAIOAGIykIICAEhIASEQF0ERMB1EVN6ISAEhIAQEAIJEBABJwBRWQgBISAEhIAQqIuACLguYkovBISAEBACQiABAiLgBCAqCyEgBISAEBACdREYKwHDObceISAEhIAQEAJdQgDXlm591xvHXuWxErCNjDH2lqgAISAEhIAQEAIJEHj5i18U3n9BtVCKoxQ3VgIepWL6VggIASEgBIRAnxEQAfdZumqbEBACQkAItBYBEXBrRaOKCQEhIASEQJ8REAH3WbpqmxAQAkJACLQWARFwa0WjigkBISAEhECfERAB91m6apsQEAJCQAi0FgERcGtFo4oJASEgBIRAnxFonID37NkTjhw5Eu68886x4rxmzZpw8803h2XLllUqBzGAV6xYEdatWxcWL14cDh48GBYuXFjpW5vonHPOCSdOnBjq26LCbr311nDTTTdlSbZt2xZuvPHGaPKjR4+GrVu3hv379895zxjEzz//fK3vygBAe2N5Av+rr746k/UFF1yQW9+y/FO+p1yPHTsWdu3adRZGeWXZvmFxhEzw5MkiZd1T54VxuH79+izba6+9tnQ85sk5db2ays+OG/ZdzAVVHts/mN7OIfg35gQ/TiiDu+++O5t3YvkU9ckdO3YMXg8TV7zuHFkFi7w0wHf37t2l/WyUMrrwrQg4R0qpCHgcncCTJ+qat4DJI+CyehV9VzQxdGliHnZhZduP9nKy6zIB24ViUX9ivxmHnNuEHzDYsGFD5QW7HU9VCBh9DwtSS+ogQDz8vS4BU2HA2EUex48fLxvmc95PkoBR8LDjr1ajWp64VQTMAeg1O66WoIVi5bh69eqBtkIyAs6LFi0adDoId9WqVQGrQkyQ0AKhwXKVyEnTrvyRB7VVT8DMC2liq8uieqDeeJAnngMHDsypK37DhMaHK2PfBmrvRdorBhHyxwPNeOnSpVnbMRg9dnYSRd2IDTQgTD6x72w6i7efmCGz5cuXD1b5vl7QEovkirZv3LhxoOVbKwI1CC8vaNbsO9Qi/Pjjt+hDwASyOXPmzBwrga1rTNbsG9Ca7SRqCcTmYfur/R1tYr/Ff226Ydtov6Mmaye6vIVVzFLj0/qFB/Jnn6F87HhC/8Nz8uTJwQKRecyfPz/rH3iQj5UdfuMYiI0LYHj55ZfP6Rvoi+zztEDEtHqMnaJx6Psxx621huX1S35bhYAxtqzVhVhjjmJZsXzQxw4dOnSWtcan5djOG68cn3bOsQTMheXp06cHlhE73vz3nAvy5kHf79FOtGXBggVzFiF+vPb976QE/Pb/+MXwp898P8Ps7666pBJ21gRNsyoGnyUZCpuTISYUdF4QEv7NlR7yOnXqVGYC5ATOwcjVJUyxSBczOdq6eALGoENeed8W1YMEjE5KYrBmLfwbGiw6pTXN+DZYQImVNT/H6laEHQdpbMVc9F2ZBozJGG3lJIq62kmYgxvtwSScJ1cseoCL/d5qJpxMIVP8DpzRF/I0AKSh+ZvtQ10tAftJwcrVTrAgHm+qzdPgOLHhe78dEMNylDayjnYyrULAJCvbpjICZl+28vFaDWQEOXKM8j3a6LeEPH5548KOZY4Du5jh/IEyuPVCTOfNm5f1zdg4JHa2X8UIONYv7disQsDoq8iHW1v8Bls0RQScN6naMiFLYOs1YD+ncQ71fQaLSv8Oaez8aOdgK6fYPEglwG+DTWr7sRIRNZQoGQH/q0eeCP/6z84MmvHL814ZDrz3LaXN8gSMD0iaHKxeQ2FHWrJkSTaY7EMtwk8EdkLyk4JdZXMC8p3V7gF785td9bEuvh743U5EdrKx5SMdV5NVTDRcWWLSiQ38skkU38WIo+i7MgJGG+z+ljdtWS3IElIe5rYuVsMj1rG2x0ykvh6x/mVX6szf7+GTyKFt23ZaHL1lhYsM1MuSHNNZTXuUNvqJEn9XIWC/uPALE09EFl87nqhxxeRvFyCWOHm2wvfDvHFh5egncbuvzz1ttg2L1ZmZmdxxyHRFfb8KllUJeN++fVmRmO+sxjosAds9YOLvNVUsPDBv2rnIEjCsZ97qE5sfLQ4kYy5uYvOx7/dIM+z2WCmpdChB5wk41pH8pIO/8wjYakVFGnAZAZfVo4yAYweXqhAw28YDThy8VSYTDvrUBIyJzprJUhNw7EBcngnOjsWqBFx2WI9lwdpi2+kXVSRuXy5J1xK71ery5F6ljWivX3xUIQ2LE8eE11xs+XkEzHzwntYZjitYH7zJkdsstHSQkGLtsERBGRURcOxwp1981+37VbCsSsCcE7AIZV3tt0ULXc8xeWmtpmoVlzwCpmmf81He/GgXqlxQemx9HX2/FwHPjtVZoOPHYIdYRaz+9FfCn5z5dvblsCZoOwDLNGAcYLCHYGyVq2rAvsMjD0wGXhsrM0GX1aOIgFFXDEJ/yjJvIkbHfeihh+ZYCmAywm9+f6iKBhwzWY2iAaNLWRM7sCSunFjLNKy8iY77f/6kcRVy8pMJNCRfD1/X2DCwZdn6eAK2+5heq4hNmCS1UdvoF2FeFpgorTkQf992222DfVqmp4XJtoOmW9Q1ZoKOLfw4MeOdN4vaSduTYd64qKIBw2pmzyCwXlUJ2B5iqmKZsf3Ejyf/t+3bJDL2j3EQMBesFs/YfEVcMY9wyyhvfoxtzXBsF53AtvnJBJ2YgIfg7Dn7CrEBGDskY4XoTSxcdVclYH9ogPs7MQLmAZ/YtaKyehQRsDdhxw7PeGztCtTuA1vzpT2EZffCOEFbLcavaHkIK/Yd21p0CMsPRlsvTtzDmvqsSYym/ioEzDrhv8AYuGOx5bc4bF1jbYyVhT5hTYr2mhjywALJHmhhvnlyHLaNse9s32S7/X4cTcfEhqfq/e/2MJI9mBg7NGUnYqvho4xYf7DjwJ4DYd/nuKhCwDzkwzGLPFAfmEnztoLsGPMHFGNXEos0OCt/5Gv1HDs3+XMbnvCsWRnjxltdWOc8DdhuhaDPcaHvt0i4aKZlgYtAmOy5zYf/cn70WzV2TPNwHeqGOQhWD24H2PFUR8Mfhlu68E1SDbgLDVYdhYAQmDwCXZtsUd9hryFNHt3JlugPqQ1rSq66xTbZ1k22NBHwZPFWaUJg6hAoc/rSRkCGJZU2tmUcdfIacF1nQ/a2xzjq15U8RcBdkZTqKQSEgBAQAr1CQATcK3GqMUJACAgBIdAVBETAXZGU6ikEhIAQEAK9QkAE3CtxqjFCQAgIASHQFQREwC2QlL0mUvcwQ9PVL7t8X6d+w94LnNQJ25h3rTrtY9qUmNny/VU461s6r57WUUPVtlQ5VDWsLH0d7NWkvPul/spPUXQw5M9rTPTcVMcVgr3mZceqv+6D+87WNW5VbJVuuhAQAbdA3imdknuvS+NuXkoysT5l69RbBPwCWv7k7jDkWgf3orSpCLgKidWNojTsGEE58A4GH/TW/zUXPjEiT7VoSyUX5dMuBBonYHucPebH2U4q3qEAnAXYC/3Wxy5d3OEiOx0h8IK4Dx9nI+jAYQL8oVaNuBSLjOI1kaJIIXb1jjJxEd5eZGddY2233+IiPOuOLua1H+9YgEEJ7J2+qpGlrM9XYM4gCCjXOm6wnpLwrih+sSVy75zATrDeTzLwQVxR7/3JDjPv6IT18iThHTx45wH0Z0vnCLEJ17bf9jO2HXJBv4VDA7SlLDJWXl+NaXkxAvYuVIkL627bbMcitDvESYbjB1t3OvCw/cn2Q+9+0ofJjI3XPO9UeQ4c/BSaR8AxrdRqwCBSPy4o27xoWizbelUrWgDqPnG7CK9ttWmcgG2HLvM2U7ZytRe7rS9afAeTEM1CjIRkoy+R4DjwrPZg3a7ZFbn3Y0v3bfZbq9Xl5ZM3gO2EGmt7lYADxNd+j/LojtC3p0pkKds+YLhz584BtoxGhXLZXotznvnS3wv0XrqwMLEu8my962jAnuitv2CLEcr32wG2T9kJmBjHrAGx9vK3vMhYDHFoNauqGNrFmw+DGIu4xTajDT5SEwnMhsdklBzKx8uN/R3kHfPFbCdAjlf8luedqop2603QDDhgI3JZF6Nezmif17SLXC36Ba6/E2sVgSr1bxspqD6TQ6AVBFy0crfv8iKoWHdznDTzXMnl+Z71kycn9aoRl2w97UKAZFUUKcQTiNUSOInG2m4XFjGitd2I2t7mzZszl4n0Ge33w+w3eZGl8hzxW+2P+UCDA3Hi8VGuGAUH77w2avHn5GwnM2sCrELAdpKkRSJPA46REX6z7c4zsUJ2+D81xVi6In/EeYEUrJtLLm58UIqYa0+kBfHavUv8Zl1h0v0gNXxqrb7uMV/XnvyQNwgQT4yAfXqGERyVgG3/ivWnvMUs8c7ru4zB7adktMOPIaa1i7dUpvjJUYJKmiQCrSBg75LM/h3zSEPNE2RiV7leA7YRPahdD0PAZZGOGMeXGoT3q4wJrWiv1BKI31vyWonVutFRYtpULJoPy0d+eKCpYj+LDuuL6uflU0TAMVNwno/vIgK2EXQ4ucb81+JdGQFbk3YVDXgUAsa31Fyx+ID/Z09EkyJgO3by9iK9ZcVGrPFabB4Be/KLEaDtq1ajZqzsNhBw0TZGbFK25G2/LfJVPcnJXWW1H4HGCThmokEHphnOmksJJycwBrWG2ZRElFoDrhpxyWvAPuoL6h6LQOIJxGt5PrpRjCjtKrvITE/tzAYgAAlS48mrX2yBRFMk5MM9YKsV2K5flYC5NcBvUR/umaKeeftpVQiYJGgj00BmjHrD/kOH/VjYxUzQJI8yzYZttosc33/ZR/weNx3m2/pVwbBIA4YMYxG3Yv2FeKK+2AcvMkFbPK3MyzT/2Hgl3qgro49VMeHG0viDUXbLIGaCzuu7tk34zlo2GPTeLpr9lkOV+refJlTDcSHQOAFbcyvNYnnRW2xa7p9Z0xG+p1kulQkaBOwPVcUiLnkTFw7X8CmKFAKzrCcQmgvRHpozfdu9aZyTFzWY2BUUu1/rNWerubHeeZGlLB5oGycifOf3wzB5VyGP2MLCkju1KhtkPRYJKY9oiB8ju5D8WF9iTeuBNZWyX5aZoH0/sRYYHu6xh7BiBOwPjFGuVTDMO/xntU/K1kcWikVqIomy7nZvM+/wEvLnAa6YCTpvvFq8UQ4PCVYhsLw0Nk+/H27N7vZAmh23/pBdngUGbbbj00eBKosvPa7JXfm2H4HGCbj9ENWroT1VTFLzZuR6OU5P6rJrSP6918ynB6nJtLRMy59MLbpdiq4hdVt+4669CHgMCHstsGvONcYASaUsyyZ8r4GUOVyoVKgS5SJQJg9BV4xAlTvMwnC6ERABT7f81XohIASEgBBoCAERcEPAq1ghIASEgBCYbgREwNMtf7VeCAgBISAEGkJABNwQ8CpWCAgBISAEphsBEfB0y1+tFwJCQAgIgYYQEAE3BLyKFQJCQAgIgelGQAQ83fJX64WAEBACQqAhBETADQGvYoWAEBACQmC6EWicgL1zBevubhjRtNE7Et3vWYccbaznKF57vBvEYeTYlOOHokAUw/TBtnxjQw3S53Vb6harh3fDGXOnWlb/WPCWsm9SvLd+u4fJr8yfeVme1hUm0lp3mGXfVnlvA5rE0ue5Ax1lTqlSr7wodnAh3IWnFQRcFje0DpBtJDb6NEbEFwY+aGM9RxkssZCSDNhQVX4i4KpIVUtXFj+7Wi6TS+UnUxuUpWotmiLgqvXLS5eCgH14yqI6jVqez7spAka5CxYsCCTc1O0aVa5l37eWgPMc22NQIjIOHMQzyAFXf1gxw8E9O6J1xk63hQwgju8ZvCEvFBrKuvzyywPjDXNV6VfqAJlBB3z0Irxjp0AgARvxxQaOoKB8PZEG39BBPetiHcXbWK82AAAc2jM9sfIdgt8if2DC76tgZyM+xSLxIETb/Pnzs5CHfOzK3AeYQBouxmwAdds+634yb9VvXYGyPGtp8S4sfYhCG1wiFgDEBilAn0P63bt3Z/jFAor4QAB0+M+gBQgNSTnZtEVjINYvgV8suARiUds+bgMisF/4NiHqj8WMFg2OH/bLmJbqrVqx4AyxxUFemMaZmZkMVz62L1tZQ66IPkXf6zbCkZWjtc54t7GxIC+xYCrewuP7kJVpnjXIygFpGNLQyt3iy2hm6D/evW1sQU+/9MAN37Bv+oAYwMsqQTaeMQkO49j6tPfjAu3Fg+AynDfxby7q82JvI4YyQ6wy6IeNOBYLvmLnMN9uS8BWtjZwCwN9cLxg/CJmuY0r7wNxlBHpsO+TEvDb/+MXw58+8/2sLn931SWV6pTn39d3Ahv82obQs2HG2HHROc+cOZNNitQ46cgfv4MQ2IGLYrPiGzycjBguz4dL3LBhQ8gL3G0JGJ305MmTWZ3yNGB2WBtTFnnbYOk+tBryY0xittlGEsozj9l2UA7oeJxky7CzAvYEHAttaNPYEG7Mx8YAJk6xBQMXO0xjfe76FTFwxkKhyOLAPgD5WlOtxdmGz0OcXBumz/Y7xjhmuah/3iSGdxZ3/I3vaFMYtsgAACAASURBVDkoGgOxfhkLi8fwiiRg75+Y9fT18EFFGAoS5WL8cGFj6+tlZeVdNAHzOz8WY5GtPNH5EJYsE3L071gO+wLkyDS2z+dhVGRR8PWyi20rR9vXbf2QxioUNlIWNTybxmMdiyoXixVuw7zGYqRb/KBV2nnTLmz8+KQGjN8twVUhYKThotiOOYubHU+egK0ikKcB2+0Yu5CIWf2qROCqRG4VEiUj4H/1yBPhX//ZmUGRvzzvleHAe99SWoWY2dFP5rZz+0Hg/+bg2rdv35wVDSqCDu5XcmUEzFBieXWoYiaznYKdChMiNWC7IkU9SYJ+xcn0FjOrHeJbu8q1QcJjHc2TEtNY7ZcCjGHnCdhqulZLsZMDV6KxyYwk4DWGGD52kFji8RoN6ojF1m233TZHw7d150RF7PxETVJlnRG6z2oMvr96zRX5sU12IUUCtnnZOMJW/nn9z/7uJx/W12rAHkvUAWTq2+QXxkjnNUz8VmTys/2rKgFbTddaKqxc8/o46kPsvWbu+7TXyu0eZx5G1JJiwVU8AVuZxvq6n+SJo7cY+b6Tp5nlacB51r28voI2woqAhfzmzZsHlhMfbtWHWCS+3rpUlYBjcbbtnBVbxOSFMOW85/uwXTRiLsUCjHLyVs1JBXrpNQGj88IM4okib2JDOjsw7MDxE52N78og3XmrDdvZORGhA+D/0Mit1mU14KoEHBuUsRjDPl0RAVfBrghXvrPkWDaILTaxoPTI0w5oa56yMV2L4q/a1TbrSNlissKTt09fh4CLQlByYoiZZidBwHZhRgw8Qebtx+dtNfhDL55gqhKwJQxbN2qLRQsOEjCwxwMzPcY/J1f2EfZ7WsNYDom1bB+RJlP2E3yfkoDz+k7RGY1RCZjyspZGzEskqLKxy+9hxrXbTKMQsF24xwixjIAtadu5nPJFn+JcYRWpTmrA6ISrP/2V8Cdnvp315zomaH8Iy5r7oH14DcdOsNZk4Sc2u5fHQRY7pOFNHRs3bhzsZcQ04DxzSBUCRhp2LJrKOeC4eq+jAcfMdCijCgH7TofBg7KBY1XsinDFO6+pcoDbPV5PAlh5Q8vxOFh8aBL1pv9YvmULBTuQrUnV7mXZSdyTScxig/oXhaGkfFA3a85m+dBabR55Y8DW3S92aCq2GrDdF7W4xNqE7/2irQoBxyZGuw1CLP1J3dh3qKOtm+2bsbbY+nFcIw8Su51bYCWzB3iIRx5GfB+rZ10Cthq3NRUvWbJkjtytjMZJwMQN5UGhQP9EvTj/WVxjY8wuHPMUCv7u5W/bRVljDkA5RcqNX1j5ec9r0OxvbAtM1zRfW4K24z5vTk/1ezINeNgK5a20rfnAmgZj5hyaYWHmg1C4J+pNSZ7w7IDjBjwPO/EwQYyAfb5cneUNXE+GdqGABUbMvOYnujxznjed0NRZhYDtt2jDzp07Bx2yKnZlBIz3lA/kiHZwUFnzOUzWeLgYsxNtDB9vXvKHVSBrPOw7tqyiid8v/mLflREwScNq6Gwff2O9mBctKtb8XmUMeDLg4g54oG/hfII/hOXN9Fx0+YWwN9sCNzxWQ4tpi7HvsFBiuewH3lKRR8Aok+2iiZoTp9eS7CEsv2Ajxjx86TVgP8/wsBzKB0a2LH+osS4BI0+LBxb9XAz4vs2yygiYfR554xuQeZ4JmtjYNqN9VD4oQy7AYmc8OPZRlj2EZedBW+c8+ccImOdkbJtiV6vsfj7HVuwgKdppb2V4K4bdNkJa4jAsr1X9rnECrlrRNqWzGnDRpNGmOvetLjwcYg891bmG0RY88hagbalfn+vhrShFh6z6jEMb2+YPguaNE3/oso1tKaqTCHgIiXntMPWl9yGqNHWfeC1hUocmUgMtAk6NaPX8/GG5YZzHVC9NKesiYC0OtEL4PLquAImA6/YKpRcCQkAICAEhkAABEXACEJWFEBACQkAICIG6CIiA6yKm9EJACAgBISAEEiAgAk4AorIQAkJACAgBIVAXgcYJOMVhmrKL83VBKUtf5R6wv4pRdkjI3pMsK9++t3c/874rwocHUexBsioHG+wVJu9Bytcj5iQAacq8iOV9VweflGkneUE/Vu+iayhV2mnvzFdJXzeNPzRTdA/aO9Sw7gurlOux8NdmquQxTJq6c03sruow5ca+qTJOhynLHzLl4TR/5ZF5W//11huePdSWd29/mPr16ZtWEHCeI/CqQNcdFFXzHYbQ+I2drMc5CKu0pQgfXqpHPvTsU2Vgez/ScKGX5w97WCLN+y7mTKUKDqOm6ToBj9r+su/ryLlKH8srD4t23Du1Xu54rzPm5aus3nXejzrX+IXDKIuqUTAsarNvY8zzl5c1F/I+5Crv0zY1ZuvItom0rSNg6+7POjKwgvXOEeC3lAOPnqHoUYag2ovz3n8y87a/xy5z26goNtBDTHCegO2FeKv129Wl99aDfH0UDzoM4arTX2OxWkgV13ocSLZ+VQZ2nvYacx7BAUxHCLF6+SshdHyAetnvvPMEfwXMrt69kwHeE7aTgS03dg3FWjKskxbIJtZfbFtt3bylwk5y1jEG5QoZIA0cTgAv4EE/0j5qDOqSJ3e8Q3rkywfElefIJK9vcqFmo+r4fl9k6aBTC9s+9jm/sInhasvy93V5ZxRzgF3MF7m/tHgBW6vdWacusbmGmOK/fk6IRYkiydq8gIONvlNmIbP92s8ZaIuXC705+UhuqLPtb7ErlJ6AYwqEl3XMuuKtetZyOElvU00Qa9UyW0XA3gsRG2EHUkzQ7DCMZuP90uaZu+wlbuvYwV4Cj61QqxBUngmaEyu9QdE04x3m+5U8XcPhOzsgPDaMzGTLyVu122/z/F7ndSTWwZufrVtPfmtX0JaIbL2QxscPzvuu6mra5x8j4CLnC7EJxLopjUWhst6ELHYxj1WoD9wh2sgywI8RjICt96sbixpjzXte7vibfc0SnXe/CqIv6puoC8kmb/EVu7fpFx62fTECzhuHFku/BWTlnOdVicQD71s+8ATexcZI3lwDuQEv2z/8Vo7tz94log8lWhb6zrqt5GIL3sioZMTkAhzx+Ehu3nFFbDsthoUnXP933jjynrCK/LRXJa0+pWsFAVtN1084BJurvtgqm6tD7x4u5sLQdi47wLxWTGJBHtZnKOtTZjryq3pq5vjethd/Y1JFzFMbMg5pLBZ+UFhLAVf9fgJE3hjceQRsJ25LxrEFhl2BW5ypMRVFS7Iy8z5lsdDwLvMscedprXkO670mbUO8xfLiQim2X+k1KE9gdiJgfykyw1Jm+I719xMXZRXDpKrLvjy5+/pz4icZM8yibZfvm3iXZ4qPtb1K+6rgauvkx54lEdvX8zRg+tm2Wif7sY9X7b2r+bHEuhT5yB6VgH2ZxMvOGV4ueQtq74YU3/m+Py4CzpuH+kSoddvSCgL2Pmi5IuXBDDuQ8giYwefZmeyq0RKK1Uyt9lZEqNT2vBm7aOXqJyn+DX+vsfbGSM+uYqsScMwdY17H94sOTtxVNHzb0Yg1VrcxYpwkAVvNo4oGbMkeCyAb4aaMgGPyLyJg9gFovLRwVCGo2KKvbExwDFlLiu2TdrGWt53Bcn1/GDcBl2mEdqz6BRfqTBNykQmahMUAJGyrHXN5c00szGeXCLhMCx3WBO2tdkWY1CWqvqZvNQFToOgQeDA5xvYO2GGQhmHL7ODDvxndx/sQthMwQ+DFhF2mIfpv8jRgxvv0k0we6XGyqWKCzttXiRFwzAUiycA774/hgbTWtAlSYRQjv6IuI2BsGdA0aQ9y5X1XZIK239DqwMDiNhi5Nc2ifTH8vQkadSRZ2bwtPkUEzDKQnsEEbN/G79RG8W8fmi9PA64qd6s5oVwfacYGL7BtGoWAq7TPLwyKxqHFCH7AY33baqV5EXgs4XpC4vdFcw23uSahAQMfRhFDvbnI9OPU4pinAXt5xMZ2bLEPrO3i1PdzWhDsvObHSNF2T18JtqxdrSVgeygCmiq1E38UHiYjewjLdjCu8m0EFb83m3fEHr+TUAii1a5jUXss2Hnl2JU303PPjxNu7FAO28UDONTGPZFardYe4PKr09g+HvfrfLtj14xih61822Jm2ZgJGpOZPxTEQ1gxszEnIcjDHyLx9bJxhXlFglGzQEBWE/RbGCjHm955+tb3w6ItEtsvrIZlF3+M+sI6xBYERfubVeSepwGjHsTR91vfNylj/NfH2s5bfMQw9lYp5peHq8eQpBk7c2D7NseSjcCEoPM8nMQxEhtzZXMNFwOx8KGWxKzc2J/sXj4PycGkzDCcfuLOq19etKM8ArZjB/+OjW3b55EmdkAsJuuyK6V+P5jxmstIqs/vGyfgSYPrDx2U7eVWWSFOog3aP5kEytNRRtVIM21FI3YNqa11rVOvqocL6+TZlrR9btsoGE8dAfsVfkzrKQM0dnKw7JtR34uAR0VQ31sE/IG9sn3XtqE3zMK5bW2Iabk8Wd/2utatnz3wWffbPqefOgLuszDVNiEgBISAEOgOAiLg7shKNRUCQkAICIEeISAC7pEw1RQhIASEgBDoDgIi4O7ISjUVAkJACAiBHiEgAu6RMNUUISAEhIAQ6A4CIuDuyEo1FQJCQAgIgR4hIALukTDVFCEgBISAEOgOAiLg7shKNRUCQkAICIEeISAC7pEw1RQhIASEgBDoDgIi4O7ISjUVAkJACAiBHiEgAu6RMNUUISAEhIAQ6A4CIuDuyEo1FQJCQAgIgR4hIALukTDVFCEgBISAEOgOAiLg7shKNRUCQkAICIEeISAC7pEw1RQhIASEgBDoDgIi4O7ISjUVAkJACAiBHiEwFAE/9NBD4emnn+4RDGqKEBACQkAICIHqCCxYsCBcdNFF1T+IpByKgJ966qnw3HPPjVSwPhYCQkAICAEh0FUEXvGKV4TXvOY1I1V/KAIeqUR9LASEgBAQAkJACAQRsDqBEBACQkAICIEGEGgdAZ9zzjnh+eefbwAKFSkEhIAQEAJCYHIIDE3Ajz32WFi0aFHYtm1buPHGG8OePXvCrl27wv79++fU/ujRo2H58uXZbw8++GBYtmzZ4D2+OXLkSLjzzjsLW7xmzZpw8803D77NK2tysKkkISAEhIAQEAKjITA0Ad96660Bp8BAjMePH88l4Ouuuy5ccMEFGUnjwXc33XRTRt5bt24N69evz35fvXp1Rt7UgEG6Bw4cCNdee20A2ePfeO6+++6szBMnTmTvysh7NHj0tRAQAkJACAiB8SAwNAGDIEF+IFgQ4unTpwcaMLVeS6qoPkhz1apV4eDBg2HhwoUZaUMD3rx5c/Y7iBwEzHT4Gw81YFx/wgPij2nb44FIuQoBISAEhIAQSI/AUARM8zOrA010xYoVhaQIzRfPzp07owQMjRh7v2UEfPLkydKy0sOkHIWAEBACQkAIpEVgKAImmcKsDDKG9mrNydwXpvZK8zE023379s0xQVMDtgQMIvYmaGjZ0IBBwNCYkV4m6LSdQbkJASEgBITA5BAYioAnVz2VJASEgBAQAkKgnwhMnIBhYtbTXwR0hay/slXLhIAQSItAIwSsSTqtENuSW5vvcC9evHhw9iCGV5vr3hb5qh5CQAikRUAEnBbPqc6tzySmu+dT3bXVeCEwFgREwGOBdTozTUXAhw8fDg888EB43/veVyvaCA8E8jobHL/s3r07OzWPQ3y4/sZDgJCQtcSw7tCUcVgQD/6L63J4SMDIh45lcNjw0KFD4eqrrw7z58/PDiLi4aFDWXqmcxyo1UKgKgIi4KpIKV0pAsMS8LPPPhseffTRjHRxyh2OW0C++O95551XWq5NAALliXwQJK+98f45Ts/zgVOXdevWZX+y7tYRTMz7Gu6+Mw/ccwf54iQ/6ooH9d+xY0f2b+/5rVZDlFgICIHeIyAC7r2IJ9fAOgQM0qWmC9JCXM26Gm+sZXAMA0348ssvz8gXDzRi7gHzupv/NkbAIFcSNDVg/Hbq1KmwdOnSjOhByCB3PNCw6VDGu0+dnBRUkhAQAl1BQATcFUl1oJ6WgKHR+mDV+A2ke99992Ua46WXXhrWrl1bS8ul9zRqnDABe00V7k3pTW3jxo2ZG1QS8G233RbVUIsIGGUiT2jUMzMzczRguE8F2eLBv7EAkAbcgc6qKgqBFiAgAm6BEPpSBZIYiPayyy4LX/jCFzKTLEzL+A2kedVVVw1lWu4LRmqHEBACQoAIdJaAoWmkCsRQJy9oQzhwY6M6pehO8J8Nf9rW5FlWTl69h6ljHQzy2gsCBumCfGFihgYMDTeFaTkFxspDCAgBIdAmBFpBwDTxARjrrhKuJrGvFjuVak+r4rQpoywhD/6NPUB8i8MweLB/h7+tq0z8Tucg2B/EfiFMijAnIk+YHI8dO5aZIBnBidGYcIgHJAkXmTBzksRYNx+MgnUbrH7+wSkJ8/EEbMsBMbOeqD8eRpUCRjwYhLYiH9YLaZge+5ZYOLCezA/fYD8Tp3eJgZVJ1dO8yA+ECzMzCBgHqJ555pk29XfVRQgIASHQGgRaQcAkPByewR4dTJUgPlwBIZl5v88kERAFHkZHgibJqEkgHDz4G/8mUbI8SoF5gXB5uMYSMN4zzjHLW7JkSVbXDRs2nEXAzJ//tcTJsIwo27YN+XgCRhqWA0xIoMyX9bb7jgyMAQLGFRyGgmTbSMA2P5Rj82R0Ki587Gnhop7rD2Hde++9GSHrEQJCQAgIgbMRaD0BgzgsaXnSLCJgkDge3P0EeZHgvLnVEzCIC+ZtasCegGkaxu8gK+RvNWBLjHgPDZqmZdbfmpyRPkbAtpwyAkY59s4qv0UbGEEqLz/UyWIA3Gybqw6cOqegq+apdEJACAiBviLQCgKOmaCpAVN7pDkXWiOvlVBDyzNBFxEwCIsk403QVqOMRXCyRAaipiZL860nYJqHoZ3GysXvJGB0NFxzQcxjX47XpHn61t5NhbmZ31qTuz29y3pYs7VfdNDsjvpUvc8qAu7rNKF2CQEhMA4EWkHARQ2DpgizKbVRannjAGNcebINKQ46jauOKfIVAadAUXkIASEwLQi0moCxJ+zNu10TjDc1pzq53UYcRMBtlIrqJASEQFsRaDUBAzSaXf0hrLYC6uuFRQRNvf70dVfaULWeIuCqSCmdEBACQmCW32b3T5+fJBCapCeJ9mTLkmwni7dKEwJCoNsIiIC7Lb9W1V4E3CpxqDKJEeAB0MTZKrspRkAEPMXCT910EXBqRJVfXxGw51v62ka1qxwBEXA5RkpREQERcEWglKzVCKAf26t3/JtX9XD9j17j0BBcVbTXFfEbndfYq4M+kAfywNkWRu+ivwPkj2heMf8HrQZOlauNgAi4NmT6IA8BEbD6RpcR4P1/HouJ/Y1bDNZrnL+/T/8FJFHrvQ7f8laH14DpShdEjquW/u8u46q65yPQCAFLIEJACLQHgQmfw2xPw11NqK0SD/+3dbADMqUnvDNnzmRe9uBAZ1QC5k0JEnDfb060tjNMqGKNELAG/ISkq2KEQAkCslqcDVCZCdp7urMEjOAnRSZoasBIg3JAsIhpbU3OMkFPz7AVAU+PrNVSIXAWAiLgdJ2iy9760qGgnOogIAKug5bSCoGeISACTidQEXA6LKclJxHwtEha7RQCEQQYwxmv7rnnnizFFVdckf330ksvDTfccEMW3/mOO+7IftuyZUu46KKLwi233BIeffTR7Dd99wIuiMsNc/QTTzwhXFrQX9Bv77rrriwka1sfEXBbJaN6CYEJICANeAIgq4hGEAABn3feedmCsa2PCLitklG9hMAEEBABTwBkFSEEchAQAatrCIEpRkAEPMXC73nTsUUC8zO04LY+IuC2Skb1EgITQEAEPAGQVUQjCNx+++2Z+XnlypWNlF+lUBFwFZSURgj0FAERcE8Fq2YFEXCkE2jA92tk0FtQv1rV/dZUdXaj8dh9WasFcQROnjyZmZ9lgjb4aMD3a7i0VZ7wtYsrIcuWLasF+J49e8L69etDVQKrlfmEEteRSZ20vvpHjx4NW7duzbw44VHwgAkJWMX0BgGZoHsjymYaMsoEnqrGcIBAp/fIk87yY4SxfPnyzP1fHlmgPYhQA1+/VR5bFgjpoYceapyI6sikTtoqeKRKA1xvvvnm2guoVOUrn+4jcO+992aHsHQNSRpw93tzTguansDpTxeESu0VEWXon/fIkSNhx44dWe2h1dKPL0PKrV69OiPbRYsWZcSLB38zL/wOBwv4Lx6EqQOJ89/z5s3L3jH8HJ3oN6lB15FJnbS+C7Ct+B047t+/fxDFB3iAQCGLMiyA9a5du7Lvi4gX6SDPqosj1AuLoquvvjocP378rB6MsvBu3bp1heMTGEHGsTx6O7B70DDtAUeEOMqA70Gf6F0TmpQnCYDkt3jx4sGEj4kXEWo4YSMtSJoEzL8hEBsazr6HY31MvCAHPDBngwSWLFmShYzjYydoEneTUWzqyKROWtt5gRmwIbmCzH71V381XH/99VkyLGaw8EEamKlh1scDQgbGIDP82xI1Y+OCuPEN/guLAuVg8yHhxxZSXBxBXiRgLKJWrVqVlcn3diGFvBGflwsypv3gBz8YPvGJT2S/s84kY5aNeiMsoc2v7tZH7yaGFjRIBCwCbkE3HG8Vhp3AU9YKEzomQE56IGKQZoyAMWmSPEEQnHAZpcZGuiGBYOLlYTN41+G1BmjDVrvCZM+g7SnbVzevOjIpSotDLDTjrV27dk41uP8LrRUPcIO5D9/gv1jsIG8QniU+Rv8hueLbBQsWnKUBk4CBL8gTMqMGvHnz5ixPyJikh3z27t0brrzyyqxMytgTMGSJ/oE8UWfkP3/+/Dn5QMYf+tCHMsK1Cw0SLsqyafC3fVdnC6OubJW+XwhoD7hf8px4a+pM9hOv3JQWWEcmPi2I5YEHHsj8PINIr7rqqqgzAxAbyM9qwCAzWBxiBEwSJVmRgEHYK1asqE3A0EKxAAJRcxFAcYNg8TtMy3kEDPJGGhKwzQekC4L3BIx8SeAf+9jHBiRt2yTNd0oH3ZDNFgEPCZw+ewGBOpO9MJsMAnVkgrT3339/uO+++7LK4crG+973vkoHV6BBcn+dJmFqwlYDhnXBxskF+VkChkbLPXiQX5EJGgTP9CB/bjug7nZ/nlpwEQHTvE1LBs3T1NqLNGCa0mG2hsaLRQTN7E1uP0ymh3WjFJmgI3KqMzl0Q8zTXUvJs33ytzJ59tlnB8TKmuI3aLogXZDh9u3bM7N6m0+Ltg9l1ajtCIiARcBt76Mj108EPDKEyTOgTEC011xzTRZWEAQLwgXxwkQMLRe/vepVryo9pZy8gspQCEwAAUVDEgFPoJs1W4QIuFn8Y6VDJs8880y47LLLsr1cmJUR1xek653TS37tk59qND0IaA94emQ9lpZqAh8LrCNlCpngcBE0ABxywgNCjrnkk/xGgloftxgBRUOSBtzi7pmmaprA0+CYMhcvE1wlgrlZBFwNZZ52Zmqeit64cWN2ZarMcUe1UspT+ate5V+EwRUre0+9ynd9TKM9YBFwH/v1nDaJgNsn4joyqZM2r6W8d13lCg5PTud5lhrWBaX1pjWKRCzp8W6vvVeclzccu8DaQC9qPOntvXDRUQvy8fkiDzxlPrV5j5kka8vGvye5SBgF63F/KwIWAY+7jzWef4oJvPFG9KwCdWRSJ62HyV8B4rUepLNXhOy1HDrnIHmwfLqFBHHhag8eeMnCw+s9uO6DPeyZmZnsni7+T2cq9FLlrwR5z1sgfvzmvVeRDEmCIDF7rQj1gL9xOgahcxH7XRUC9u4vuSDBNS4EteB1LdaP95PpCMZ6DkOd7NUr4Ix613XX2bPuP2iOoiGJgPvatwftGmUCTwWODYiQF4gBmgc8HsW0NHq/qlofurmclCmyar2Yro5M6qS19bCaIjVg65UKRAECo5tQfksNkPeGYwSMe8DwYgYyBint3Lkzc4DBO70gpVOnToVDhw5lHq+s1gmnHHZh4D1vYVKG1zQ64fCRr6wWynZhYREjYOsbukgDpgtNkCrvMHORYvFn2SB6egJjPS2pUgO+7bbbsvvHwILkP4zZum7/Uvp0COgQVjospzKnYSfwlGDFCNgGCoA2ZjUIBmiwziMwiTMN0jNP5AON69ixYxmh0Dc0NCFoP9TurF/gOsECUuLQBgL2gRewuMHjMSGJ0J+01YAtAYNQ6Q6SDjKQH8iZvrnpuIMBHbyJlmZtECkJ2JqGIXdokshvWAK2JnCSMYg+LxAEcKHzDmJmCRjfWW9deQQMiwAeEfDZI0nRkKQBj2N+bVWebSFgmi2pWZBAGSIQpjlowIxeRBAxqUOTsN6V8M4TMCZMujy0YQc5uVvtryz6z7gFWEcmddL6elPT5KIEfrDpGcuaRqkFk0iRjw+mwKANIB0bqAHaHYMx4HeQFDViu+ix3rRASkWet0iMNriDJ0Hsw1IDRn0hX0bEYmAHHx3Jat6MyOUJ2KZhdC6a0RlXmaZuEjD6nTdBow7ot2gr0jPMpkzQP+6l2gMWAY97rm08/1Em8FSVj2nARQSMictqZNYEzT1KpqEG7AkYJlKYoBkIog1xgCepAaeSXd18hglJWKeMrptwqVm3dXukjixGTSsCFgGP2oda/31bCdiboBk8AJqZ1dSohVhfvlYzgQCgzdCfMbU9S8Agc2pjbYgbW0cmddK2oTNOgmD8NaQ2tLtqHbz5vep3StcMAtoDbgb33pTatQm8N8AXNKSOTOqknQbs1EYhMEkERMCTRLuHZWkCb59Q68ikTtr2tVQ1EgL5CMgELRN078eHJvD2ibiOTOqkbV9LVSMhIAKu1Qc04GvB1frEkmf7RFRHJnXSlrWUJ3XL0ul9+xFo+iR/CoQUDUkacIp+1Oo8MOnyLmKrKzpFlcOd0KoTaGoCrlruFImjc01N2Sc61/gJknWYlQAAIABJREFUV1h7wBMGvG/FYbA+/vjjfWtWp9tz4YUXioA7LcFmK98XAlY0JGnAzY6kCZTel8E6AagmVkQdmdRJW9aAlHmVlaX340OgL3LUISwR8PhGSUty7stgbQmcSapRRyZ10pZVLmVeZWXp/fgQ6IscRcAi4PGNkpbkPMxg3Xxwc7ht1W1ntWDdvnVhz8yeEHv/qa9+Krz/ze+f8w3Sveu/viv7Lc/zD53/24g8vmA47bAh4GKOGKwjjyph91iGz9v/nvce6VBmnbKYdx2Z1Elb1uVS5lVWlt6PD4G+yFHRkETA4xslLck5NlgXbF8Qlp6/NMw/d35GtCDKS86/JMx8cib8ziW/Ez755U+GJ7/zZNj36/vCf/jyfwh7v7w3PLLxkbD7S7sH6Tf8kw3hnTvfGd5z/nvCzFtmwqYDm7L0m/Zvylq+fc327L8n/tOJAXnCGxUe+N9l5CN4ToKfYETNsYEVGJBh79694corr8z8/MK3L9LjUBkImeRI/8MgZvicRlQb+DXGwxByIHg88EGM93R1iQUAFwfW5aXNm6Hv4DOZ9UI+yBMnOVeuXJn5TkbQAfj8ZeCAvC5QZwKtk7asy6XMq6wsvR8fApLj+LD1OesQ1uSw7mVJscF6zi3nnEWoaDy1XhLyY888Fm789I0ZyX70Vz4aPvz/fjh89snPhivfeuUc8gYZH3niSDj9ndPhDx/+w4zEQe6LZv/3vZPfGxBcXmB4uueDO0mQ3etf//rw1FNPZd+BIJcsWZJFO8J/6XCf7ifh6B4PfT1b4kSUJORp0zByEkm3SANmBBte30GZqAe+hfbry0XdUUfG0hUB93JINd6ovhCwoiFFulJfhNv4KGlJBbw8b//c7Zm2un319rDvK/syQrX/vvW9t4aFr1oYHn7y4YFWDALedMkLmu2F512YacIgW2jGIOOL51+c5YX/koCR9rrF180hLEaEsaHZGKUI5GbJFf9mEHRqu/Y75G+/BdEiHdoLDRS+oD1hM39qqNCSLaHSf3RW938IRweytQRs64X64EG0HAajt6byvhIwcCPeo3bzurGbaSUpW+TUrVedfFO1v26ca7apL3O09oBFwHXHaefSNz1YrYl3XOAxVm1ZhBkSKe/CDjsBjtqOOjKpk7asXnl5AQcsIqyZH3/DxM6wgcibuBWFLbQxnBn6EN9xmwALLWui59498sciBqEIac2gfFg/LnIQ7pD5IC0sHNiLZ+QrGwuaoQCRP+uGf9tyaU2BdYTEzrMJbDfPHXAbhVsdeUFCgN2hQ4eyLRHi6mNSD9v/UvaJsj4zzvciYBHwOPtXK/Luy2BtBZiJKlFHJnXSllUvlhfIlKEdQTp4bHB5LlrsITmrAYJEsAcOawAtFSA9xPJFnFwQL/4mUSJ/GxrSasCM3WwJGOcDbHhK5sd88F9PwPzex4K2xG8XEdjbR1xjS8A2LjDe48wCLC4gazy0APh0FjuG3OQ5B7TDL3Rs2M0y+fF9yj5RtcxpTac94GmVfKJ2a7AmAjJhNnVkUidtWRXrErA10du8qxAwQkqCXEDqIC+QIgjOkhf+7QkY35DcLHGRqGgqZj7Yd7cH+qBB21CU0FBj+/LM58yZM1l6T8A2hjXKokbsCdins1ot/82yuJCwmr0IuKzXNvteBNws/p0vPTbp5l0zqtLYzz/1+SzZO17/jkFy5IeDWI8/+4LHLXsdKe96Eg98cQLLm+w5SdvrPkVpq7TBp6FpEJMrJmRbVtE1JOZTJY0tsw6p1klb1vY6JmgQg9USYf6FNkry4H46zbrE0JqgiwgYWitIGoTJvXyeTqdWGTPd4gS8JXL8m3WhCdsT8Pr16zNoqMn6cq0GDJIkifM7aM7U6GmKBpawCvCEPPJnLGuSqidg/G1N0jJB3x4uuuiizILS1kcE3FbJdKResUkX15B4zQiHrXBwCoevXvITL8kOV4FMcdDKXk3C7w89+VDW6gWvXDC4eoQDXHgHQsUBrxVvXBHW7lk7yB9Xm+whL1xnwonpGy6+YXDCGftu1DAwgWMCs4edsA/JQ1p4jz0+f8CK5j1Mprt27RpMdPgOe5CYOPHgKhMeO/lxEQAiRVnIA5Mv/ouH+XGiLrrKVKVb1CHVOmnLyh4mL951HpYsyuo07ve8joY+1tU2eIyGkeO4cR4mf+0BR1Dri3CH6RB9/CZPAybJgnzPP/f8cGrTqew+8OdOfy4jVzwfefgjGZH6O8AgW1xlwvP8lucDHHTgRDTy+e1LfjsjYWrDIHhcScLJa5yY/sBbP5B9By3Zao78N4gY5kC7n4j00Fqwf2a1FZxgxgMTJLQePCBmXj2iaRG/895u7JQySAYaDu7x4uEJamjDeGg+xd/8N09P433XNeC8fm/Nw10lL3u6uatt8PLpyxytaEgi4D5y7pw2+cEKkzC0UjwgVjjTIAFDM7533b2ZBgtCpqZsCRi/wckG8wAB06QNIsZVJJAt8kQ6OOYAKZOA6fzDE5e9v4sDPfZqj73uQwLmnVuSrb2SRGImGXsC9nuYvizr6IP3hknu/ioT7wPX8YhVZwKtk7asM9fNy5qgizyVlZXb5Ht7mrnMQUqT9axTdl051sl7UmmvueaacNddd02quKHLkQl6aOj0IRBo82CdxBWl1L2Ap4JHucpURyZ10pa1NWVeZWXp/fgQ6IMcN23aFC699NLB/i/+3rJlS+tCp4qAx9ePpyLnPgzWvgmqjkzqpC3DKWVeZWXp/fgQ6IMcEYrwiiuuyLTg++67LyPjtWvXjg+0IXMWAQ8JnD57AYE+DNa+ybKOTOqkLcMpZV5lZen9+BDoixwRFxunoEG+N9xww/gAGyFnEfAI4OnT7hIwfUAzSEOei8dhIxI12TfqTKB10pa1KWVeZWXp/fgQ6IscYXbGs337C4Fb2viIgNsolQ7VqUuD1R6O4uEmnkjmNSNcK1q1alUmAd7JxAlmXBuyEY+4R9tGUdWRSZ20ZW3l/nVZOr0XAn1BYNR5QATcl57QUDtSTuCTbAKdbcC1H5012DvAVjO2J6hRxyoBESbZFl9WHZnUSVvWppR5lZWl90KgaQRS9HcRcNNS7Hj5KTrhpCDwEWlYdzrOJwFT24WzezjlwP1daMa8oiQCjkusS31hUn1O5fQXgRT9XQTc3/4xkZal6IQTqegUFVJHJnXSlkGYMq+ysvReCDSNQIr+LgJuWoodLz9FJ+w4BK2rfh2Z1Elb1tCUeZWVpfdCoGkEUvR3EXDTUux4+Sk6YcchaF3168ikTtqyhqbMq6wsvRcCTSOQor+LgJuWYsfLT9EJOw5B66pfRyZ10pY1NGVeZWXpvRBoGoEU/V0E3LQUO15+ik7YcQhaV/06MqmTtqyhKfMqK0vvhUDTCKTo7yLgpqXY8fJTdMKOQ9C66teRSZ20ZQ1NmVdZWXovBJpGIEV/FwE3LcWOl5+iE3YcgtZVv45M6qQta2jKvMrK0nsh0DQCKfq7CLhpKXa8/BSdsOMQtK76dWRSJ21ZQ1PmVVaW3guBphFI0d9FwE1LsePlp+iEHYegddWvI5M6acsamjKvsrL0Xgg0jUCK/i4CblqKHS8/RSfsOAStq34dmdRJW9bQlHmVlaX3QqBpBFL0dxFw01LsePkpOmHHIWhd9evIpE7asoamzKusrCrvUZ++P6MGA+g7PuNsX4r+LgIep4SmIO9pmOS6KMaqE3OKSYT4pMwrBeZtq0+KNtk8+t6+1Hilzi8F/iLg1FJRfq1F4Pbbbw+33HJLFqT7/vvvb209J1mxFJNIHwn4uuuuC3feeefQomC0rXXr1g2dR9mHKWVXVpben41ACvxFwOpZU4HAs88+G97+9reHe+65J1xzzTVhy5YtYe3atVPR9qJGpphEukzAIErEgibZgng3b96c/YZnGBLes2fPAPIqBMwyEQLT12dSspv6gTAEACnGjgh4COD1SfcQAOlecMEFGfGePHkyI+PHH388nHfeed1rTMIap5hEukrAIL6DBw+G48ePZ8S3aNGiLOQkSHPx4sVh69atWSjKXbt2heXLl2fN3LZtW9Z/QMyME420CFeJcJZIv3v37iw/hLLEg/CWyBtl4b/XXntt9n7//v2BmjbyWLVqVZYvCBzfIE+Qct6TUnYJu9TUZJUCfxHw1HSX6W3ovffeGzZt2hS+8IUvDAgXhIznrrvuml5gZlueYhLpIgGTcEGaJMIdO3aEBx98MCxbtmxAjCDIFStWhCVLlmRkiL+pGZOASaL4e8GCBVlaPMeOHQunTp0KN91004CA9+3bFxBPGmnxLF26NCtvzZo14cCBAxnpnjlzJiN8EHWRBp5SdlM9CIZsfAr8RcBDgq/PuoEATM+XXXbZWSZna5LGnvC0PikmkS4SMOt89OjRTGMl0YEI8W9oo9Rq8Tc0Vzwg6IceeigjVTw47GYJeGZmZpAW2vSRI0cCiJ0aMAkYCwCUAe0b32/YsCEjYvyOv7EoKHtSyq6sLL0/G4EU+IuA1bN6jQAOXT366KPZ3q9/qBnDFD2tT4pJpMsE3JTcQfwgcmjDwz4pZTdsHab5uxT4i4CnuQf1vO3Yq4P2ixPP2P+NPVdccUW49NJLww033NBzNOLNSzGJiICb6TopZddMC7pdagr8RcDd7gOqfQECIN+VK1dm5ue8B6boCy+8MNsfziPpPoOcYhIRATfTQ1LKrpkWdLvUFPiLgLvdB1T7HARwcvXjH/94ZnouO+lcZKbuO8ApJhERcDO9JKXsmmlBt0tNgb8IuNt9QLWPIECtFuQLDbjKAy14+/btU3c3OMUkIgKu0sPSp0kpu/S163+OKfAXAfe/n0xdC3HlCA8Itepz+PDhgP3gZ555puonvUiXYhIRATfTFVLKrpkWdLvUFPiLgLvdB1R7hwCIFHd87Z3fqiBN493gFJOICLhqD0ubLqXs0tZsOnJLgb8IeDr6ylS0EqZnaLFXXXXVwAtRnYbTdI1T09NyNzjFJNI3AoZXKtzPTf3wjnGRd6s6ZaaUXZ1ylfYFBFLgLwJWb+oNAgi28MADD0Tv/FZt5LTdDU4xiXSNgOk6EvWuGjUq1n/gMAMn5/Pu8lYN6FA1na9DStlVHR9K92MEUuAvAlaP6gUC1F5x6KroOtEPfvCD8NKXvrSwzSByuKikL99eAJTTiBSTSNcIGJooPE3BHSRcQdKzFbxV0TMVvF+RqOERCx6s6FKS2jHywYO86NkKaelC0hO99ZjFvOBvGn6fuRiAPPDAi9b8+fMzl5Sslwi4XSMxxdgRAbdLpqrNCAjg6hGIuOhBlBtMeG94wxsK0yFS0jTcC04xiXSNgEmMJEqSHtoBV5N0TYnfGRDBpzl9+nRGkPzvvHnzBlGVSPAkXEZHgltKEHteeVgQ0MUlAzsg/7yISillN8Kwm9pPU+AvAp7a7jOdDUcUJGi307LHWyblFJNI1wiYBOn/y3ZYkzDIGgs7aKrWPzODJ+AbEDlCGNLPM7/PI2CW68ujRg6f0HjgrlIEXNaDm3ufYuyIgJuTn0puAAGYl6dFu60Cb4pJpKsETM2UEYvQDmi8sJIgOAJDEFoTNNLgpP3evXvPCuDgCbjMBG3LY1hEascgddRBBFylFzeTJsXYEQE3IzuVKgRagUCKSaRrBNwK4BNUIqXsElRn6rJIgb8IeOq6zXQ3GOZEaMBl7imnBaUUk4gIuJneklJ2zbSg26WmwF8E3O0+oNrXREB7wHMBSzGJiIBrdsJEyVPKLlGVpiqbFPh3goDtqcGpknCLGzvK/ckmmyUCFgE32f9Slp2CAFLWZ9rySoF/Zwi4qxN+Xztlis7XBDaPPvpodr1IJugX0E8px5R5pegbfV+4a05M0UuGzyNFfxcBD4//WL7EhX6ephxLAYkyTdH5ElVF2YyAQEo5psxrhCbpUyEwEQRS9HcRcE1RgSBxTQEX6vHgrh/uAFb174qrCXjyfM2SgA8dOjS4d+jLrFnlsSRP0fnGUrGSTBFwYcuWLVPhZKMKvinlmDKvKnVXGiHQJAIp+rsIuIYEQba8rwdShIs4uIyDpxqau3BnEL/jgTcbuDOkqzl42YHbu5mZmXDs2LHsd3x/8803Z/cP8R3ypwaMPLdt25b5msWdRaSnZ54a1R5L0hSdbywVK8lUe8BzAUopx5R5NdE3VKYQqINAiv4uAq6IOAkXpAqPOCDjHTt2ZK7r4IYOhAoiRjr+G2lWrFiRuazjYwkYv8PrDTzggGSpTZOAeZEfez3wigPHAHSfV7HaY0uWovONrXIFGV922WVZnGB5wnoBpJRyTJlXE31DZQqBOgik6O8i4DqIz6YFEdJXLD5liLFVq1Zl2ikIGVov/g3tdcGCBXMIGJ5tqPmSgOnWzrq0gwkaZm6YtkHqIGfrCq9mtZMnT9H5kldKGdZGIKUcU+ZVuyH6QAhMGIEU/V0EPGGh9aW4FJ2vCSwQrEEnoH+MfEo5psyrib6hMoVAHQRS9HcRcB3ElXaAQIrO1wSc2gOei3pKOfb92k8T/VVlthuBUa+CiYDbLd/W1i7lxD3JRoqAx0fAk5SjyhICfUBABNwHKTbQhq4SsKIhiYAbGC4qUghEERABq2MMhUBXCXioxvb4I8mxx8JV01qPgAi49SJqZwW7OnErGpI04HaOKNVqGhEQAU+j1BO0uasErD1gEXCC7q8shEASBETASWCcvkxEwP2QeVfl2A/01YppR0AEPO09YMj2d3XiVjSk8WrAuoo05IBq2WejXq9pWXNaWx0RcEXRwFsVPVHZf9vP4a2KQRrs78NEOIJ7SviMrhrkoWIzkiXrKgEnA6AnGaWUY8q8egJvJ5shOU5ObCLgiljHCJguJOEfGgEV4KsZD9xQ0jUl3FGCSOHfeenSpVkapodfaPqABnHTvzRcUiJm7c6dOwfuLeFvmkEe4O4SPqSbfLo6SBUNaXwacFf7RJPjqI1lS46Tk4oIuCLWDIyA5CBCnKYlgUJbBbnSRzQjFzEtIxzBLzS+gyYNn9KWgBHS0IY5ZJ7IA+lOnjyZBX/A04aADF0dpDqEJQKuOOSnNllXx3YXBSYCrig1rwFD4y0iYGSL6Eh4rAkaxItgDTbsIKMgeQKG5owH2jMIuE7c4YrNGjpZVwepoiGJgIfu9FPyYVfHdhfFIwKuKLUyEzS0WmitN910U8ABBmrMMDfDvEwShRbLkIZMA436+PHjWWSlAwcOZBouTNCWgPFvmqAZI7hi1ceSTIN0LLBOPNOUckyZ18SBUIEDBCTHyXUGEfDksO5VSV0dpIqGJA24VwNxDI3p6tgeAxRjz1IEPHaI+1lAVwep9oBFwF0bkbCUwULGB5Y2nCfhFlfq9nR1bKfGYRL5iYAngXIPy+jqIBUBt5+Ah7m2lzfEcObi9OnTlclqXNf/6uaLg5zz58+fc9sh75pj6umlq2M7NQ6TyK8zBPx7v/d7k8BDZVREAPLo4mV9RUOaPAHzeh3POvBvnGXAmQk+7E8gYJ534HkJe+UP5y2YB77FdyA4e22P1/RAwLweiLMVGzZsmHP7oOz6Hw5a4oYD8kOZ+B6HKHHVEPXn1ULUg3XFv225SIszIPZev70pgfojbxzMRFr8n+2/++67w5EjR7IzIcAKv2/dujUjZzz26iPKQJpRz4iIgCtOggmSiYATgDiNWXSVgKdRVkVtTjnZxvICmfJ0P0gHDwiFDmvoOcuShtWAQUwrV67MbgHgzjyv54GEePARJEiiRP68nUAipAYMEre3F/JuHyA/5oP/egJm/syPJGjv59tFBEj01KlTcwjYXmskyeKWw7FjxwbiogZMzZf/pXYMDHBoEw/wA0YgauA0ypOyT4xSj2n4tjME3EVtq88dqKuDVNGQ5vbKlHKsS8AgKRCO38usQsD2zj2ICqRobw2QhKwJGoTJGwl0gBO7f2/zwV6rJUJowCR0EOKKFSvCkiVLzvJYR5PzmTNnsvSegL03PZIr6wspVSFgeuejVFEuiDjmka/qfJSyT1Qtc1rTiYCnVfIjtrurg1R7wJMlYJQWM0GDIKyWCPMwyJBEVMUEjTyoDXoCpmMcEKY1QeObYa//0YTtCXj9+vUZqNBkQZpYHNhyrQYMawBJnN9Bc+aCggSMfFBv+w6kjQcmcG+CRhnQ7mkaH0UL7urYHnFKa+TzXhLwp776qQzM97/5/XNA/fxTnw9HnjgSbrj4hrD54KznqVW3Dd7jHZ53vP4dg9+Yz2f+zWcKV5Tczynae8HK1A6KPH/S6PwYTFVPOOZpEfbQhy/bgoIBP4xby64OUhHw5Am4aGZj/5vUAaPUsyzGHx74bO9qGzwmXR3bqWU7ifw6ScC3f+72sOnAprDv1/eFh598OGz4JxsyYv3c6c+FvV/eG2597yzZffrG8J7z3xOO/ubRcM4t52T//uivfHQOAV9y/iVh5pMz4cq3XplhjW8f2fhIeOfOd2a/feCtH8h+P/GfTgzIE8SJKwEwZXIlbK8FkOz4G1a5dnWKFSrMUtyzQh4wYeEABR4etMC/sceDVe2HP/zhcP3112f7PDCJIU974MMSLCcBEjNXyigPeXNFDYcgPLDBQx88JAMNYePGjYV7SV0dpIqG1B4CtubhrpKXXeh2tQ0i4ElQbbyMThIwtNW1e9aGU5tOZZosCfj0d05nWi01V5Dz/HPnZ2SN5xP/7BPhg//3B7N/g2DxDumRB8gYD775w4f/MPs3CN4TMAYcHm/iweDDw0MQPh0HKva8cAgFBAiTFveQQMA8ZAKSBSkjLfeXQHgg3csvvzzb67J7Z3karq0DzW70soWySNKoN8rBwgCPPcSS1zW7SsDNDbV2lpxSjnXzsiboUU/uNoWuPc3chiApKXCoK8cUZU5rHp0kYBAmSBIEuWn/pvDkd54M21dvD/u+si989snPZhrwwlctHGjH0GjxQLu1JmiSM7VjpEOe0IrPP/f8sH3N9rMIGESGB1cGSIL2WgWDJpDooGXaPSB8gwMZPARi94p4nQL7V9jngQZM7Rj5gIBh6gJ528FuCdj+G5ODLQvfYaI7dOhQdnqSmu/hw4ezk6Z4WIeyPaSuDlJFQ5o71aWUY8q8pnVCbkO7JcfJSaGTBDw5eF4oqWgPddJ1sf6ieZAldpJ03PXq6iDVHrAIeNxjo+v5d3VsdxF3EXAXpdaCOnd1kCoakgi4BcOn1VXo6thuNag5lRMBd1FqLaizBmkLhJCgCinlmDKvBE1TFkMiIDkOCdwQn3WSgPOuGVVtP773V5R4LclfT0KeRenx3p5+zDNXx677pDRt80AL9olxctpeLYr5lfVY1a1LVwepoiGNVwOuOgaVTgj0AYFRHUR1loB5UAonoXnNaOYtM2HFG1eEWz97a9gzsyc73YyrSTiY9fyW58Oy/3NZ+OmX/HQ4+NjB8DuX/E7AqWlePdr9pd2DE9E4GY08eRALZdlDXsiLRO3v4fK0MQ444dI9D0zhUr09mIVDVLyKhANX+A7EyXT0OYtOirxwkAsPrzXxnrD1oMPL/LwqxWtMf/AHfxDmzZs38GFr4xXzMFfefeK8QdJVAtYesAi4DxP/uNswKrGMu35tyD/FHNhZAoYAnvz2kxmJ8toQrhl983vfzE5DXzz/4sypBq8dgUB5TYnkCZLFAzL+5Jc/mZ2mBun+9iW/nRH5488+nr3nXWOeprZ5QbPFQ43TXjfiCeSi60DW7yxOHvOUNe4Z4+GVIOTB08v2DrDtiNB0QeI8Pc1rTPZ6kfdzy9POIuA2DOnJ1yHFJMJap8xr8kioRCFQD4EU/b2zBEwN+N5192aOM/BQy4XDDd4TXrB9QUasdNoB7XbdvnXZHWBqx56cca/Y5wnt+iMPf+SsvDxxWQIGieK6D68h4YoSHl4Hwr8tIdLJBhxixAgY6XEdCZo0fb3SdMz7iDRB22tMnoDx95VXXjnHmccwBHz//fdn7bnooovCeeedF+DkAiZePLzWhCtOePAe6fAe6Zr6jr6gcV9bTwgpJhERsHrSNCKQYux0koDbJuy6+6dN19+HSsPd4rptQOcjycJL19q1awNC/d13331Z8+65556MdK+44oqMdJF2y5YtAYR8yy23ZGma+q5p/NtUfopJRATcJomqLpNCIMXYEQFPSlo9KydF5+sZJJ1sTko5psyrk2Cq0lOFQIr+LgKeqi6TrrEpOl+62iinYRFIKceUeQ3bHn0nBCaFQIr+LgKelLR6Vk6KztczSDrZnJRyTJlXJ8FUpacKgRT9XQQ8pi5jg4qPIxzgmKpdOdsUna9yYUo4NgRSyjFlXmNrsDIWAokQSNHfRcCJhMFsYk45eDIap5sZeBz//uAHPxg+8YlPZAESGMQB93IRohD3fdt8Fy9F50sMvbIbAoGUckyZ1xBN0SdCYKIIpOjvIuAxigxXg/AgJi/j8eJvG3rNxg9mOEKkKYtGNMZqV8o6ReerVJASjRWBlHJMmddYG63MhUACBFL0dxFwAkHYLLy5GY41jh8/Hnj1h3d86fEK3+JOKp1s8M6wCDixYJRdFIEUkwgzTpmXxCUE2o5Aiv4uAm67lFtavxSdr6VNm6pqpZRjyrymSghqbCcRSNHfRcCdFH3zlU7R+ZpvhWqQUo4p80ohGdSn70/ROZFpb/+4ZZ+iv4uAxy2lnuafovP1FJpONSulHFPmlQLEttUnRZtsHmXtK3ufuj6Tzq/p9qUoXwQ86V7Tk/JSdL6eQNHpZqSUY8q8UoDaVH1w+JLRylK0Iy+PsvaVvR9X3drS/nG1j/mmwFcEPG4p9TT/FJ2vp9B0qlkp5ZgyrxQgjlIfhPTcv39/Vg0coGRUsrx64fohgqwgdCh8q+N7BGLxJmKbLw5sIhiLjd1dp91l7St7X1TWqO33eLCsSba/DpbDpB0F3wGJz3aQ54cpfNhvhqn0MN8MWz99Vw0ByaQaTm1PlVKOKfNKgdsw9eFtBcbJBmEokSG0AAAOgUlEQVTgARmTVHCTATcbuMeKu/2I3437+9B8kW7FihXZ9UP8xgd/48ENiFj+ddtc1r6y97HyitqPBQOiseEBbRS1n3jYMibd/rp41k0/DL6+DGnAdVFX+gyBFJ1PUDaPQEo5pswrBTLD1IeaKzRZhO3kdUGE//RXDOl0h5psjICh3SIdHuQBD3kgcMb0JqmTkOu0u6x9Ze9jZaVqv1+QNNH+OlgOk3YYfEXAwyCtb85CIEXnE6zNI5BSjinzSoHMKPXh/X3UA3uap06dyqoEDZAasCXgmZmZ7HcQ6e7duzONGOQNIt+3b1/2Le7223xB3IgBPux+cVn7yt4XYRxrP+OV4ztowEXt37x58wAPmO+baH+KPlSUxyj4Ml9pwOOWUk/zT9H5egpNp5qVUo4p80oBYlvqA6ICIWFvOOVT1r6y9ynrUpRXU+0fd/tS4CsCHreUepp/is7XU2g61ayUckyZVwoQ21afFG2yeZS1r+x96vpMOr+m25eifBHwpHtNT8pL0fl6AkWnm5FSjinzSgFq2+qTok0i4B8j0LR8U5TfGQJO3XmV32gITPjw/GiV1de5CKSYRJh5yrxSiKxt9UnRJhGwCHikftT3QTESOPpYCEwYgZTjMWVeKWBoW31StEkELAIeqR/1fVCMBI4+FgITRiDleEyZVwoY2lafFG0SAYuAR+pHfR8UI4Gjj4XAhBFIOR5T5pUChrbVJ0WbRMAi4JH6Ud8HxUjg6GMhMGEEUo7HlHmlgKFt9UnRJhGwCHikftT3QTESOPpYCEwYgZTjMWVeKWBIVR96ukKd4GQDHq2qPnRWUTV9nXRl7St7X6cspLV+nO2/bT557YUHMDgkgTOSVE/q9tWtV4ryO3EKui4wSi8EhEA1BFJMIiwpZV7Val+cKlV96LFq165dA5/QcKyBB6SCgApXX3115vVq27ZtA49X+BsPbgzQjzK9aE2ifanaz7rGCJiuK+Fa8+abb868f+FB20HGCEgBX9nASwR8ttRFwClGgvIQAh1FIOUknTKvFHCmqg/Jk5GO6NnJEjCjJYGQQET8mxoh6sJnGL/PMTzK2lf2vi7GcE/JRQUWEliQsJ20EtBCwKAOLIMuOaUBz0VdBFy3Fyq9EOgRAikn6ZR5pYA4VX1ILtByEQUJf8P3syVgG4gBfqA9AeeZbEdpZ1n7yt7XLdtrwHahESNgG8JRJug42iLgur1Q6YVAjxBIOUmnzCsFxKnqY/eAt27dOsfUCpMzTNCWgLFHbLVFa4KmeTaFX+iy9pW9r4txmQkaIRtpLUCbaZ6Gtnzw4EGZoCOAi4Dr9kKlFwI9QiDlJJ0yrxQQt60+Kdpk8yhrX9n71PWZdH5Nty9F+SLgSfcalScEWoRAikmEzUmZVwqI2lafFG0SAf8Ygablm6J8EXDqUaH8hECHEEgxiYiAmxF4mezK3jdT63SlNt2+FOWLgNP1B+UkBDqHQIpJRATcjNjLZFf2vplapyu16falKF8EnK4/KCch0DkEUkwibSbgzgmkZoWLopJBtn1/mozKlmLsiID73kPVPiFQgECKSaStBCzBC4FxIpBi7DRCwOMERXkLASFQHYGUGkSKCal6zZVSCDSLQIr+PnECbhYylZ4KgSuuuCLcc889qbJTPj1AIMWE1AMY1IQpQSBFfxcBT0lnSd3MW265JWzZsiV1tsqvwwikmJA63HxVfcoQSNHfRcBT1mnUXCEwLgRSTEjjqpvyFQKpEUjR30XAqaUyJfk9+uij4aKLLpqS1qqZVRBIMSFVKUdphEAbEEjR30XAbZBkB+ugPeAOCm3MVZ6Gay9jhlDZdwyBUQ8xioA7JvC2VFcE3BZJqB7TjsBll10W7rrrrnDBBRdMOxSda78IuHMia0eFDx8+HFauXNmOyqgWQmBKEUBM3ieeeCJgS0i3ErrXCUTA3ZOZatwDBBC2bcGCBWHdunU9aI2a0AQCzz77bNi0aVM4efJkthh+29veFtauXdtEVVTmkAiIgIcEbto/u/3228MNN9ww7TC0pv3XXXddQBxaPdODAK4CXnrppeGOO+7ITNDYFrr//vunB4AetFQE3AMhNtEE7QFXQx3EiIfkyL9XrFgR5s+fHx566KGwc+fOcOLEibB69epw4MCBgCDvMzMzAYHM8eB3BDvHtzt27Mh+P378+ODvDRs2hN27d2dp77777ixgPN7j2bNnz5y/q9VaqbqAwL333ptpvLyTj22h8847T7cTuiC8f6ijCLhDwmpTVUXAxdI4evRoWL58eUaIMDP7v0GMJOClS5dmmYFEQdRr1qzJ/rtv375w4403ZkR75ZVXhr1792a/41s8R44cmUPsJPnHHnssI2kQOb73f7epH6kuQmCaERABT7P0R2g79p+w2tYTR4DaKgnY/20JGNrumTNnMm2YhLt58+aRCZiaMgmYf0tm/UJAd/K7K08RcHdlp5p3AIEqJug8Aq5igram7YMHD4atW7fKBN2BfpGyirJGpURzsnmJgCeLd29Ku+aaa7KDH3rGgwC0Vpqgx1OCcu0LAiLg7kpSBNxd2TVacw368cIvAh4vvn3KXXfyuytNEXB3ZddozRUNabzwi4DHi69yFwJtQEAE3AYpdLQOuAv8xS9+Mas9zdEwTeOBUwDcE8YBEdxTxHP99ddnVyT0nXBRf0k3HnAYcvv27R2dRaa72iLg6Zb/yK3HaWg8PBHNv6v+pu9eEIHHQbgIFw7OKn1BNxJGnsoayUAE3AjsKlQICAEhIASmHQER8LT3ALVfCAgBISAEGkFABNwI7CpUCAgBISAEph0BEfC09wC1XwgIASEgBBpBQATcCOwqVAgIASEgBKYdgaEIGD5rn3766WnHTu0XAkJACAiBKUUA8bxxrXKUZygCfuqpp8Jzzz03Srn6VggIASEgBIRAZxF4xSteEV7zmteMVP+hCHikEvWxEBACQkAICAEhEETA6gRCQAgIASEgBBpAQATcAOgqUggIASEgBITA2An49794WigLASEgBISAEOgUAq98yYvC9W95/VjrLAIeK7zKXAgIASEgBLqIQC8IuIvAq85CQAgIASEgBMaNwNg14HE3QPkLASEgBISAEOgiAiLgLkpNdRYCQkAICIHOIyAC7rwI1QAhIASEgBDoIgIi4C5KTXUWAkJACAiBziMgAu68CNUAISAEhIAQKEJg8eLFAf/fv3//INmePXvC/Pnzw7Jly876dM2aNeHqq6/Ofl+/fn148MEHo+lGRb0VBHzrrbeGm266KWzbti3ceOONc9r02GOPhUWLFoUTJ06EhQsXZu8AJP6+++67w7p1687CAPn5fGJAIZ/jx4/PeQWh7Nq1K9x5552D8spAZnl55SLPJUuWhDNnzgyEiN9Qdwo61g6We/To0eyfp0+fzvIhDrZe1113Xbjgggui7Ua9Tp48mbWJD3C19eHvxPb5558va/bg/TnnnJP9G9/E2oP6+05OuULmS5cuLe3cyGP58uWZzCGfAwcODPqExx11uPzyyyv1ATaC+KEuwBkDc968eQOskSf6iu8vlUEaMWGRfJE1ZHDttddmpezYsSPD6ciRI9m/IRe8j42vEatV+HmVcVHU74syj02owIjtt/NF1TbG8rTfxvpxXt510mIsHDt2LOvXliB82ej/tl2cQyj/Scu3Kq5tSEfZYl4A12CsrFixIqsaxjqwXb16dYY/cOWDMbR58+ZMPsP21aL2t4qAscrYvXt3RiQACQ86nG+8HdggFhIPByD+RqQKrFzQKZEGE5FdxVhSRHQnlIdJ69SpU1m5MzMzGfHv3bs3XHnllZlwsCJCnqgT3jE/LiDw28GDB7N3JApM2Fu3bg0333zz4B3e4zcIHg/Kx8NFyKFDh7KyKHCSD/HA93hYN062aDfrffjw4bBy5cpB+9HZQN7AEg8XBOh4eEi4JGC2Ee/QTqRDp6VsUCbahHYQZyx6SBTE33Z0ptu5c2f2HbFGWjx4j/SYkCzB4l0ZARM/1IvtI06oP/BkXfEe7yAbEhPqALzRL1AvyMBOhqjTqlWrskkSWFCGqLPPL/vhH3BDucCSeN5xxx3hox/96CAf9CtOCvgGfwNXTghcbEF+qJ+XDydkThqoO+TAMYKFA9sB2dhFGOs5rv+yTujnwB4yZb8BjljooK1oA/sy+qH9jv0OdbRjGP0BeXJMcnxShigT+aMc4MtxYccK5xjb94Ev8bcLGvQh5se+yf6FPNl3UU/OP1wAsf+hnWwf+w1+Y//BO/Zz+w3nQKSzZGHnCLybtHzH1W/GkS/HA/oW5yHOO5gLIUu7gMG4wdiz812vCZgaK1d1VhPjpMg0fMdBAWCsFoR/2wkVAwETKCYiKwgMtI0bN85Ja7UrkJUVDokcAwKTMb61kx3LhYCtBkJS4OAhKTFvS+62TcTCa8Ao207q6DjsTMACpGInBUze1Ojst9CAMYitacZP8OiYwATaIMmbkxw7JNqNB1j4yZNtx3v7HScaYkFsuHBB5wdZeAygSWNwYBK0CyArb5YFHHz92VeQnmUSP5AXccS/3/3udwdE/ooRn53wfX/Dt5jwgS9IgpozTV4gFbtAQpl+ccQJAW2xCxYsDGx+qButCXaBBGxIeiR/rvDHMcHl5UkrE8iBBAoiY19A30J7uHDlYs/LzY5hlGVlS5LmIgX9A30HfR0Y8OG4ZP/wGi//xrzA/m7LtX0b75G/JWz2dbYN5XChi3HG+cJjRQ2Y8xEWBjHSBla/+7u/O1hYs89T/k3Id5J9qY9ltUIDHjewfsIed3kp8s8zEafIu+15cBEArehd73pX5a2AtrdL9RsegabGcKpy7TZNVRSsibnqN0rXLQSmgoC7JRLVVggIASEgBKYBARHwNEhZbRQCQkAICIHWISACbp1IVCEhIASEgBCYBgREwNMgZbVRCAgBISAEWoeACLh1IlGFhIAQEAJCYBoQ+P8BJJk08MYNaosAAAAASUVORK5CYII=;" vertex="1" parent="1">
          <mxGeometry y="280" width="373.33" height="280" as="geometry" />
        </mxCell>
        <mxCell id="BaFMhR3DntHVQc-vTrnS-2" value="" style="shape=image;verticalLabelPosition=bottom;labelBackgroundColor=default;verticalAlign=top;aspect=fixed;imageAspect=0;image=data:image/png,iVBORw0KGgoAAAANSUhEUgAAAeAAAAFoCAYAAACPNyggAAAgAElEQVR4Xu29C/RVR5kvWETj4/pIfMWEJoSQtO9rHiomBDBiN3CnZzROUB69NFG78cI4GiINyxnuRF3cWQsWSmKvhnvpqxJ7NQ/FZXJnega4Np0GQjKYaNJq+wJCACEx6TbaPqNX5vw2/Tt8/6L289Q+Z+9zfnstFue/d9VXX/2qdv3q+6r2V+NOdS6nSwgIASEgBISAEOgrAuNEwH3FW4UJASEgBISAEEgQEAGrIwgBISAEhIAQGAACIuABgK4ihYAQEAJCQAiIgNUHhIAQEAJCQAgMAAER8ABAV5FCQAgIASEgBETA6gNCQAgIASEgBAaAgAh4AKCrSCEgBISAEBACImD1ASEgBISAEBACA0BABDwA0FWkEBACQkAICAERsPqAEBACQkAICIEBICACHgDoKlIICAEhMEoI7Hv8p+7Qv/zKHf/50+755z7DvfTZz3RvftkL3OUvfE4tMPz2d6fcPY/91P3wF792j3bKfMmzOmU+51x33QUvdBOe96xayqwiVARcBTXlEQJCQAgIgVwE/uI7J92ab51wx3/xdDDtlS9+nvvklRe7P7r4RbmyiiT41X//nfvkw8fdZ7//uHvy178NZnnLhS90n37TJIeyB32JgAfdAipfCAgBITBkCPzdYz9xf/n9H7ltjzyZW7PnPuMc9yevuMD96SsudK89/7m56dMSfOXRf3J/+YMfuZ0/fCpXxoXPfVanvAvcole83I3/N4OziEXAuU2lBEJACAgBIVAUgbuP/rN7796D7me//e9FsyTpJnSI8O63vaqSZbr6mz90/8c3jrnfljzcD1bwzj98deKeHsQlAh4E6ipTCAgBITCECNz/xM/cv7/vkPvmj38RrB3Wfn/bOQD3qafD7uF/93vnu/907eTOOu2zC6Oz/cg/uQ92ynzq6XKEzwJgBW/olDmISwQ8CNRVphAQAkJgyBCA9fnB/YfcpoNPjKkZLNv/8w0T3VsuPC+xcnEd7GzI+tsTP3H/29ePnkXG/+GKCe7jnXXhItcjP/t1UubfnvxJkeTBNOM6d//z1MvcB37/gsoyqmYUAVdFTvmEgBAQAkKgi8CdB3/k3n/voTGI/PHkl7n1117qnv/MZwSRwkaphX///TEE+sxx49yD/9Pr3ete9G9y0QWBw/3c6wXL/Hv/81Xu/Gc9s1dRpfKLgEvBpcRCQAgIASEQQuCPvvodt8NsgJrdcSdvuGayu+T52e7kr//Tz92S+w+7rz35s67YD736QnfHlEszgT7R2Vk9c+e33Q9++qsoDXL7lEnuf331RVFkFRUiAi6KlNIJASEgBIRAEAF833vJ9gfHPNs9+7Udt/MLCyF2Z8dt/f57D3bTwiJ9fP6bMvP+zbEfu7fv/m4h+UUSve2i89yuWa8pkjRaGhFwNCglSAgIASEwmgjs6qzn/rv/9o/dyv9eZ633obdf4V7cIdIi17ee+oW74u6HxyQ9+q43OMhJu9b940m37GtHiogvlOYVnaAg33nnVYXSxkrUKAJes2aNW7Fihdu7d6+bNm1arDpGkTOusy4xe/Zst2PHjrPkXX755cm9gwfPzOCYaMmSJW7Dhg3uVGeDwtatW92CBQvcli1b3Pz588fI2bdvn5s+fbpbvXq1W758eRSdexGSpw/qjH8hPGy5Wdj0ol+ZvEV1mDNnjtu5c2fSVnX0RcqE7iijyGX7T5H0/UxTtN+X1SnrXSsrS+n7g8BfH3rCvXffmfHvmk6Uq3v/h9eVKvz3vviAe+yXv+nmOXTj1W5Shvsanx39x384XqqMrMRYe/71e6+JJq+IoFoJGC+SvS677LIgSTFNHYNeERCY5vDhww464vInAcNIwCQc1t9OMOomYGK9ePFit379+jLNVDptUwgYfahsfesiYE4Gy0wGfOCLEnDZtk5717ImsKU7hTJEReDLnSAY777n+12Z01/+QnfPnNcWLuOXnQhWr+9YwIc7u6N5ffuGK92rzksPzPGJh44lUa9iXQjIcaxjdffzqp2A06zGUCUHTcAof+PGjYlqs2bNGkMMVQnY1rNJFjAGz0OHDnUtMQ6SbK88Ai7aSdMG6bKDctHyQumaQMCsb1M8HJh84YLFH/LIFMG7KK5l21oEXAT9ZqVBrOe37Ph2V6kXdXYT/8M7rigcZQobsK75m2+OqdSv33ONe+Y5Y404m+A/f++xzuatR6IBcfkLnpPshO7nNRACxgtGa5ikCzLYvn171wUNEOiSnTt3bpKeg5dPZBgIQJhw9ZJArHVHqyOP4CFn0aJF7siRI123MRuDgwIGLFzWmudAhPuoBy66GGnB4P6BAwfGuKCtFQJ5SMM6Qn+4tOnWtoMSZO7atStxAVMfa7GTXKm7PwlKI1er64kTJxL8kZdlWOvNH3wt3iFsUA8rn54G6oi64zkupCWOqBf0wOXXw3pYfO+K/4xy8T/1YNlsqyIuaOsl8ftBWpvBwrf1DXmCrHua/Wjy5MljMGP/QTugr+OyhM52Zb3SiJV1ALY333zzmKUEymAZlGHbl32taL8PtTXqZvupbVvb11mu7QcWd+tV8Ps1Jxl8h0JLRP0cbIe5LGzCeltnRzK+7+X1xetf4W685CWFqo1PifBJUXfM6uyg/n/+4NWZee/phLt8284z686FCspI9L+86kL3mTdn77zutQw/f+0EbAvky2wJFGuiPkEiHe7zpfSthxABY8DmwMAX0XcjZxGwzQOdMejbAYwDOsohOXHw40CC8saPH58MtqxTFgH7pIpBtSgBIy31s+uxtOIx2BAn6IwBj1caDvY+MfAnSv7gS2LFhMBOFlh/DtKY2GB9nzqHrCI72BJH6BFak7V19mWFJhJ+PUi6Vk5RAiaWfr/MmjRlWcB+O1k5of7j9y3UhfKJr53Y2rYHnnxmcWUf4XtgJwm+LOiHtX/2e06W7CTZ6k3CtBM4kiPk+NjwvYDe6OfscyEPUh4B92Lhxx5sh10evgHGt8C83vTS57v1nc+Qrn5J9qEHX+1s4Frc+QzJup9xWMJHXpP/SdBr73rIffcnv4wC7d/Ofo27vhMspJ9X7QSc5oK2M2oOhtYKsANAEQIGaCQAa6UUdfnRqgyRCGT7bjH7t28N2r/TCHjChAljSD40e8+ygDEwcdC0A3ZsAiZ+vn62jr7FDbzY7vaZbYssAmZ/sIOrHXynTJkyxiOC8iwG/gYxq6u/7k1yANZFCBjp/foWmTRlEbBvkXMAAA5ZEzhLjLSO/cEjtKGRHiNY5mxXEnfIO+JPLFiG3+9te+URsL8/BDJJ0PaZnQRXJeCiG976OfAOY1n7fvQvbsl9h923OzuaeWEz1mevuyx1Lff+J/7FfaBD3JZEZ43vhKOc2vl+uEA4yq2Hn0zI+6e/qRaGknoiChbCUT7D27dUdzsNjIDtIEYi4YBC9xcHtrIETNA4CBRZhw4NCJBjySDNTdYkAvbdkKEJSNpadMhyLErAwCBrhzjd5WzrQRKwndjYF6wIAdtNUbEs4KyNVmUJOO8LAr9/sP5Za/91EXDahjRObrkUwXdQBFw3HfQu/887xw/ecuDIGEHP6Zx2BPcuvgnGGcA4MvDBzprv3xz/ccdifmLMAQov63y29J86YSFvmPjiwsqsePBRt7Zz5GHVCxY6LHVY7P2+BkLA1tXJdUYM3vb+qlWrkrVHDth2ds2B0rpgARytV7youPCpj7Vs01yvfLHt4OW/7P12QYc+X+IgaQdluOnsAGlde1mdifXh4GbX/qxlVNQFbS1yWy4nJ3BRQ5Y/ifHdkvwMCDLSLGC0a8gFzclCERd0iKjKEjD7iF+u/eQsbRnFYpS1Oa8oAUOeXfpIa/sQ2WdNvCDH72/4G32kqAWMPurvALdY+7qSgFeuXJl4idhHfGsd+Ww/oJ7WI2H7U78H11Es79cdcv33HSv4C53Pkqpc//vrJ7hPXlUsDjTlH+xEwoIVvLtiPGgc/vCnnQMZBnHVTsC2UhggOBCHNkbt37+/uwmLa4AcwKx72t8g4g8EfDHtRh58V5xGwGmDgXUzcwDh5hdLJHTp8Zl1nxfdhIVBA2ukvtXPgZV1xEQli4D9zTzIn2YV+VZ/aENP2oafkNVPvFFmaHJE3fjMul5BWn47ZBGwvxkqbYMW2gIb9Owate+GDg3YaX0ltAkL69v4dts+Q7m2zfJ2Qftu6CJ7CPy1Wbupj/3G33gU2mFs3c5Tp04Nfo9uPVahfQD+hClE2nw/rFfJjg+UG9obYctEP2N72zr7nrMskh/EYDsqZX6vsyaLs4A3fv8x9/Pf/q5QtS/tfO8LEvyTzr+XFAzeYQXf13Fl/5dOmZvMGnRewbB8F3XOIMa5wIO6aiXgQVVqlMv1LQ1/PTQWNnXJjaWf5AgBITBYBDZ31mfxqRDWhrOuuZ2d0n/6ype7P+iEguzl+s3vTrn/8oPH3V9+73H3cMpxiJSPNV8Q/iDczraOIuBeWryBeUMWcOxNKLScq34/2kDYpJIQEAI1IPCzzuaobY886bZ1zuw91PlECZ8rPf/cc9xLn31ush584yUvdn804UWZ3/uWVeuxXz7dKfOfHIKD/LBzYMORzpGFiC390uec66674IVu4eSX9H23c1odRMBlW1fphYAQEAJCQAhEQEAEHAFEiRACQkAICAEhUBYBEXBZxJReCAgBISAEhEAEBETAEUCUCCEgBISAEBACZREQAZdFTOmFgBAQAkJACERAQAQcAUSJEAJCQAgIASFQFoFaCRjBuXUJASEgBISAEGgTAvhsac0bL6ld5VoJ2J6MUXtNVIAQEAJCQAgIgQgIPP+Zz3A3Tip2lGIvxdVKwL0oprxCQAgIASEgBIYZARHwMLeu6iYEhIAQEAKNRUAE3NimkWJCQAgIASEwzAiIgIe5dVU3ISAEhIAQaCwCIuDGNo0UEwJCQAgIgWFGQAQ8zK2rugkBISAEhEBjERABN7ZppJgQEAJCQAgMMwIi4GFuXdVNCAgBISAEGouACLixTSPFhIAQEAJCYJgREAEPc+uqbkJACAgBIdBYBETAjW0aKSYEhIAQEALDjIAIeJhbV3UTAkJACAiBxiLQGAJesmSJ27BhQxeoxYsXu/Xr1yd/r1mzxh05cqT7dxaaobT79u1zq1atcjt27Ki9IVA+ruXLl9deFgsAdjNmzHDz5893l19+uTt06MwpVHv37nXTpk3rmy6xCjp8+LCbNWuWO3jwYCyRleSE+k6VNp4zZ45buXJlbW2RphPKvfnmm92ePXvcpEmTSvXLKvVMAxn9MlZbok47d+50dozgOLFixYrgGFKk8bPGGei/adOmyu1n39EiuvSSBn0Wbb5r1y532WWXuVOnTiXi6uyDwAflTZ48uZDqtm+NGzcuGbNCecuM/YUKbliiRhEwSQQYoUExAJOEi+KGgdt2OuTrZ+e3Hatf5drBreyLUBTXfqcbNQLutb4xyZJtHVNmTFlpZF62jKyJeVlZee9Hv8aCLD2aSsB52JV93k+Dq6xufvrGErAl0q1btyYzeJKxtfJCMye/o1lSQuNMnz49wWH27Nldqxhp8A8z6zvuuMN997vf7ZZnZ2h4MSdOnOgmTJjQlQNZtDT54sJip0WPCQFm/74etMqZh7P31atXdy2VPIs2hI0/E0WdN2/enOgDXTCTJwZWd+uF2LJlS2JR+/Ittr7XgnqnyTl69KhjHX3rxe+YaYQEfRYsWJAktzLQRriINWf8aM9Q+4SwDr1MeRYw8Jg5c2a3XsTNlg+d0I6wgMePH5/oyAvpp0yZctY9YB/CMe2Fz7KAiYHtVyG8bF+DXmgv249t/lA7oM2gMy6UaduCz3wvlJWDfHyffcKCvrDkqLdtU2KShYFtI7yruPx34Pjx411PgbWkUa7t92ljCC1zWw/q5nup8O6ntTswCb0rWfjafkGscM++v9APVibHJdtXs959pLdjJctif8EzjG8cd9LeUbSPff/pkeG4eODAge67TQxxL2/sZ5+DnhgTrCeV47JtmyZ5BWsh4Iu2PeB+9KvfuAuec647Oe+NaWPGmPuhGaJtGDYC0i1cuDBxBaW91NZt4Q+gdvZMMsVgh07LDmkHf+aHSwfp0JCYCFh3iS0jywLOImB0TLzoduJh68GX0ndt2zoAUDuIcgDkgOFPVmw9ffnEKY2AURYwwYtn2yFLDoiTOmS5nSA7RMB+e7Mv7N+/P+lLFpsQLtCVg4CPdVonLULA6AvoE3T9sRwum7BN/Rff1tGvbxqOZQjYd98Bc+iQhpe/zJOGVVo7cHLB94jub7w3uCwxhOph+1oaAWd5CuwAbwkaeuAC+aMMTEDx229bW75P5paAQ2MIJuRZy1ysD8rmWGIx8N/F0LuC9Hin0/ClvDwC9vtq3jtLF7bVF/UhgdrxBWnwjBMtvqN2vOA4tWjRouSd9b12tl38PhEa+1EG8GOZfrumjQWFiKnmRNEJ+L17f+D++vCTXbX/ePJL3Rem/35uNYoSsG8RQrDfQWxntuDbmSsVohXlDw584TBYTZ06NbEgly1bNmZd0urCGWJVArYEwg65ffv2LrGkrYX4uIVc0GkumSxrlgMYrQJ6H5gHzzngWOLxreI8OWnr06GB1reWIBtWGdoH1kzI+rQdD+RvMeVAkLV2VYSA7dou8V+7dm13XR7lWKztbJyTJL++aTim4RWy/nxPEPsKvTc+Xv4atS8zzVJhO8ydO3fM+5GW31/rs1Yt38eqBGzfI7a9xSE0uebAXYSAIdNazvjbjiFpnh22p8Wc/YIeCvaFtEkvJjh2X0SaxZ9FwGl91VqNae+sfZfSvIy+Fcu+Aa+htWSt7v6YZf+2WKSN/X5f8d9Z+76xDmlrzrlEFTlBYwk4zQVddI2THYSbEfDSZ60N+ATMDrJ79+5kZmU3s4CM0qzsmATsd+a0mai/dh5yQfuzc/8lT1ujyhoMrCuV1l1ZOWUJ2L7E/ruAslF3WKBp611FSYGyYxMwJjS0wLIs4LJrhmUImBZpHl5ZBBxqB38SUQRra0nFsID7QcBZli4nif4Az3rC08Vn1hr3LWCLL/tynQRsxxD2ff/dL0rAob7hy0ojYL/P+AQcmiwXIeA6N0D2wsnRCRjKXPVfH3b/8ONf9OSC5noFyM5fx8B6Tt4uYzTkxo0bE/cGZ7gk9dDsxydgDryoD/LTzcGGtB0Fv0nUWQRsXXLWbZI2UMGKosslrZHtAJZm0YVIJDThYB1sWda6ta5UEAnWqUIu8ZCcrLXkUN1CFjA9GKGJCGVYCxT3/E18RUjB14euW04W7N+2n6a5oKk3JinWowBM0J/oxvetmxCOaf0gRMBcGyMGIbd/Fl5pWJ04cSKxArM8T9DTzx9yQdvB0+prJ7gkNS4bpO2OT7MIY1rAdLNnWVChyRPvARdOwOw7YftCrxYw2pQ7tm3/zOqrRd5Z2/f8iRNd5ml9w74bkIO+wD0F7IO477dtkbE/j4D996AXwoydtxYCrqKk73LzN3zYWZV1WYU2B6B8koXv8vHdmHweGhzQMbhOYdfDWD+7kYVEbwcBDrz+Wizyw1XFdYuirr5QXf2X1XfToH7++lQaBr6rxn6+wE01aZuJUCc/PXHC/SwCDhED248yiCHbgfdBatxgRlxDm/VsfqTjxMF6VNLWpX1dfNet3dhi13ntJhWk4WSK9+lB4Oc5xN+u8dE9SXz9gYw4+LjYwY2fpVGufddCG9kgk5uw0rAKtUOWhZbmfbLYAg/75QPfL26sKULAdvMU35c0Akbd2Bb+5Mjq5W/CCr0/kMXNgXbzGdsnbaIR6gu9ErDVD9jhwjvhbxi0fTX07mdZwJBp2wd4cW9MqG9g8mr7HfuXXQPG8pBtP79NbJn4zfZNW75Ev2cdQ3tjqvBU7DyNIeDYFRsGef6GrzT3u90U0q964yXDuo51Z4bcWHn6ZG2qycsb83lVPdJc3TF1s7LyBsW6yu1Vbpp12qtc5RcCbUZABNzg1vNn2tYrYNUuu14Yo8q+VZjmicgrC7rnudnzZMR4XlWPfhPwICZbMfBtq94x6i4ZQiANARGw+oYQEAJCQAgIgQEgIAIeAOgqUggIASEgBISACFh9QAgIASEgBITAABAQAQ8AdBUpBISAEBACQqAxBGw3EtkgHE3ZPZmnh7+NP7RhygY+sF2v6GYr5gE++EaYnxbgO+UYm1xYh6w4zf3Yhevv9g4FN+iHHnnDg/1WNS9t2vO8flVVblZ/9Pub/9mM/cwP5ReJnet/euJ//le1Hnn58kKa5uVPe+6H26wqR/mEQBYCjSRgG+igrgGqbLfIIzh/N6z90JxlQQa/o2VQBxtkgOlsXOqQniQoEHooMEjZuln98o6Mq5v4eHCEDaDBAAL2OD0/iEFWhKyqePj5qn6qlFV+L/07K29Wf/Tb0J8Y2m/ibRCRrGMtrS52Ah0L+yJyikbJKyILafq9w72oXko3PAg0joD9YOX2xbazevvZi71vg/2jmezs3n6MbU9dwcDOD8BDM/esEJbsCv7L6gdMwKCHyFG8GAjCRsfiMxuizlorsKoRb5fHLdrZf9aMPa3eKA8xYCHX/wAeg23o5Bk7ePuxtUMBR/wTpxBogXFni4TWZL0w0bAhAKkHvj1mAATUh+1apM7E2z8ZKRR4I3RyDfKD+PEZFQ+mwD2LkbUMQ16RIv07FNvX9lmU6WOZ1R9DkygbPSkUJY0HNdiob3YYzIow5geGwOSK7QoZDDbCOvj4s01tf6OXhqSLfsWAI3zm908bKIbBUz7+8Y+7v/qrv+qeVexP7ELR3oZn+FdNBo1AowiYx0lZ6ycvvBwA9GOzpoXlSztJg/GD06IMkTyzwl+GZst2IEuL5xqatVtLq8ysPi3UX5ETRHzrzk4MbAhIO0D5Ie8YCcd6C2zADusV8ENo2omMPW3KtqXFIssCtt/02omJDf+J8mx0szSrLStes48F49RyOQURyBClyx5k4Z+klde/OREiefjkjnqE+mVWfwwRsF0CSgvL6h8lmEbAfvhSyPZPx2FIRxtD3B5Px1CK0JXhOkN1sn3Cf1fsBNVOHGxIRtTB5rM4FJl4D3oAV/ntRqBRBMxZvZ3N2wHKX7viy4sXza5bkjCsNeuHaKTV4AexCJFYETdhHgFbUrJp8wiY4duy4h+zC4ZkFa23T8A+DpRtz+f0Bz8MmriyTosJEYl9hfw62Ghgfl+g29knlKJ1zrLarFcl7cSiNDIkdv66KOrpe1iK9u82ELB/hi69AdZDgXv05Ni4vyQ7TFD8eMA+njYOcxoB++Rp+7f/rto2sP2+jiWHdtOFtI+NQKMIGO5EuHxsYHD/5eDL579EoY06dm0rzZKsi4CtFeBPHNCInDCEiDtkoYTWlP3OkEbARU4QqULAlqSs2y/ttJiQK9U/LMHWwXdFor6hI9tCBFykzmkEjElGkROLfHc86g1XNCcGRSZuRfp3Gm5l1oD9/uivmRd1QacNQFYXP1B/kZOTihCwnWgyZnQMAmbfR5tbj4UIODbdSJ6PQOMImIfe88SjtNmp3ajFSqUF5cZgjGehU5SKErB/WLkPpE+kGBh4kIP/zL7YqB9ObbKbn0J1K+IOC1nvKLtIvf3BBvqDUNAeaYO3teqJB0kz78SptM1clghCBBOyxH1ZReucRcDWuk47sShE/NCPG+Os+7QIcdn2s33Ad/Vj/ZJHYkJuERe07Y++3n4f9K1ATHrydkKnbcJKO8GK/STkgrZ1t/shbB+jlZxGwH4/hH58h9Nc2bbtUFaRd06UIgR6QaCRBIwKcf3GP5Sebi4MCpix4ng3/xSSIqe9pJ2kESIx/0Xk+igGaa5b+Z990NWYtrboE41131k3ZWgjVKjBswYLKyOt3j4Bp22EsYN3Wp19iz904lQaAdsJkcXITrKAuX/AN+vob8JDvrQ6Z7mg6cbOOrEIsv1DxtGOdrnAP+XLn5hYHazLmv0ba8D+JiaUy41M1C+0CcuepGT7lN8+fhxv219QltW56CYsawX7rniQLk9OAs48aYuT0LTNU3ZpgfWxBMxy6I2x9bSbMUMEbPcDsK8V8WD0MvgqrxBoDAE3vSmstceX3n4GNGj9+z1Y+LuuY1kLoc+QBo2tyo+PQNPcu6EJoT5Dit/ukjgWARFwwR5BgoPlhXXqqVOnjlkvKiimtmQhd3Bthf2rYN8CzjqkvIwuaev1ZWQobbMRaBoB+94WBeJodv8ZFu1EwMPSkqqHEBACQkAItAoBEXCrmkvKCgEhIASEwLAgIAIelpZUPYSAEBACQqBVCIiAW9VcUlYICAEhIASGBQER8LC0pOohBISAEBACrUJABNyq5pKyQkAICAEhMCwIiICHpSVVDyEgBISAEGgVAo0g4Lxwc1URDUVS8mXZaDlFDjyoqoufL1bgCspl9KK0g9BteUWDdoTaJa/+NoqSPf4tLSqTlWe/K8490P3rX3fuDW8Yq86DDzp39dV5KlZ73olIlVz79lXLHyuXX+/rrjuj07Jlp0tZu3Zsacxz6lQsLU7LseUBn3vvPSP/ox89W49OWFO3f7/rfEg/Vo/bb3du6dJwXuR517ucu/HGcJ141+IQt5aVpfmhRSmo7HthI4DlhQT1v69OO3Usr1JVznROG9P8yGooGxhgHEJcBYS7HdWrEQQM8O3RYfi7KEnYhquSxx5d189OEJOAi0SPqkLAZfGwLzvKQ5hQxvZmfOQ0mUi/vzM4I65xWvzgMXlBKjfccGYw5yCeR8KdF97ddVc5okZZH/7w6bLK5i0LYlZ6Eun27WcICcTXOfawE69yLCHGKrdz0lhntAxLA5YkU+gBEiVRIp9PwkiPfzYd282Wgbzr1jl3yy3OffnLp3/7Ex+//VF+56zsJE/a5dclq2494mePMO3lvYAcXHiPisQW9+PM24NteqlSKESvL6/ImGbTNC0YSy/4VM3bGAL2D0WwYeBsXGIb0xUzQ8L7w2sAACAASURBVB7wjvivPOidMywrw8aXtbGBmQf5cRqTje3rHxsYOkw+L64uJxP+oe/siIh/iwhStl4hXSHH1pd1DMXNtTNOHgKfRsA2Tq9vdYby+PWwHS/rjN88AvY7cNrBBN10/gB8epQ6TUawADHQHzt2Ovm8eacJyr/XIfsxVjQHfV8ZWHqQe//9zl1zzdhBHoM4LxJj6J4tm5MEa/mRrFCHbdtOS7REi7+hR2dSk9SFl7Vu+Zz5WW+ktWSDdJ/61GkJliRt2chLOX46/O0To0/AeA6iJUGjrtCdF630EHEiLepO0rVEb+ttJ2DWGrf4s37+Pdbf1i2EC+rxpS+dxuLii09PwDAZwwWLH/d8i77zyI4dsd6L0IllvkVsT3bCyVz+IS+Ez44LOAEKB9b44xDfwdB4YseN0BhzpqHH/rLnjOOJPW40Lc8w36+FgC/a9oD70a9+4y54zrnu5Lw3FsLPujtDJ/OwI9mZpT3hBYX4FrBPoJRhXR82TehUHRKHPQ7QvlDWcg+Fg/StU3a4EydOJOfm2uMV8cJgpmvlWF3TdEg72OD0uDsucfekEXDWzNbPw4MGstxTfFmtO98PWZnn6i/k+g4RMAZukKQlKIBgrd40Czgkjz2XeR55ZKw1ZgmfadPu0Y1Kaxrk4uuSpQPkQ7Y/AbD16wyk7otfPEMIIB2SPQmYhEKMQICf+YxzqJslTNYnzUokoVoitZbt6c53xnomQV966VjPRag9QtatL9tPAzm33nq2BWx1yLKAs3CBZU0cOeHhZC3F8vbHghjvhT3RKW1QtcZKVmhYOy6kjUP+JJjvbdaYlnYUKfQNWbyhE+wKEcaQJIpOwO/d+wP314ef7MLzx5Nf6r4w/fcLwcUGtyQbOhOWFqwfMziNgFF42iHxZQg4dCi630lDp93Yk46gCyzNCR2LynZWkujChQtLH2jvE7B/Ak8WAaP+mJjYmTIbK8ttnRWvmVY5Z8ZZp8+gLKY7M+aPG3MCT7Dz5BGwtWYggAOoP+DbtcuQNWMJswiZhwjFWr+sDFyutDit+5Vu2tBacxEChnySok1P8vFxQXqQCa1Tf/04jYD99WbfAvYJOM1dXYSAQ/X218LTLHnoQXyzCDgNF/QJ6wL3+13KunvaqWoYh6q8F0XXZEly8NbxpDZ2ubxxAensWJJGwP7pVmljmv/ehjwBVZYNC5FJSxI1ioA5G8Ixg7Q8s9YJyhBw2sysVwK2GyR8IkEfSOtg/nqJJeCyB9r7B8Nb11OeBQwd+XIXcUHz7Nm8AxPsGcJlTpUpsnEuebeyXNCdSUziWubAm2YBW1dnmvUZGpg52KeRrb9OnLfu7K+XwhqD1RVyQVuC9XHwySCNgH0Z+DttA1dVArYuaH+TFcqjezxE3L4nI42ArQuaA67v+i5qAafV33e190DAULHqe+HvkUnjFzte2nOVbbmn50Zne8bKEDDS+udQ560Bh+ogAs7zB1aYSVz1Xx92//DjX5RyQbPxQby48g6oR5qiBIyzR7HGGnLJ+OvEJC//wHA7GyThLeu8tJg07NixIxWltI0TtBJ9F/SUKVNSdQ3pgHNhfQImgdvNTHmbsEJu7LIWMLAkFtaNXJSA0Z7QvdCuSH8gJGnB0sXFwZmWUsgCtgM9fn/602ev5/nkaQdkkAdcwtZqLHrP9pjQRqMQIdg6cre3LQ958lzQafVMu59FwHY92idS4Pbud5/Gxn9m287X+TQ7jJ18hEg6bcJksSReRSzgtPr3QMD23e7lvbBEmjccWwJOe//9+2Vd0FljWprxkOY+lwu6BgLO6yRZz+06J9P5G41oafoEbN3VqJZv3S5YsKBbNK09nxy4XgnChny7BhxyQVsLGMJDnwmEDmXHGrDd/GAPRS97oH1o7Zqf/XBzV4hM53asLB7oDt39CUpZAg5tCINcfw04zVMQctWDjIMDUOgzJOvKtRuKuHkGpEWL1t+YhTS47IYa35pi7+HaKv62n0LBYsUap38PO4PtJiB+MuNv1oI8WL68QruPSSpMYzdakbRDG6wskVpsIIeTE+uOp1ym9Xc0hzZh2c+QuEaa9gkUCBppgI3vZfA3w4UmAVnr5WnLCn5d0v4mtsDFX/cvaAGnbQCF6LTPkELvhT922DEm9F74HkNLfPY99McFbga145Cd8FMP6pg2pqURcJpnK8+T1guXtCFvdBd0GyodS0d/M0LWZqhYZUqOEKiEQB2f3IR2J1dSLiNT2mdIscuJLM/uY4ksOqq4PLdx1MI8YfoMqTMv78zGIn+dX2eTNU+2bwELzua10UhrRIvZWsqxAElbN40lH3LSAnHELKMmWUW+na2p6MJiB0nACsQhAi7cUZVQCAgBISAEhEBMBGQBx0RTsoSAEBACQkAIFERABFwQKCUTAkJACAgBIRATARFwTDQlSwgIASEgBIRAQQREwAWBUjIhIASEgBAQAjEREAHHRFOyhIAQEAJCQAgUREAEXBAoJRMCQkAICAEhEBMBEXBMNCVLCAgBISAEhEBBBETABYFSMiEgBISAEBACMREQAcdEU7KEgBAQAkJACBREQARcECglEwJCQAgIASEQEwERcEw0JUsICAEhIASEQEEERMAFgVIyISAEhIAQEAIxERABx0RTsoSAEBACQkAIFERABFwQKCUTAkJACAgBIRATARFwTDQlSwgIASEgBIRAQQREwAWBUjIhIASEgBAQAjEREAHHRFOyhIAQEAJCQAgUREAEXBAoJRMCQkAICAEhEBMBEXBMNCVLCAgBISAEhEBBBETABYFSMiEgBISAEBACMREQAcdEU7KEgBAQAkJACBREoBIB79+/3z355JMFi1AyISAEhIAQEALDhcDEiRPdlVde2VOlKhHwyZMn3S9/+cueClZmISAEhIAQEAJtReAFL3iBe9nLXtaT+pUIuKcSlVkICAEhIASEgBBwImB1AiEgBISAEBACA0BABDwA0FWkEBACQkAICIFGEfDhw4fdrFmz3MGDB9UyQkAICAEhIASGGoHKBLxv3z43ffp0t2XLFjd//ny3detWt2nTJrdjx44xgOH+ggULknuHDh1ykydP7j5fs2ZN8nv58uWZIM+ZM8etXLnSTZs2LUmXVtZQt5QqJwSEgBAQAkOFQGUCXrJkiZsxY0aXdNNIEeR58803JySNC6S7YsUKd9lll7lFixYlv3EtXrzYLVu2rGsBX3755Qlhr1692u3evdvt3LkzSQfCBxnjGfKsX79+qBpElRECQkAICIHRQKAyAYMg4SrG/7t27XIHDhzokjGt49mzZycECbLFderUqW56WMK0gKdOnepWrVqVpIULGpY0/qY1TQsY3x/jwvdXIWt7NJpMtRQCQkAICIFhQKASAZNgCQCs1DxSpMUM6xWE7RMwrGTczyPgI0eOjLG8h6ERVAchIASEgBAYPQQqETDJFG5lkDGsVRAo13pByFzXpSuZFrDvgsZ9WMCWgGlZWxc0iBsWMAgYrmpY1XJBj16HVY2FgBAQAsOCQCUCHpbKqx7tQ2DcuHHtU1oan4UAlqN0CYFRR0AEPOo9oEX1B/lq4G5Rg6WoqnZsfxuqBnEQEAHHwVFS+oCABu4+gNyHItSOfQBZRbQCARFwK5pJSgIBDdzD0Q/UjsPRjqpF7wiIgHvHUBL6hIAG7j4BXXMxaseaAZb41iAgAm5NU0lRDdzD0QfUjsPRjqpF7wiIgHvHUBL6hIAG7j4BXXMxaseaAZb41iAgAm5NU0lRDdz19AF8179w4cJurHUcioJ7flz3WKWrHWMhKTltR0AE3PYWHCH9Yw7cIJhYccTLyELgmuPHj3djo8dqPpDm9u3bcw82YXmh9GXq0YveMduxFz2UVwgMGgER8KBbQOUXRiBt4PZP3EJcckRlQyxyXDzIY+/evV0rz4/QFpLBQz9wAMiUKVOSMKmhQ0AYHATR2RDFDbHLYT0i6tvcuXOTOOnQB88RwxxR3xjlDVHgEOENkeNIgMgPnSnP6mpPFGO51M8nYPscONj6QA+UgWhykyZNSv7NmzcvwQtlrF27NpmgWBkTJkxITkADrr1YxyLgwl1eCYccARHwkDfwMFUvbeAm4cGqA3HglC6QBY6vJJn5pEGyA/Hi4uEeVgbug3ghE+FPSUosj9hSFgiXB4tYArbuXFjAJFx7yIhPwMiPfDwhLET8JGaeJGYJmCFfoSPqDtL368P0nCiwfkiHskHKPK2MMmIcgiICHqa3UnXpBQERcC/oKW9fEahCwCCX0HnTRQiYJE4iJGH5rlqfgDdv3pxYjyQ2n4Dpgk6Ta+XBgg65lq0r25eDRuFkwJ6hnVafLALGhIIyIBflgsxh6Ve9RMBVkVO+YUNABDxsLTrE9SnjgibZ0Eq07lx72AfgQnjLkAs6j4B5JKfvggYhbtiwIWkJWK4gUJ6BDQvSEjCI2tfRJ2Ae50kr3i/XWsA4lezo0aPJpIN64bn1ClA+nuPgFFwkeugJPGwaPIcMXKiXXNBD/JKpan1FQATcV7hVWC8IVLGcYLHBggPBklB70WEQeVkHWqo4yrPNV5V2bHN9pbsQSENABKy+0RoEqgzcvjXZNvKyu5X7tUu57g5RpR3r1knyhcAgEBABDwJ1lVkJgSoDN927vbpNKykcKZN1Jcf6dCqSapXEVGnHSgUpkxBoOAIi4IY3kNQ7g4AG7uHoDWrH4WhH1aJ3BETAvWMoCX1CQAN3n4CuuRi1Y80AS3xrEBABt6appKgG7uHoA2rH4WhH1aJ3BETAvWMoCX1CQAN3n4CuuRi1Y80AS3xrEBABt6appKgG7uHoA2rH4WhH1aJ3BETAvWMoCX1CgLuB+1ScihECQ4kAAq3oagYCIuBmtIO0KICALKcCICmJEMhAQO9Qs7qHCLhZ7SFtNHioDwiB2hAQAdcGbSXBIuBKsCnTIBDQ4DEI1FXmMCGgd6hZrSkCblZ7SBtZwOoDQqA2BETAtUFbSbAIuBJsyjQIBDR4DAJ1lTlMCOgdalZrioCb1R7SpqIFPOw7pLVzVa9GDAREwDFQjCdDBBwPS0mqGYGswWPYB5ay9Rv2CQm6WmhSMqr1Lvrqle1HReUqXTUERMDVcFOuASAgAi7+/eawD7Rp9RvVehd9HYcdn6I4NCWdCLgpLSE9chEQAYuA2UlEwLmvSzCBCLgabnXlEgHXhazkRkdABCwCFgGPC7rei75sIuCiSPUnnQi4PzirlAgIxCLgOXPmuB07drglS5a4hQsXumnTphXWDnnWr18/Jv2+ffvc9OnTk3uXXXaZO3jwYPL78OHDyd9cq0xLV6TwsgNn2fRFdGhSGlnA1Vpj2PtFNVQGl0sEPDjsVXJJBGIS8MyZM93EiRPd/PnzHQl5zZo1bu7cuW7t2rVu165d7tChQ8m/EydOdAl28eLFCQFffvnlybPVq1e7qVOnuv3797vly5e7rVu3uqNHjya/Ie/IkSNuxowZSTnIQ3LGM5ZfBIayA2deepS/YsWKpOgtW7Yk+mVdxGby5MlF1D0rDScjfMBJSdVJSkwCZvtDN/vbViI08eIka/v27UlbLliwIMkye/bsZIKHC/1h06ZNY/4OpSsKal675snpNX+efD0vh4AIuBxeSj1ABGIRMIgQ/zhIhgh42bJl7sCBA0lt9+zZ4/A3yAcDMQiVgygsXAywJGCk52Dt/28Hd1jDNk8erGUHzrz0IFRMHMaPH+9AIHYSYfXesGGDw6Rj0qRJbuPGjcmkY+/eve748eOJyiBupAc+s2bNSp5zkmJ3JOM+JjaYvKDumzdvTn5XnaTUTcBoq507dyZkevPNN3fbGxMHO/nChI0ETDzs5Apy0G/Yf+wkrIoHJq9dY/ejPHl63hsCIuDe8FPuPiIQi4AxKGJQpaVKwrEWMIkCRBMiYA62+N+SKS1gEBrd0kgDAgJBNdUCnjBhQndCQEIlYUJ/EjZ+Y+IAi88nYKbnRIMEDC8BPQt03/c6SYlJwHaiAMJduXJlFwvWmxMGtK+dfMFT4hMwrHrcIznb/y2mkGX7UZFXSQRcBKX2pBEBt6etRl7TmATMNWBYsyBYWHokSmupgYBBTiRT3wXNAdtfAyaJwfohQae5KYs0bNmBNy89iQXr3yBMECNIA67zNAIGkeCixQxsrAXs54cHga5tkJJvAWP9veokJSYB+y7oPAK2pEmytRMSWsCY4NHNz70BsoCL9PbRSSMCHp22bn1NYxFwG4HII1S/Tnnp7RowLFQQL12rJAu6YemCtgSM9LQcMQkJETjk4EJ+uGD5N+7BldvLJKVOAsbkzLqgOVmDtQsPBnGy9Q5Nriyxc8ID7wFJmZO5Mv0xr13zZPWaP0++npdDQARcDi+lHiACIuB2fYYEyx8WdtoGpl66UkwC7kWPfuftlUB7zd/v+g57eSLgSC384x//2P3whz90r3vd69zjjz/uvvWtbyWSX/nKVyYuzO9973vdjStwuz3rWc9KNrM8/fTT7uUvf7nydbDKw+Wee+5xH/zgB4N4PvvZz+7p+8hI3aA2MWUHzrLpYysO8rUuav/TrV7LEwFXQ3DQ/aKa1sObSwQcqW2xFgQC5poWSBjX85//fPe85z3P/fznP3c/+9nPknsgXFxME7qnfKcbxmL11re+1X3ta18L4jnsA0vZ+pVNH+k16Iqxnx3RxR2zDBFwNTQH3S+qaT28uUTAkdoWZAoCvvrqqyNJlBgfAbmg2+WCrrMHi4CroSsCroZbXblEwHUhK7nRERABi4DZqUTA1V4vEXA13OrKJQKOhCxczOeee26ytqurHgREwCJgEbBiQdczugxGqgg4Eu5Y83riiSfcm9/85kgSJUYu6DMIlLVcyqZvW2+TBVytxYa9X1RDZXC5RMCRsBcBRwIyQ4wsYFnAsoBlAdc/0vSvhFwCvuqqq9xDDz3UP41aWtIll1ziXvayl7kHHnigpTXon9rnn3++e+SRRxz+L3OJgEXAImARcJkxo+lpcwn40ksvdX/3d3+XBGPXJQRiIFC1T4mARcAiYBFwjDGoKTJEwE1piRHSQwRcvrHLrt2VTV9eo8Hm0BpwNfyHvV9UQ2VwuUTAg8N+ZEsWAZdv+rIDZ9n05TUabA4RcDX8h71fVENlcLkqETADleOINR7QbQOr2+rwJBjc4yHl+N9eCFRu7/HkFKThOZo2vT30nPd5AgnCPiL+bNbll8fA9PYgbRtIHZ0WF89Bxek5OEWHx9n5ZfHEE1/PcXe/M0l608SZ7s6ju5Pfp97xFTd+5/vdidmfc//j/f/RLf/9G9xb9q1Mnv3JJX/o/vLKJYPrHTWVLAIuD2zZgbNs+vIaDTaHCLga/sPeL6qhMrhclQgYjUjyBdngwlmnONKNB1jjSC8e3s0TQPCMh1yDuJEeYepwOgjIDWe0Ig8P7yYB4xQVntCCeyGyxz1cPOQbJ7fgODQeNQf51AOnkPBQ9S1btnSJlPFrIQfkynM8OTkIEbd/zqk949OSOMj1nRe92X3gkj9wt313qzvxq39O9L3mRa9w/+G7m8cQ8PwHPpX8/YZ7PurW/dv3uxkvee3gekgNJddFwDWo2iiROEGo6DXsA60IuGhPGJtu2PtFNVQGl6sSAUNdEO973vMe99znPnfMGaIgQhApLpDf9ddf744cOZL8gzWLM0H5P473wj/cs2eDbtu2zSHwPq5XvepV7iMf+Ujym6QfImB0LMac5cHqIGBaqbiHi1b47t27u5OBmTNnJvdheSPPpk2bkmeQxzz4P0TAvjVP0rXnnyKvT8Cf/N42d9FzXpQQrW8Bk4BpEYuAT78ggx487rrrrqQ/l929/YlPfMKdd9557pZbbunbm06vTd8K7HNBaZORYa83YC4zEfObZdDvUJ+7SeOLq0TA7OQgynnz5iXWKSxgEGsWAYOUYPnif1wgORAtBjXKwn3cw9+48Axl2I5HAsb/IE9aqkiDczlpfVvrFuSJSQCsbp5vCsvb/kZ+kDwPEod8OzGAPB4wTkL2LWAevQZL2LrDP/voV92fPPQXST3ggj533DOS3+Of82L3fz/2Nff1nxzuEjJd1VefN9k9eP2nGt+JyipYhwVcVocq6UGkN910U6UvAnrJW0XXOvM89dRTbunSpe7zn/98ncU0Wvb73ve+VtZfBNysblWJgAddBbuuDF18K7Rf+vkWcZr7uV/6tKWcUSRgtg3Iq6wF3bR2FQE79853vtN95StfaVrT5OojAs6FqK8JWknAfUVIhUVHoK0EDCB6JVAsbzz66KPutttui46rBPYPAXgA1q1b178CI5UkAo4EZCQxIuBIQEpMcQTaTMDFa5me8vbbb0+sYO6ViCFTMoRAEQREwEVQ6l8aEXD/sFZJ/4pAWwkYVg8s17a7kHvtiHJBu2Q/SRujA4qAe+39cfOLgOPiKWkFEGgzAWNHfqyBF4P4nXfe2Tp3tAhYa8AFXnMlKYCACLgASEoSF4G2EjBcxzfccEM0Agaq2PF/9913t2o9EQSMtex+flYVtwf2Lk2bsHrHUBI6n1Z2vinL/Lq/6mApcIVAGgJV+9Swus/a6s4c5R6Ob8IxGWvbNazvUNvagfqKgNvaci3Wu60EXDdR4lvhtuyOxhGlV155ZYt74WiqLgJuVrvXSsBfP/n1pLZXX3R1t9a333+7m3HJDLfm3jVu69ytmWh8+TtfTp7f+Oobu+kY6CImjIwFjUAbfizpXsvDN8uh2NR4ERDABJHAcDGmth/AI1RPpJkyZUo3D9PwPiKLISRn1gW9cOXFzY6JM2W1lYCxCSvmGrCPLdzRIGEc/9nkS2vALnHBt3EXuwi4WW9WJQKev32+2/btbW7NH65xf/7//blbN2edm/vFue66i69zS69dmvye99rT0auQ7sFFD7o3bHxDcu+aCde4+4/f79712ne5Yz85lpDx5m9udgv/7UJ3w9bTLp2jS4+6iesmumM/Pea2v3u7W3ffOnfvsXvdqdtOjQkHaYkzFPMZBIfIVvCy8wAJetwt0THiFcqePn26AxFDHiJ2IdIWo2sh2hcjY9nY1MgHQkNeRNZCGrycjI9tQ2iCGCEXZe7YsSP5H9G5GAv71ltvda9//evdqlWrkkhhyIs0+G0jcTEICONXI0IX6gS9Uf7x48cTkt6+fXsSKQy64Dp48GASRpRxullOL+HtynZpEXA6YiBh7LJusnUpAtYmrLLvvNKHEahEwMt2dWI6z1rraKGCSJfuXJqUALIlkYKYcd137D73qftOh1RcN3tdkhbp9jzaOVXIEDD+xvWb3/3GTX7R5OT34R8fdsv/2+nTk5D36T1PdyNfkYTw/9SpUxMCtPGbef/EiRPdcJZ+OEnCAoIG2eKypzbxlCWSGciYv20ELl8XyBk/fnw3rKUPPwkbxBu6cHAED5RAPGvqxbR+FC7cBwEvWLCgG07TEjDCa+I655xzEr1wFcElqFyPN9tKwCBHEGM/PkNquou36fr12EVzs2sTVi5ESlAAgUoEPO1z0xKLFBYwiPLS8y9NLFySJAj24hde7O6af1dyH1YsrGLcu/XaWxPSBUnTckY+EjJ+4znlIe/SHUu71vCh/+tQkIB5uEKIgCGTJy2B8OB2tS5YWscgZ7qW7CEOlnQhCzGkGWcaJAn3MckPJz4hFjUulGNPjrJWKyYLdEHjf5+ILQGDVH2Lm7J4gAQtYJAurF3UA2XgYnxr/MZzyMJlT6AiLgX6TM9J2krAPVe8hIC2uKNLVGmokvYaEW1QYMgFPSjkw+VWIuBBViFk+fVTH7qMeeyiPZyhDj1AsJYwQeppa8B1lF+HzLYScNXTkKpiCBKGpdm0z330GVLVFh18PhHw4NvAatA6Am4WfNKmCgJtJeC6N2FVwXIQebQG7JxOQxpEzxu+MkXAw9emja+RCLhcE4HwsObYlN3RImBtwirXg5U6DQERsPpG3xFoKwEDqEGt/cEVjU+U2ngEXt87WB8K1GlIfQB5BIoQAY9AIzetim0m4EFiOSjyH2SdVXZcBLQGHBfPXqWJgHtFUPlLI9BWAm7KaUiDtr7kgtZpSKVfemUIIiACVsfoOwIi4N4ghzsaJDyoNWERsNaAe+vByk0EaiNghKFEYI3jPz2eRLlCtCsE78i6GODDpsFnPzj+DUEv4D7BlfbNKiM8IaqTDQFpo0WllZ8WmpH3N2/enBve0X6Tqy6WjkBbCRinIeF78n4E4sjrPyBhvBeD0EWfIYmA8/qnnhdDoBIBIxQliBVhJRHhygbLQLhIBupA5CqkQ+jJfe/f50iw+H/CCyckEbE+eu1H3bUXX9sN1MHgHQhb+aELP5TUAkEpbHQqG5/Z/gYBI9QiQ1TiO8oPfOAD7sMf/rC74IILkjCNDPsIQsVvBO5gRCsb3AIhHHEfBIy0M2bMSOJE42KYRwS88ENdMowlZDMEZbGmGJ1UbSXgJrZQv79NbiIGg9BJpyENAvXhK7MSAZNIGa8ZZAlCBRkjOta555ybRLOCBbz9H7cnqPkEjHuwiCHL/82wlVteuWVM2Ecb7tGGgWSzMGgFiPfkyZNJXoRg5P82uhXyMMIVD0IIBfkIhYy0cZYRAhMhHX/3u991y0HkKlyW3Iev61SvUVsJuO7TkKogCp3wTSp2R/fTGh71UJRV2qoJebQJqwmtcEaHngiYhzLAiiVpWmuYFjAs3C99+0tJqTicgYRNAqY1jFCVDE+J35vftDnJQwuYLug0q5URo+CCRlqfiC0Bb9y4sWu9Eg5LwDZsJJ7j0IKPfexj7vrrr0+Sw7qFlQwCxsVQlwxn6R+e0KxmH6w2bSXgpmzC8lsPJAxC7Nf5tFoD1mlIgx1Bhqf0SgTcz+rXFXqSZM7DGQZ5PF8/8WxCWW0jYH7+QwIGhv20Nou2GfTsh24iYK0BF+2TSpeNQOMJWA04fAi0jYAZghKWJjwgCIjxlre8pesNaUoLgRgZIpEThJhuc/sdXAWInAAAIABJREFUMl3QMeU3Bccieug0pCIoKU0eAiLgPIT0PDoCbSNgkAxI9/Of/3zi6r377rvdbbfdFh2XGAJ96zTmN8MWB+jq/x1D/6bL4MSDk5G2rYVrDbhZPUwE3Kz2GAlt2kbAaBRYlvjsB/sK+r3hqZdOAb3XrVsXzWUOeTfddFMyEXn00UeT3zgjeVSut771rd3vr0Meh6bjIAJuVguJgJvVHiOhTRsJGIPtVVddlWy2a6r163ceuEkxabjiiisSvWNcPBiCxyS2BYsYdYcM1PvOO+9MYoID2yYuRWTVVQQcqyfEkSMCjoOjpJRAoI0EjOrB+oW118QNWISfnyVBRxDEpk2bkt3RcJ/HuiATLvlvfOMbjcYiVn1DExsQMfYDxMS1Ln2tXBFwP1AuXoYIuDhWShkJgbYScKTq900MgkU8/PDDidUW+xQlTEb4SV7fKtSQgmD9sg+3zf0uAm5IJ/pXNWohYD+k5Je/82V346tvHFNzpsG3xFvnbs1EJS1E5fr165N8WZ8q8ZmNmJVWWJqcsp9C2bLK5m1W96hHGxFwPbjy07p6pDdDKr7xb8LV1t3fIuAm9J4zOlQiYBtSEqIQhAPBOBhQ47qLr+uGqUQwjk/f92k38byJbu5r5ibhJ/NCVCL91IunuuXXLXdv2PiGRFuEuBz3iXEOsr9w/ReSCFfz58/vEjBeiGXLljlEtfIJcPfu3W7Hjh1dogYpIgrWypUrHcJJIp8fxGP27NlJHlxbt25NolxZ2Yi6FQrEgQEC8hGgY/r06YlchMfUdQaBWAQswhnbq4Z9cM2rn/pD/iiTh2G+BKWIiUAUAg6FlMQBDCBPG/WKMaJBoiDr/cf2u6NLj54VIxphLHF4Ay4/WhbuffbKz7pXvOQVbtq0aUmaOXPmJJtMSMgWIJDxrl27ujGiGVOaYShBorjsfYaSZCxnS8BWNogWF6NhjR8/PpkYIOKWlRkKmxmzEdsmKyYBN8UiqqMNyg6WZdPH0hnvR+jdiyWfcvLql/c8tj79lhejfjFk9Lvew1xeJQImkcLqxWELCC+J37hgDZNgGXYShzYgJjQPbyApg6Q//P9+uHsf+WAlk4B5SAPkPrjowa41fOg9h4IW8MKFCxNS9kNKzp07N7GKZ86c6VasWOFg3YKwYdXSioW1iguka61h3LMEbGXjPg54gCucs2+GqATBg8hlAZ/9+rSdgJtCOD6yvQyuiATHkK+Qi0ktPUChAZBx1xcvXpz0f/9v5qE3yE6Ws+RmDbZ59ct7XtdA3tT+EKrvoDCqC/u2y61EwLbSofXZfoDSz7XVfpbVD+wGXUYTCLhXwuEhHf6BG5jocSmkCJH1QjixCBhkiwvEaA8fgUeHk1F7yhfSwvPApR68H5jkrl27NiFjkjefp8knKRftj3nkkfc8q5xe+0MTJiBFcOwFoyLylaYcAj0TcLnilFoIuO4OUnwmU+byB4+qg0mvhENisQQD8uLfOBYTewtARpbQYhNODAKmfrRkgQ0OEoEnB6d84aLelnCxrJJGwLAIsQwDLxBc00jHY0BJ6naPRdE+kNfeec/Tyum1PzRlAlIEx6oYFZGtNOUREAGXx0w5ekRgkBZwDMLxCdgnHEtigApWZB2EE4OAKYN14H4Fnq1tDy3hcov9sgCWH5Z2aAHjb0xGONBzwyPXiCm3ShfKI4+856EyY/QHn4AHNQEpgmkVjIrIVZpqCIiAq+GmXD0gMEgCjkE42A1PVyt/c2ADOXMvAsqqk3BiEnAPzXlWVpAw3dEx5eaRR97zLF2GYQJSBOteMCoiX2nKISACLoeXUkdAoAkEHKEaXRGDIpymEnBMbK2sPPLIe16XXr7cpvSHUH2bglG/2qLp5YiAm95CQ6jfsBFwXU1UdrAsm74uveuSm1e/vOd16dUvuTHqF0NGv+o7CuWIgEehlRtWRxFwsQYpO1iWTV9Mi+akyqtf3vPm1KSaJjHqF0NGNe2VK+iR6HxOkBnbLWuw9D9BKhKC8vb7b0++811z75rcEJQIYYnLhrEMhXnkRpG9e/d2d2z6ritshEFADlxYt8OFdZ8JEyYE8zB/WhCOtO7EDRkoAxs8cJXd/TrsXVUEXKyFyw6WZdMX06I5qfLql/e8OTWppkmM+sWQUU175YpGwIjf7Aff2P7u7e6+Y/c5Bs9AYI77j9/vjv7kqFs3Z52b+8W53XCVuP+u177LHfvJsW7QDQTluGHrDYmOiI41cd1Ed+ynxxzkLt2xtHvfD7LBCFb2swgkJlFjPQa/+ZkIP4dAII5bb73Vvf71r3erVq3qfnqBtPgMA9892lCXkG8J236CgfIQ4AN5cCHABz5DwaccaZOCUe6OIuBirV92sCybvpgWzUmVV7+8582pSTVNYtQvhoxq2itXNAK2saC/+O0vJkTJ6FaMjHXxCy92t157a9faBWHzHuJBI7LVnkf3jCFg/I3rN7/7jZv8otNWKsh67f61ye+/uPYv3Iv/+cVnESNJOS1ghv0WMwQCIgDhMwo/jCTThuSSjI8fP55882hDWZ5zzjkO3zvykgU8FnURcLHBqOxgWTZ9MS2akyqvfnnPm1OTaprEqF8MGdW0V65oBJwVitIeyLD02qWJ9QoiBunaUJOwdmkZQzESMn7DRc1DGGABw3pmmq/+1VcTssNFYqQL2kYl4jOSL13Q+B9Wqb0sAYfCR1pZyEdCZWdmoAGUzxjTjCAkC/jsbicCLjYYlR0sy6YvpkVzUuXVL+95c2pSTZMY9Ysho5r2yhWNgAcJZZ1hIRlODvUjcZZdAx4kNm0pWwRcrKXKDpZl01stGDwE93gISZaWRY73LFbL4qny6pf3vHhJzUwZo34xZDQTnXZqpV3Q7Wy3VmvdRAJm/GL8jyAb3KiXBzSPpazjxKuyg2XZ9D4BY58El1Y2b96cxLTGhQNLUD96mjA55b4JHjZC/OBxwrIMLhz3CTLH3ghsduSBJ1WigkFeXv3ynue1pf8cWODCXhD726bLav/Yk5QY9YshoyyOSp+OgAhYvaPvCDSVgEG6iGKF9XtGcrJhJ7GBDxc+HMCAzGMrufRBgrIb+HoBt+xgWTa9T8DYfIgLpIn6WwLGfRy76Z9qxMMnuNHREjDyYEMiZAFXEnDVZZm8+uU9L9sWIQK2Ewk7EUEs7RkzZnT7hD2somy5aelj1C+GjFj1kZzOpLKXz5AEoBCogkATCRgDkz1azydgWng8Xg8WICxGWkDAATvhcVW18Hwsyw6WZdP7BMz6oO44KAMbE3HxzGxLwGkHMVgC5id+SAtyAhkX9SyE+lVe/fKel+2rdpKFvJhYbdq0qXtMI70l9BAg7CgmL0zL2NllyxUBx0Ks+XJEwM1vo6HQ8KGHHnL33HOPe/jhh91dd93lvvGNbySDfJnLH2BjDrgYTHGogD3BB67o0MELIJYQAVuCKlOvWANuL3jYNWBuUqTFCgsfZGw3FsJFDXz43Tu+IKBHgJ/j+QRsn/MTvzI45dUv73mZspA2ZAFnEbB/hrJc0GURH730IuDRa/O+1NgnXJDtU0895Y4cOeI+//nPO3yHXfaqm4BhAWIQxdol1ziho3Un2s/P0lzQtKTL1s9PX5ZQyqbvVb8y+eEpwAULuCox5dUv73kZfdMI2HdBwyWPcvkFBPsEJjGcpJQtN9aELCQnNkax6jaqckTAo9ryNdV76dKliZsOhIt/73jHO9yVV16ZlPbOd77T3XbbbZXIF/nrJOCa4OhJbNnBsmz6npQrmdlGiGsLAZesYu3JY7RvDBm1V3SECohKwAgdibCRXz/59W6oSQTtQHQsXPgmGEE78M3v1RddHYTZD2eZ1xb8JhnfC9uQlcwHeYiytfmbm93aWacDeqRdobJDoS9D+e0ZqXDNZV1pnzalfWLF+/6OS6y3+UE+uG6VZYXV9WkVrN73ve99iYVL0gUOuN8r+YqA896E/F3C+RLqS2HXU9uyCas+NKpJjkGeMWRU0165QghUImCS3rrZ69yn7/t0IpfBNhiSEvdAeJaAGaoSISgRMYvPGbyD8kjSJE3IwPWp+z7lkAZ58ZvRt0isDF956rZTDjpCLv4hmta+9+9LdPHLRMhMEDQDf2BygN+Q/aELP5SUS5IDEeLiWp+d1eP37t27kw0aNjIX0sLdig0aPKgcMrBZA+EqcR08eDD538aO9mXb4CMoB3l41ix+w3WKC2XZnae4h89CcM+G2YSrjDs38QwbSbDOZ3Xirt5t27a5efPm5YbVvP32292jjz7q1q1b1+1rscgXAmUBZw9iwz645tUv73k2es1/GqN+MWQ0H6n2aFiJgEmIjPuM6pJ4QXAkQpKltYAnnjfRXTPhmgQhkiF/439arAhLaUnaT0+Z6+5b5+49dm9SPq5Lz780CXHJvCDihNw8Ag6Vb4kez7e8csuYnZsgMLhVQ9984hkOewAZ+gQMWYi2xShZ2LCCcJUgNVy0CNIOb/DjX7N7UR52rcI65necIFfsxMVaJi4Q8EUXXeROnjzZ/aaRpEsZJGDohovpGWaTEcWygjTAyr3pppvcDTecjukdk3whTwTMlg//zwlTdqp2P806O2bYySVG/WLIaHcPapb2lQh43CfGJXGdcWgCfuOC5YjwkvNeNy8hWLiDcWgDLFDfBQ2rkzGjacVa6xYWKUh0+z9uT8gV6S1hwqLFfZRpXctWF2s9o/wvfftLiQzEpLaWMy10hrtk6EvUb/ObNid5fAuYO2WtK5cWK4gYu2nxSYolQYa75E5SEJn97Z+eZGUz1CWIGnI2btyY6IW1Vli8IH0QJH5j8xA3gvhl8IAI7FIlAcNC525XpCcBc4JAK9nu/kzrwvbzotjkGyJg3mvWKxVXm5zDyuIWNgTShn0S0mt/EAE3q5OXJmCs79o4zaF117qrSAsbxJy3rturLnWGvvR162dZebjYNbsiLz3Xf/F5UR3km0bAefXQcyEgBM4gIAJuVm8oTcDNUl/aNAUBrv/CBR1jw1WoXho8mtLa0qOtCOgdalbLiYCb1R6t1Qaki53PcFX38qlRFgAaPFrbPaR4QxDQO9SQhvhXNUTAzWqP1mqD9V8E2sAO6CpBNopUXINHEZSURgikI6B3qFm9oxABY1fr+eef3yzNpU1jEADxwgVdNcJV0YoM+wabojgonRDoBYEiezp6ka+8xRHIJWDE7/37v//74hKVciQRuOKKK7qfH40iAJiEIAjJV77ylVGsvuosBIRABQRyCbiCTGURAiOJACar119//UjWXZUWAkKgPAIi4PKYKYcQEAJCQAgIgZ4RGEoCRlhGbATCkWeMXgWkEByDh6XzO1ecYoILp/T4MZwpB88RVYohI3tGPUcAQkxiN7Ef57nuciW/NwQYGKU3KcotBITAqCAwUgSMCFKMyQxyBaEuWrQok4AZ1QobFxDukdGrECFq2bJlSexkHsKNZ/jNo8gQmpLRqPA/D2rnwd2QsXDhwmSywHQ2khVjMENBHnfG8JL9mgyMyosQo548iCKGLMkQAkJg+BEYKQKGlQtSpKUC8uSh8LSAEY0KljIID4ce7Ny5Mzm0gIezz5gxI7GssSOXByrwYATIxRmgSLNnz57kf1y4j/wozxIsnoGsebg7PxGgBTx+/Pgu4YO8QdSQm3fa0vB322bWUATczHaRVkKgqQgMJQHbQxPoRsahAiBZEC4Jln+jcbJc0IitTKu2CAGjDMjzCRgWMlzglkQRw9kSMEkdpI1DFKA34jUjjQi4qa+R9BICQkAIlEdgKAnYuopBejyhCKQItzFdxThFiBYwSBkX14jxm+Q9YcKEhPxAijy4ABYyj+/zLeAsAoYrm9+zQg/I9AkYem3YsMHZXbWygMt3buUQAkJACDQZgaEk4CYDLt2GFwG5oIe3bVUzIVAHAiLgOlCVzJFEQAQ8ks2uSguBygiIgCtDp4xCYCwCCMd5yy23CBYhIASEQCEERMCFYFIiISAEhIAQEAJxERABx8VT0kYYgYceeig5klGXEBACQqAIAiLgIigpjRAogIDWgAuApCRCQAh0ERABqzMIgUgIiIAjASkxQmBEEBABj0hDq5r1I6DTkOrHWCUIgWFCIBoBP/744+6JJ54YJmxUFyEgBISAEBACpRB43eteVzh9NAJG9KlHHnmkcMFKKASGDYHHHnvMXXjhhcNWLdVHCAiBEgi87W1vK5w6GgEXLlEJhcCQIqA14CFtWFVLCNSEgAi4JmAldvQQEAGPXpurxkKgFwREwL2gp7xCQAgIASEgBCoi0BoCxjm9uJYvX16xqsomBISAEBACQqA5CEQlYB6zh+rhuD6Qpb2Hs24nT57crT2O+8OB9zhqb8eOHWNQwaH0u3btGpPeh82epctnPMx+2rRpzUFZmowEAnJBj0Qzq5JCIBoC0QkYJIuLZ+7y/yVLliRn6s6fPz95zjN7cT4uL5I1zuRduXKlo6y9e/e6/fv3J8lwOD3P5N22bZubN29etzycq7tgwYLkb5/soyEmQUIgBQERsLqGEBACZRCohYBh5dISJVmSFEHEsHpJqitWrHCLFy92M2bMcHv27HHr169P9KcFjMPp8ezo0aPJ/SNHjiR/g8itBQzyBpnLAi7T/EobEwGdhhQTTckSAsOPQC0EDNh8C/jAgQNjCNZCC/KE1ZtGwJMmTeomzyJgWL2zZs1ymzZtcnJBD3/nVQ2FgBAQAm1GIDoBEwwQKqxUuwYMq5fECOuV1jEsYFi+vgsaa8CwgC0B+y7oz33uc8n6MfKCgJF+w4YNckG3uVe2VHedhtTShpPaQmBACEQl4AHVQcUKgUYgoDXgRjSDlBACrUFABNyappKiTUdABNz0FpJ+QqBZCIiAm9Ue0qbFCOg0pPKNZ5eoyudWjiYhYL9oaZJeTdZFBNzk1pFuQmDIEeDXC0NezaGvntqxWhOLgKvhplxC4CwEsPse37rrKo6ABu7iWDU5pdqxWuuIgKvhplxC4CwEtAZcvlNo4C6PWRNzqB2rtYoIuBpuyiUERMAR+oAG7gggNkCE2rFaI4iAq+GmXEJACERAQAN3BBAbIELtWK0RRMDVcFMuISAEIiCggTsCiA0QoXas1ggi4Gq4KZcQkAs6Qh/QwH0GRMSxP3jwYARU+y9C7VgNcxFwNdyUSwiIgCP0gVgDNw554UEuvapVRhZOddu+fXtfzynH2ehz585Nwu7GqnOvmMVqx171aFt+EXDbWkz6NhYBnYZUvmlCA7eNE4/48bgQNx4HvOCwFcR6x8V48/jNs8XxGzHhT5w40Y01Txn4RAzPeFY5LE787Z9HzvuQheASkI1481u3bnUTJkzo6sOyoBPkIKb9smXLusRIIsf/1JnycCIcLhsfn+nT9PLryJPlqIc9a718S/SWQwRcDT8RcDXclEsICIEICIQGbhIeiRVngx8/fjw53IVkBjK27lqSF8gbZ4fv3r07IU0rA/eXL1/eJVSWY8tDesoC4eLC992WgHHuOGXDAqYlCjmwSPk35VA+LFccJoP8IGCf+P30Vi9bjm8Bs86o26AuEXA15EXA1XBTLiFwFgI6Dal8pyhLwCCfENEUIWBL4iBKa6FaV65PwDwmlRawT8B0Qfvy/L+ZnxMBH620/EgnAi7ft9qQQwTchlaSjq1AQIE4yjdTURc0ydO6YenOJZnSrZvmgs4jYG6C8l3QIP0VK1YklYPLGHIWLFiQ/I2yfAL2dbSEDhc2XeG04lluGgHzuVzQ5ftX03OIgJveQtKvNQiIgMs3VVnXJdytOFMc/5NQy5c62BysAy1inpE+WK16K71sO/ZW2vDkFgEPT1uqJgNGQKchlW+AsgO3b022kbxYB67lDnLzVPkWC+co246xym27HBFw21tQ+guBFiNQduCmG9bfhNUmCNJ2ObepDr6uZduxzXWNqbsIOCaakjXSCOg0pPLNr4G7PGZNzKF2rNYqIuBquCmXEDgLAa0Bl+8UGrjLY9bEHGrHaq0iAq6Gm3IJARFwhD6ggTsCiA0QoXas1ggi4Gq4KZcQEAIRENDAHQHEBohQO1ZrBBFwNdyUSwgIgQgIYODWJQR8BPCN9yhcIuBRaGXVsS8IaA24PMyynMpjNuw5RqlPiICHvTerfn1DQARcHupRGmzLozOaOUapT4iAR7OPq9Y1IKDTkMqDOkqDbXl0RjPHKPUJEfBo9nHVWgg0AoFRGmwbAXgLlBilPiECbkGHlIrtQECnIZVvpzoHW23wKt8edeYourGqzj5RZ/2qyBYBV0FNeYRAAAGtAZfvFnUOtnXKLl/T0c5Rpi3KpG07qiLgtreg9G8MAiLg8k1R52Bbp+zyNR3tHGXaokzatqMqAm57C0r/xiCg05DKN0Wdg22dssvXdLRzlGmLMmnbjqoIuO0tKP2FQIsRqHOwrVN2iyEfiOpl2qJM2oFUJmKhIuCIYErUaCNQ52lIOMLu4MGDQwdwnYNtnbKHriFqrlCZtiiTtma1axcvAq4dYhUwKgi0ZQ348OHDbvv27W758uUDb5o6B9s6ZQ8cuJYpUKYtyqRtGQxnqSsCbnsLSv/GIBCDgDH47N27102bNi2pF//evHmzW79+vbOHue/cuTNJg8871qxZ41asWJH8vWXLFjdlyhSHQ+tDf8+ePdsh7+LFix3IeObMmV0yxoH39u+6wa1zsK1Tdt24DJv8Mm1RJm3bcRIBt70Fpf9QILBkyRK3YcOGhExxhf4GAYMgd+zYkfyPv2HJTp061e3fv9/NnTvXTZ48OXmG/5ctW9b9m2lh9foWMMn70KFDSXr/7zoBrnOwrVN2nZgMo+wybVEmbduxEgG3vQWl/1AggEGH1iwtX/s3CBkkyv9JxFu3bnUTJkyIQsCrV69OLGESMP+uE+A6B9s6ZdeJSWzZmHCh32DiNqirTFuUSTuo+sQqVwQcC0nJGXkE+uGCziLgPBe0XffFIAeC3b17d99c0KFIYXUOtnXKRmfHRAVeB+BK7OHW50QJHg1cXFLApInLBvA22HxYNpg/f37Ud4h9JarQisLKtEWZtBXVaUw2EXBjmkKKtB2BGARcFQOSAVzITb3wnfQdd9zh3vGOd7ibb745UbPOwbZO2T4BYxkA6/YgvYULFzqs2WMJ4MSJE+748eNJXY8ePdpdaw9ZpXYdn+v6GzdudCBrkDgu4Ia/6Z3gngD/749//OMO/3Ah/dq1a8fsIeBEwe4pqNNCLtMWZdI2ta8X1UsEXBQppRMCOQjgNCQSC5Kef/75SY6nnnqqm9O/VyRNSJafD8T2nve8J1nD7Ud5vdQPn2s9/PDD7rbbbnOXXnppd907dgereyC3FjAJeN++fQnh7tmzJ1nTxwXyxBo90+Ae0uGe3YnOZQU+QzrkwcX8zIO06GsLFixInmPD3apVq5LftKStBYzfM2bM6D7H35gg0DXNsmO3AeWVaYsyaevSt19yRcD9QlrljAQCIL9PfOITSV2vuOKKZJCE6/XOO+9M7t10003uyiuvdCQhECmIqNd8DzzwgHv729/u/uzP/qwv5fVSv0suucQ9+uijSZ2BQ9Eg/WU7UN0DeYiAfQuYm+LQD/Is4BABw8WNi5vtQO4gWJ9QkQb7AcoSMC3jut3VZdqiTNqyfaJp6UXATWsR6SMEhhQBEO5dd93l7r777mTSgYlInYNtnbK5nut/AhZaA+b6bt4aMAiaa8mUm0XA/mdpcCFzMx/KpDzIIsHS5Wz1tJv76up6ZdqiTNq69O2XXBFwv5BWOUJgxBGAZ+C8885zt9xySxeJOgfbOmWPeFOWrn6ZtiiTtrQiDcsgAm5Yg0gdITBKCNQ52NYpe5TaKEZdy7RFmbQxdBukDBHwINFX2UJgxBGoc7CtU/aIN1vp6pdpizJpSyvSsAwi4IY1iNQRAqOEQJ2DbZ2yR6mNYtS1TFuUSRtDt0HKEAEPEn2VLQRGHIE6B9s6ZY94s5Wufpm2KJO2tCINyyACbliDSB0hMEoI1DnY1il7lNooRl3LtEWZtDF0G6QMEfAg0VfZQmDEEahzsK1T9og3W+nql2mLMmlLK9KwDCLghjWI1BECo4RAnYNtnbJHqY1i1LVMW5RJG0O3QcoQAQ8SfZUtBEYcgToH2zplj3izla5+mbYok7a0Ig3LIAJuWINIHSEwSgjUOdhCtq5mIFAm3GidfaIZaJzRQgTctBaRPkJghBAYpcF2hJq1p6qOUp8QAffUVZRZCAiBXhAYpcG2F5xGKe8o9QkR8Cj1bNVVCDQMgVEabBsGfWPVGaU+IQJubDeUYkJg+BEYpcF2+FszTg1HqU+IgOP0GUkRAkKgAgKjNNhWgGcks4xSnxABj2QXV6WFQDMQ0E7lZrRD07Qos2u6abqX0UcEXAYtpRUCQkAICAEhEAkBEXAkICVGCAgBISAEhEAZBETAZdBSWiEgBISAEBACkRAQAUcCUmKEgBAQAkJACJRBQARcBi2lFQJCQAgIASEQCQERcCQgJUYICAEhIASEQBkERMBl0FJaISAEhIAQEAKREBABRwJSYoSAEBACQkAIlEFABFwGLaUVAkJACAgBIRAJARFwJCAlRggIASEgBIRAGQREwGXQUlohIASEgBAQApEQEAFHAlJihIAQEAJCQAiUQUAEXAYtpRUCQkAICAEhEAkBEXAkICVGCAgBISAEhEAZBETAZdBSWiEgBISAEBACkRAQAUcCUmKEgBAQAkJACJRBQARcBi2lFQJCQAgIASEQCYHaCfiTDx+PpKrECAEhIASEgBDoDwLnnfsM95HXXFRrYSLgWuGVcCEgBISAEGgjAkNBwG0EXjoLASEgBISAEKgbgdot4LorIPlCQAgIASEgBNqIgAi4ja0mnYWAEBACQqD1CIiAW9+EqoAQEAJCQAi0EQERcBtbTToLASEgBIRAYQTWrFnjVqxY4Q4dOuQmT56c5Nu3b58bP368O3HihJs2bdoYWVu3bnUX1lPOAAAFFklEQVSbNm1y69evd5dddplbvHhx8jv2JQKOjajkCQEhIASEQKMQIAHfc8897vrrr09027t3b0LABw4ccCtXrkzImQS9ZMkSN2nSJLd8+fKEqHH5JB2jgo0gYIKzevXqpML2Onz4cDIDsTOXyy+/PPl7y5Ytbv78+WfhAHm+nBBYkHPw4MHUmQ9nSnlAs7y0cjGbmjJlypiZFu5B9zlz5ribb745WA+Wyw5w/PjxRE5IL9thfH2h15EjR8bM4IBraOZHbE+dOpVX7e7zcePGJb+RJ1Qf6O93XrYr2nzq1Km5nRsypk+fnrQ5ZqY7d+7s9gkfd+gwc+bMQn2AlSB+0AU4T5gwIXk5iTVkoq/4/aUwSD0mzGpfiEYbYJaOa8OGDQlOe/bsSX6jXfA89H71qFZm9iLvRej9LaIT+in+7dixo5scGLH+drwoIg9pQjJt3lA/TpNdJi3eBZAA+rWtj182+r+tF8cQtn+/27cork1IZ8cIvAvgFOBNAsZv+34D2wULFiTvTlE+qVLPRhEwZiSbN29OZh5wF+BCh0PntC+qfbFBLJyp8AXE3xMnTkwARKdEGgxEkE8isKS4f//+pDwMWkePHk3KnTt3btJI27Ztc/PmzXOzZ89OiBIyoROeUR4nELi3a9eu5BmJAo26atWqZIbFZ3iOexjkcaF8XNAB+u7evXsMKZN8iAfy46JuHGxRb+rNmR7rP2PGjIS8gSUuTgjwUuMi4ZKAWUc8Qz2RDgM82wZlok6oB3HGpIdEQfyRB2XjYrqNGzcm+Yg10vI50mNAsgSLZ3kETPygF+tHnKA/2o664jmeoW1ITNABfQz9AnqhDexgCJ1mzZqVvLTAgm2IOvnykhv/ihvK5cwaee644w73mc98pisH/QqTBfZ3/A1cUQZ+cwIADKGf3z4ckKE3LuiOduA7gokD64G2qcONxvr6/1Mn9HNgjzZlvwGOmOjQ8mBfRj+0+djvINu+w+gPkMl3ku8n2xBlQj7KAb58L+y7Qsxt3we+xN9OaNCHKI99k/0LMtEPmJ7jDydA7H9oK9aP/Qb32H/wjP3c5uEYiHSoF/uGP3Hvd/umtbvuF0egMQRMi5WzOmuJcVBkGj7jS4GXzs5S8NsOqHgRMIBiIGI6yMSLtmjRojFprXUFsgJR4UWzRI4XAoMx8trBjuXi5bIWCEmBLw9JibItuds6EQvfAkbZdlCHbiQxYAFSsYMCBm9adDYvLGC8xNaS8Ad4f6aIrsVBjpMi1BsXsPAHT9bdz8eBhlgQG05cQDwgCx8DTKBAKhgE7QTItjfLCs102VeQnmUSP5AXccTvN7/5ze7kyZNB4rMDvt/fkBcDPvAFSXBmjbqwTDtBQpn+5Ih9DnWxExZMDKw81IfeBDtBAjYkPU6moHOahVV8yCiXkl4mkAMJFETGPkTLg5NTTvb8fmffYWhg25YkzUkK+gf6Dvo6MODF95L9w7d4+TfGBVpGtlzbt/Ec8i1hs6+zbiiHE128ZxwvfARpAXM8wsQgRNrA6mMf+1jiQmWfte0/iPYt1xuU2kegEQRcd7P4A3bd5cWQn+YijiG76TI4CYBV9MY3vjHocm96HaRfXAQG9Q7HKtcu0xRFxrqYi+ZRunYhMBIE3K4mkbZCQAgIASEwCgiIgEehlVVHISAEhIAQaBwCIuDGNYkUEgJCQAgIgVFAQAQ8Cq2sOgoBISAEhEDjEBABN65JpJAQEAJCQAiMAgL/P518oeJdNaZdAAAAAElFTkSuQmCC;" vertex="1" parent="1">
          <mxGeometry y="560" width="373.33" height="280" as="geometry" />
        </mxCell>
        <mxCell id="BaFMhR3DntHVQc-vTrnS-3" value="" style="shape=image;verticalLabelPosition=bottom;labelBackgroundColor=default;verticalAlign=top;aspect=fixed;imageAspect=0;image=data:image/png,iVBORw0KGgoAAAANSUhEUgAAAeAAAAFoCAYAAACPNyggAAAgAElEQVR4Xu29CfhUxZn2XSgobriARpEgWzIxJpKJuBHAhQygSUaMOAK+kyBjEPjyZdAQcMEliGbgI2Kc9wNkiJKMskTyAXlHB8jAIBCIBDOAJiaRTUSIcWGRuMXI13fp09a/OGudOt2nu+9zXVz8u7vWX9Wpu546Vc9pdrB0KV4kQAIkQAIkQAIVJdCMAlxR3syMBEiABEiABDQBCjA7AgmQAAmQAAlUgQAFuArQmSUJkAAJkAAJUIDZB0iABEiABEigCgQowFWAzixJgARIgARIgALMPkACJEACJEACVSBAAa4CdGZJAiRAAiRAAhRg9gESIAESIAESqAIBCnAVoDNLEiABEiABEqAAsw+QAAmQAAmQQBUIUICrAJ1ZkgAJkEAjEVj98n615Y231c4/v6uObXG4anNkc3X+ycepLq1a5oLhvfcPqhV/3K9eevMd9UIpz9ZHlPJs2UJ94ZRWqt0xR+SSp0uiFGAXaoxDAiRAAiQQS+D/fW63mvTsLrXzzXcDw37upGPU+M99XH3p4yfGppUkwNt/fV+N37hT/fAPL6tX33kvMMpFp7ZS953bQSHval8U4Gq3APMnARIggToj8N9/3Kf+7Q9/UvO2vRpbs6MOP0xd/8lT1Dc+eao664SjYsOHBVjwwmvq357/k1ry0t7YNE496ohSfqeoYZ/8mGp7dPUsYgpwbFMxAAmQAAmQQFICi3a8rr62arM68N5fk0bR4dqVhHBR7085WaYTn3lJ3fE/L6r3Ur7cD1bwkr87Uy9PV+OiAFeDOvMkARIggTok8MtXDqjha7eoZ/a8GVg7PPt9r/QC3L3vBi8PX3b6CWr6hZ1Kz2mPTExn/vbX1A2lPPe+m07wJQNYwdNKeVbjogBXgzrzJAESIIE6IwDr84Y1W9Ssza80qRks23vPaa8uOvV4beXi2lzakLVs1z516693HCLGt3dtp+4qPRdOcm078I7Oc9nufUmCB4ZpVvr2we6d1T994hTnNFwjUoBdyTEeCZAACZBAmcCPNv9JDf3FliZEru10spp6YUd1bPPDA0lho9TgJ//QRECbN2umnv7K2eozJx4dSxcCjuXnrBcs899/9W/VCUc0z5pUqvgU4FS4GJgESIAESCCIwJf+6zm12NgA1be0nDztgk7qjGOjl5N//dqf1chfblW/evVAOdlvnnmq+sF5HSNB7yrtrL50yW/U8/vf9tIg95/XQf3fZ57mJa2kiVCAk5JiOBIgARIggUACON97xvynm/y2vO9ZpWXnVomI/ai0bD30F5vLYWGRvjzw3Mi4j7+4R/398t8lSj9JoN6nHa+W9vl0kqDewlCAvaFkQiRAAiTQmASWlp7nXvbz35Yrf3rpWe+Gv++qTioJaZLr2b1vqq6LNjYJuuPqcxTSCbum/Ha3Gv2r7UmSTxTmkyWnIM9d+beJwvoKVDUB3rp1q+rcubMaMWKEmjp16iH16dKli/5u8+aPZkUSaOTIkWratGnqYOmh/9y5c9WgQYPUnDlz1MCBA5ukE/WbL4Bh6UgZt2zZojp1yneHXVReq1evVj179gzkY5Zdwk2cOFGNGTMmbzyFTn/SpElq7NixuozoY0Vo40IDY+EansCjW15RX1v90Vh9QcnL1S8u/0wqLqf/ZL3641t/KcfZctXnVYeI5WscO7pn085UeUQFxrPnd752gbf0kiSUuwCL0KIwq1atUj169NDlogAnaZ4PwpgMJZY54chbgEWQzPYzS4/JEiYa9lWrYt6sdCOGTQzNOvqaZMXdC8l7SvaQqDsuTI7Nya9M0PBblnbt16+fWrJkSeTEJk0tpA2C7gs7HbMOdvuaky708507d+qJvV1Xu/wyyZe8wu6RNHWqxbA/LTnB+IcVfygXvefHWqkV/c5KXJW3Sh6szi5ZwFtLu6Pl+k3/z6lPHR/umOO7G17UXq98XXDI8WLJ6q7klbsAo2PPmDFD16lPnz5lazdu0ImygE1A9W4By6BhDhgyWIgI+xCCKAs4ToClPZKGq2QHT5uX9MskIuODO8oXdy+krUOW8BBgiC8mVKaYoK5Lly7V3yeZnISVwacA2/c+0sakIWjVDOWRPi71M1c3ZLxB/eS+Aou+ffuqxYsXl6tjTs6Cxh6kE5Z/lnYpelz4er5o8W/KxTyxtJt40xVdE3uZwgasCx5/pkk13/nHC1Tzwz6YEAZdD/7+j6XNW9u8oelyXEu9E7qSV+4CjA45bNgwtX379vKysTnooINjRozL7OxyQ+B7sa7khjEHvnXr1jVZgjZnsnKjyQ2FNPEPN5Q96MkAg9+lPOYAJJaBNE7QICSDC8JI3rIEbc6+8buUSW5ipIdldXsGHTbIm4ODhDFZSjpBwmrWRephh5P0hwwZovnKZQ9IZme1BTgsb+Q5ePBgvTQOoZPlXpOpbfWLINq8kH+YWNptJv3HHqilrngUgnaTy7YC8X1UG9srAWFtbz+WCBNg27oSPnafkHDS5nYZRRBEPNDPwkRUwkBszQkzvpe2krjS3lIfW1xNHogrY4DwtdtUvpd62Pek/TjAnJyOHj1at11U/zT7I/qc3INh38dxTmokVHJAr1Ze2ITVu7QjGed75frJxZ9UV53ROlGRcJQIR4rK40xpB/UTXzwzMu6KkrvL3ks+eu6cKKOIQP/Xp05VD5wfvfM6ax52/FwFWDo2bihc5rNIc4ANepYrNy/itm3btsnz4jABPu+885qEkwEhqQBjYAoKi/xQXgi3DDr2YGDPhmXwl8kDBgdJ2xy4ZAIRNnCE3eTm98JDBjTzN1sE8ZsMrObz4Xbt2pUFESsWKLfUMallGxTOLIspFNIfROTsuDLg43m0GU+WBm0xstsD7WU+ezctlzABNidmQaIe1cbIy8zTnOwhP1ymJWXeiGECbKYXxE7KaNZHRMsWXUwuzD4Zti9BOHXo0EFPjMx7E33C3LcRJcBSXnuyYYu0OUbg8ZS5v8Pu10GDn7kEHbdqYfb3WbNmldtE7m+ZbAYJM/qhybZIqxa+RcE1PZwBxllguc5tc6yaWjqG9PnW0S89+K/SBq4RpWNI5vIzXpbwz5+OPxJ01sIN6nf73nItcpN4y/p+Wl1cchZSyStXAY4aDOwObH+2hSdIcHBzmxYwwMFakxm0PWDGWcAQYHM2L8tZSQTYHDhQjqBJgt2w5rOmoE1kCJ9GgKXsZt67du0qC+uAAQOaWHhSHgxc3bt31+HkMgdOWxzNQS9oady04k3hmD17tl7GBFd7YmB+tssiZQIjaeOgyYwtKqYliHhSVlcBjmpj5G0/j5RJlfl90KauKAE2LXLUwbRypX+ak5Wg5/FSDntJNagdRYBlhQKcRaxkhSCJBWyu+Jh92xZgc8XKvD/Q/yZPnqxXhcI2Mtq80Y+ljwfdT6YA79ixQ08wZFKBuO3btz9kQ6c5ZpiTOArwoTK1+k9vqJFrt6rflHY0y4XNWD/8QufQZ7m/fOUN9U8l4TZFtE/bkjvK7qXzwwncUc7d+qoW7/1/cXNDKeWEFyy4ozz8wz0QlRLhXAXYXgKUSmEQqiUBtpcCg27uJAIctEEjbqd22DOzoCXopAIcZCmYy3kY9EyLPIsFjDYPWvpMIsBJdrbbVpj0Mft7HxZwmjY2B26UKWwzovmbvSxspmEvM4c9urDzNQeSoGea9kBjcrKfi9orTHFL0Ehb+q85+TE3YYW1nz2JtSdXQY+Q0G/lCrrXTAGWupiPiuzHWWYZ0BfNyb3066DHFJUavIuYz7+WXj84at32JkVrWXrbEZZ3cSYY7wDGKwOfLj3zfXznnpLF/EqTFyicXDq2NL3kFrJ/+5MSV2/s0y+oyaVXHrpesNBhqcNir/SVmwDbAwYqZoqN3AD4vlJL0KblIzd+2HM1M6y5bBvWQEmWoIOeu8UJsDnQynEtEQLzWRkGn6RL0KiDvVHEFET8bj4jC2rLIA5hQm1aKvaz6agl6KBleZtXEgGWVYCgZWtJT/KK2oQV1cYyeJuPTCRN9CVzedueWIRZU6aY2m0uAoD/TREI2zMg4aOekUoY28KVe9Qup9kv5DGRhEW7YCUDy8rmErw9iYna/BdVl6D6xK002EfyZHIgTILuRdOSt8XW3gyJMklbV3ogL0p+75TEdXjJCv5x6ViSy3Xb2e3U+L9N5gda0t9c8oQFK3i5oz9ovPzhG6UXMlTjyk2A4yw3czlLZq6mQInoyW9hg0zUJizZNGI/0wFo3HQQIXkeat/s9nM1c3aN+EHLYuaSp+Qt4WwrWuoTJ8DmxMXsIGb+9mYVs3z2ABd0pAlpmUvVeN4lS5myZCqrGVE7YMME2Nx9KsIv35kbx0zL3N60FjZRi7KgzBUY8Ja2Nhnge7H04p4BywArm/TsNjaXfyVdpGm2fZAAhh0zQ36yAS5sZ7I58ZL+YS9DR+3qtQcd0wK2d+AHTRTMvGQjod1ngvojvrMfI0hZ7KX7sCXoIG6YAE2YMCHwqJMtwLaAht2LUseglSN7Cb1RjyGZ/ej3pWeyeBfwjD/8Uf35vfcT6VrH0nlfiOD1pX+tEzrvMBNeW1rKnlnKc5bxDDouY1i+w0rvIMZ7gat15SbA1aqQ73yDLKKk50R9l8UlPXvQcUkja5wghlGWT9b8GiV+1OSjURiwnsUlMLv0fBZHhfBsOOoaUNop/Y2/+Zj6YskVZJbrL+8fVDOff1n92+9fVhtDXoco6eOZLwS/GsvOZh0pwAla3N7sUSvPfUzLK8qjUwIEmYIELSVSgDMh1ZGTPNPNngtTIAF3AgdKm6PmbXtVzSu9s3dL6YgSjisd2+Iw1ebIFvp58FVnnKS+1O7EyPO+aXP/41vvlvJ8TcE5yEulFzZsL72yEL6l27Rsob5wSis1uFPriu92DqsDBTht6zI8CZAACZAACXggQAH2AJFJkAAJkAAJkEBaAhTgtMQYngRIgARIgAQ8EKAAe4DIJEiABEiABEggLQEKcFpiDE8CJEACJEACHghQgD1AZBIkQAIkQAIkkJZArgIM59y8SIAESIAESKCWCODY0qRuZ+Re5FwF2HwzRu41YQYkQAIkQAIk4IHAsc0PV1d1SPYqxSzZ5SrAWQrGuCRAAiRAAiRQzwQowPXcuqwbCZAACZBAYQlQgAvbNCwYCZAACZBAPROgANdz67JuJEACJEAChSVAAS5s07BgJEACJEAC9UyAAlzPrcu6kQAJkAAJFJYABbiwTcOCkQAJkAAJ1DMBCnA9ty7rRgIkQAIkUFgCFODCNg0LRgIkQAIkUM8EKMD13LqsGwmQAAmQQGEJUIAL2zQsGAmQAAmQQD0T8CbAzZo1q2dOrBsJkAAJkAAJNCFw8ODBTES8CDDEN2tBMtWCkUmABEiABEigggR86B4FuIINxqxIgARIgATqgwAFuD7akbUgARIgARKoMQIUYA8NNnLkSDV16lQPKSm1evVq1bNnT53WqlWrVI8ePULT7dKli5o1a1ZkmCSFQvk7dOigxowZo/r166eGDBmiBg4c2CTq1q1bVefOnQMfE0yaNEmHRXxcElYSSPJoAXVZunSp6tSpU5Ii6zCIM2zYMNW+fftDyps4EQYkARIggSoRKLwAY5CdMGFCeYCVz+A1aNAgLQqbN29WsoFr4sSJasCAAapPnz5qy5Ytqm/fvmrJkiXlcBCbadOmlQWubdu2+jdcc+bMUe3atdMChLhIS0QJaYwYMUILLcogaY8bN64smPPmzVPXXHNNWaRETJMIkLS/KYaIj7KgfhDGoUOH6vRx3XXXXfofLpRF6osyDh48uFwH1A2/S7gggQsSYHCQiQA4bN++XXNDehBKk9mOHTt0+rYAo94ySZg9e7bq1auXDodJw+LFi8ttBu7gKOXExAOXORFBfOQr7SK8ZsyYkVq4q3SvMVsSIAESaEKgsAIMq2rs2LF6wIVo2J8hSBjEceG37t27a0sQ30MkJ0+eXBZLCBhEZvTo0eXvYaUhDC58jzwQF0KwZs2asvCaAouwEBXJW/63LWBAFbFGHPtzXB+UyYQIKwQLQoz/IUrCRMRt586dejIiFwQMkxYROYRHGVGXIIvanJQgDQgi8kJ4TFAg7iK6qL8ZHhOcSy+9VGe9fPlyPdmRiYiUR+KYAoz6rFy5srxyIBYw2gThkD/SwgWWuCS+GS+OJX8nARIggaISKKwAi5Vpig3+ls9xAjx//vyyiEKIINKwjEWYowQYgoYlWAgNrEkRZGlEEVz7f/ldBFQsX/tzks4gy7oICysPIijL3LIKAIGEUKG8pijBcg4S4KClZaQfZAHHCTDEUJapw5agUX/5DRZ0UgHGcjjE3JwwoIy2BZ2EI8OQAAmQQFEJFFaABVjYEjSWPWEhhy1BRwlw3BK0KcAQPYi9vYyN70WAxTqH5QkLVYTXZQla8kL9ZUkWdbSXZfEbJhOoC/6WJWH8D/GMEmBMPiDoeH6KC+JoPwPG92JVwyKG2KItcIkljr9hnSIurrBnwCjfunXryo8MkE7QEjSsbNQJ6eG5ruQvS+AU4KIOIywXCZCAC4HCC7BLpaLi+Nww5btsYen5aCQz7blz5ypMYGBZY3meFwmQAAmQQOUJ+Bjba+occK0JsLmcXPnuwRxJgARIgATyIkABzoss0yUBEiABEiCBCAINJ8DsDSRAAiRAAiRQBAIU4CK0AstAAiRAAiTQcAQowA3X5KwwCZAACZBAEQhQgIvQCiwDCZAACZBAwxGgADdck7PCJEACJEACRSBAAS5CK7AMJEACJEACDUeAAtxwTc4KkwAJkAAJFIEABbgIrcAykAAJkAAJNBwBCnDDNTkrTAIkQAIkUAQCFOAitALLQAIkQAIk0HAEKMAN1+SsMAmQAAmQQBEIUICL0AosAwmQAAmQQMMRoAAHNDmg8CIBEiABEiABm4C8790HGQqwRRFA9u/f74Mt0yABEiABEqgggVatWqlvr30+NMf77rtP3Xzzzc4l+t45ZygKsDO++IgU4HhGDEECJEACRSRAAXZsFR+muGPWTaJRgH1QZBokQAIkUHkCFGBH5hRgR3CMRgIkQAIkoAlQgB07AgXYERyjkQAJkAAJUICz9IGiC/D999+v7rjjDl3Fjh07qo0bNzap7tq1a9WkSZPURRddpL8fNWpUFhyJ4qJMTz75pFqwYEGi8AxEAiRAAvVMgBawY+vWggCL2KGRH3roITVgwADH2oZHg5APHz78EIGXGBDdHTt2KOzm40UCJEACJPARAQqwY2+oNQFesmSJtni3bt2qOnXqpC1fsZDHjx+vLWB0BlzXX3+9FsyuXbuqbdu26e82bdqkFi5cqB5++OHydzj+ZIZBHn379tXhe/furaZMmaLOPvvs8mfkKZMCOx4CQcglP6SFS9LLawLh2PyMRgIkQAKZCVCAHRHWggCLwEIMsex75ZVXauGF2M6fP18NHTr0ELEUoTN/RyB8v3PnziYCOn36dB1fLODt27eXBRffQ6BNC1iWoK+99lr16KOP6jLJd2PGjNFiizg33XSTat++vWrXrp0uI8S/Q4cO+vuZM2eWJwiOTcdoJEACJFAIAhRgx2aoBQG2n7eaAoy/IXovvfRSWQyBAiIHK9QUSUFkPsOFBXv77ber008/vSzA+B1X//79tRBnEWCkI8vWyOu6666ryHNqx+7AaCEEZFWFgMIJRDnSIb98ek5RnBdRgB3bt9YF2NykZS8Xy5K0vUz81FNPNbGAIcDdunXTYouNXrCIZclYLGCxpLGsDas2aAkaFu7u3bubWMCI371797KVjiXpCy+80LG1GK1aBDDA+PTEU6165JVv3Dl+8vNPPo65/xzDU6QAO9IuugA7VovRIgjQGonvHrZlQQGJZhYnBuQX3+fShohjnja9LOEpwI70KMCO4Go4GgfD9GJCZumZmTHIz/+AQQF2Z+pD95qVlsQOuhfhg5g+CpK1DFKOojzP8FGfIqfBwTC9mJBZemYU4HxHAQqwO18fukcBduff0DEpJunFhMzSM6MA5zvMUIDd+VKALXZF6kzuzVobMSkm6cWEzNIzK4IAz507Vx8D7NGjR6abE74HcNqiSFeRxkw+A3bsGT5mAo5ZN4kW1pngoUp2JItjDTMidifffffdTTxYBX2HOHK+V87j+ih3LaaRp5isXr1an7MeOHBgJjTVHPCC+mKezOBUBn026wBfNGaVFuB+/fqpxYsX62zBdPLkyapXr176M7zYufIdOXKkPr+fNL5ZDuRtf850YxiRKcDuJH3oXkMsQYszizAfz2FiG9Q0YQKMY0o4etQox4N8iUnQgDd48GAtwCtXrlRTp051ukOqPeDlKcCo2+jRo7UXNxmcwQn9GP2zUswg1jgeJ5ZhVpGIEwNffS6oQ2HS17NnT7Vq1SpdHzBeunSp2rx5s4IFPG7cODVs2DB9fBBCPHbsWJ0Mwq9Zs0a7tl23bp0677zzdFwcFezcubOO36VLFzVhwgQ1a9YsLe74vGXLFjVnzpxyWvPmzVMrVqzQ7SoTKfCYOHGiFm27fE43RUCkOOa+8kmSDi3gJJRCGtHDXi7H3D+KFtaZ5Jyvaf3KuV6c+4WjDfGEhdRg3a5fv75sFYvXKflNXEris3jFEk9bjeImMutgGDXgyW8yQIFzrQ14eQgwLDIM6uCC1QEIw6BBg/Rgjkt+w8QFkxgICi4M4uJNTe4WiIYwRXyx9JAe7mWIKUQEcSGySAt/L1++XIsIRAZCj3C48J1dvrQ3dJwYZO1zUeWR+possWqGeskSdNu2bbU44hJRxEQRgmwKMFiCjawm2P+jnrikfyMuJlMyaZTPItRoD2ErZUrLNix8HHNf+SRJhwKchFJAGB+muGPWTaLFdSY0MJxkwGmGuH9EAqYFDK9YEGRcWJZetGhR2ZMVvjMtYPiDlpcr0AJO14JRA565BG1asvJ9LQx4eQgwWEybNq1spdkDtFhOCIdlU1hjMrDjM55jmgJsiobEFbGQtEWA5ZEAfscllq9dJtRbLL90PeKD0xRxnrDynuij3rBacaG/zZ49W7PExAQXLF6wkM8oj0yE8LtMZkwBlr4O8cT34IPLFmDkB0sZoo84CCurHGa50nKNCh/H3GdecWlRgOMIhfxeKwIsbyuKE2D4iMZglUSATW9WXIJO34GCBjzTesMghavWBrw8BFjoBg3OWC6VgR2iCXGVzxANXGIRBy2bQoDFIoaoiJVmCzAssT59+miRghjDspZn9VlFIk4M8rSA0/dc/zEg5Liy7n1IU7I45mnSyhqWAuxIsOgCDKt22bJlunayRCyenGQJWjZhiY9oEWC8O9iMj+VpLEHLG5FEgCVMo7iJrIfBMM8BL08BdrxNvUSDlYbl66SbidJkGicG9dDn0vCoRNg45pUog+SRRYC/deZpatuBt9Uze95U2w+8E1js751zhldXsD50ryE2YVWyEzVKXhwMo1u6XgU4z/4dJwbsc/7pxzH3n2N4ilkEGKl+8bTj1adPOFod1fwwNfGZlw7JiAKcc2sWqTPlXNWqJ8/BkALsuxPG3b/sc76Jxz93959jPgL8T584RR3T/HC159331JY33lZr/vQGBbiSjYe84m7gSpennvPjYEgB9t2/4+5f9jnfxIs1ZmaxgGH9nnHskeqIw5qpA++9r/59yysUYP/dJf2gV+kyNEp+vgfDsF23UTzlKIwr86zxo/LlEnT6VqmkAMsms6Q7tvPsK0lI+XK0YucVxzxJ2XyFySLA3U85Tp15/FHqhCOaq70lK/iHz/+JAuyrYZKmU6TOlLTMtRrOpwCLxyFxIGGKMc6dYmPbiBEj9LEM+a1///4Kx8BwtGPIkCHaUQKOgOCzGd48c4ljORhwZdCV4zo4N2seNfFx1KUSAixHgJKcDcWOZTlfmqXP5SlEcfevzz4nTkPM88w4/iNH3aSvgBX6FXZ+S/+SY0LmGWEcV8JOdITBP3NXOXaS4/gijpDJ0aMZM2Y06a/icMPsr9gIip3rcnxJziBL+2HXetIJRFibxzHP0lfSxs0iwP/QobVa9+qB0A1YKAufAadtkZThozoTzuniTC/cwZkXnGzguu+++5S4rMRZRPN7M7zsnsZ5YuyQti/8bu+EDvoO8WTHdZiHLoSRct944436fLJ5fjklHq/BfQ6GKJicpZQjM3LuVETGFE0Rahk8ZTezeCEyB0gRbAg4jjdBrOWcJ/qLLewoizi6yAKsEgJsep4ydycLF2GHOqLfy6AvjMHCnLSIkJsTIOx2FlHAxARpgiPOq2LSI0ebkI6cWXXlFicGPvucbQELSxFgTMpsb2Nmv5Lw4qQDAozw8IaFy/SWJY5NwBtHjMSDGMIhnjg0Mb1koc0wKRTvWeKIwxZqpCHeu1y4xzF3SdM1TlYB/vgxR6rv/2aX+vZZbfX/9kUBdm2ZhPHCOpOc/w0SzDQCjBlonACGiW1QFYIEGF67xLkH8sORD1xwfAALBukXwQ+1z8HQZCMDvCnAGKBMUQkSYFgL8FQkXojC0pGBTMQEn82BNWFXiw1WCQE2B2X0DzkeJK4qhQUKaw76CGeGl/O7IipBjiNkVQBh8U+YYbKJS4QhFkxEgDgx8NnnTAFFkcTtaZgA2/3PnPyh74mQms5i7KNa4lQG+eFe3rVrV5M2ExesEGlJH+lBuGFdYzwQT2RZ3X5KM8Qxz9KeaeNmEeB7P99eZ3frr3co/I3/KcBpWyBj+LDOZIqanUUaARYL2bR+TTeVsJzFQkY+48ePV7BuRZRfeumlsstLDFwYFOV8Ms4jT5kyRZ8xxoXPcAiCC2eNcTPDzzREW/7OiCtTdJ+DobielIFcnEjAEoUFYPrVNZdAIQRYGhQvT7YAQ6jF0hEr0Fy2E6HC/xjkTG9HWd98UwkBlgaUepiesGCN2QIMrrgQDgIskxxzOdb0RWyyRn3Ey1MlJy1mJ/XZ56RfIH3bmxX6nSz/4nfTu5UwwSfj2sQAACAASURBVL1ruke1BRiCjiVniR/k/coWYLu/Ii7SMJeg0W7ICysapitR19WHehFgWL2tj2yuNrz+Z9XxuJY8hpRpdHeMHNaZol7GECfA8PQDP88QxAULFuiSidONJ554Ql1++eVN3OeZYivWsnw3fPjwJi9sEAsYzzMhvBDwqMmC5I2laBlMHVFljuZzMMxcmAImUAkBFhGxl45luV4sWZl8JBFg8zm7PF83vZCJAGHyg8mRLEHntWyflwDn3WUwqcQkLq/NU77KXy8CjM1X3Vofo7Gsf+3PeiOWfXEJ2levCUnHRYAheOLNyvQJHfYMWLKGAMUJsHjXSirA4l1LlqCDqim+qinAOXemjMlXQoAzFrFw0ePEoJYmfeYSso9Xa+bVWHHM88o3KF2XJeh/7HyyPnKE/82Lx5Aq2XIf5pVkCVqs4YcffrhsjZrLxrKBKkiA5a1KyE7erGS6qZQlaKSB5WZbgJ966iltTeOSJWgsM4sFLG9hwpuZgt5bjHj1uARdha6Se5YU4PSI48Sg1gRYlqB97KpPTzNZjDjmyVLxE8pFgHH86Ld73yp5wDqqSSHoiMNPm6RKJckmLAgrnqPIixbsXdGpMqxC4HrfhFUFpLlkSQFOjzVODGpJgNPXvjox4phXslQuAozyjfibj6l33z+oXij5gP6v3ftCi8wl6JxbM6ozmcd5sIkJ1mjU8Z+ci+qUfJJd2E4JO0TiYBgNjQKcvlPFiQH7XHqmcTHimMfF9/m7qwBLGeAN6xOtWuqP037/8iFFowD7bK2AtIrUmXKuatWT52BIAfbdCePuX/Y538TrxxVlh5IbyvPaHKtOPeoI9ef3/kpPWP67SnyKcTdwfAoMkZQAB0MKcNK+kjRc3P3LPpeUZPJwccyTp5Q9pKsFjCVoXM/vf5tL0NmbwT2FInUm91rURkwOhhRg3z017v5ln/NNvH4s4CRkuASdhFKGMHE3cIakGdUiwMGQAuz7poi7f9nnfBOnAGchiv6adYd7s1ICB7MUAnF9FCRrGaQcOArEK38CHAwpwL57GQXYN9H49OKYx6fgL4TrEnTSEtACTkrKMVyROpNjFWomGgWYAuy7s8bdv+xzvonTAs5C1IfhSQs4Sws0cFwOhm4C3MBdJlHVo1awTIc5iRJjoEQEirJqSAs4UXMdGsjHTMAx6ybR4mbQPvJgGh8Q4GAY3xOKMrDFl5QhSKD6BPIQYCw7Z7mintD60D1awFlah3FJgARIgAS8EPAtwBDf7o8/Uy7b2llT1c0335y4rHHPjCnAFkpawIn7FgOSAAmQQKEIUIAdm8PHTMAxay5B+wDHNEiABEigygQowI4NQAF2BMdoJEACJEACmgAF2LEjUIAdwTEaCZAACZAABThLH6AAZ6HHuCRAAiRAArSAHfsABdgRHKORAAmQAAnQAs7SByjAWegxLgmQAAmQAC1gxz5AAXYEx2gkQAIkQAK0gLP0AQpwFnqMSwIkQAIkQAvYsQ9QgB3BMRoJkAAJkAAt4Cx9gAKchR7jkgAJkAAJ0AJ27AMUYEdwjEYCJEACJFBVC/jsE49Wm/a8eUgr0Bd0yo5JX9ApgTE4CZAACRSEQDUsYIjvZe1OVBOfeYkCnLUfmAK8b98+hX/t27fPmizjkwAJkAAJ5EygWgJ81Rmt1f6//FXXbu+776kfPv8n/Tct4BQNvmLFCrVg4SL1wP/+11KsZh/EbNFCqbffSpEKg5IACZAACdQLgWZXj2hSFb6O0HPLQnhvu/Mu9dqePeqcL16mPnX+F9QxrVqpU9q1V6e1OUn1Pu14zzkyORIgARIggaITwIroLU+/EFnME45orr75qVPVW399X6195Q114cnHqe//Zhct4LjG3b59u/rHIUPUy6/tUT2/eo26ZMCgkvA2Fds2R7VQPU85Li4p/k4CJEACJFBnBJIIcPeSPny59Az4tXfeowAnbf8NGzaor1zRX31p6A2qx1cHNhHeq666qpzMwbcOKPXb9UmTZTgSIAESIIECEzh48GDi0iURYCQ29rOnqxYla/kvpbR/u/dN9X9e3EMLOIzy3r17Vc+LLlaXfO0b2uo1L4jvI488Uv6qdcvmqnvroxM3GAOSAAmQAAkUkwA2aeUhwKhth2OPVNsPvNOk4tyEFdAPvj7kOrWv+VHq67dPOORXCnAxbxyWigRIgASyEvAtwDiC9HdtT2hSLO6CjmglWL+f6fo5dfvshXqTlX3ZAnxci8PUxaccm7XdGZ8ESIAESKDKBHwLcFx1aAFbhGbNmqV+OO+n6qbpPwpkRws4rkvxdxIgARKoTQK+BZgWcMp+cP/996sVz/4hcPkZSVGAUwJlcBIgARKoEQK+BViqjee/bY8+Qh0oOeMwXVLSArY6xne/+1313N631DWjxiSygM0l6LVr16q+ffuq8ePHq1GjRqXqcl27dlW33367WrNmjY539dVX67T279+fKB0cmTr77LPVpk2bVIcOHRLFYSASIAESaDQCEFmfV5wjDojv/+p0svpl6QzwJ1q1VAfee1/9+5ZXdBEowB4F+KabbtJuKZ988km1YMGCVG0sAjxgwAAdT8Q8SoBFdJOKdKoCMTAJkEBVCfgWiqpWJiTzSo9d1XBFiXPA4nzD/JsCHNApsljAaFx0KPwvlij+7tixo9q2bZu6/vrr1X333ad/t78Ls4CRDizbJUuWqEmTJqlly5bpUtufn3jiCXX55ZfrfNevX6+GDh2qw/Xu3VtPBq688kq1detWXQ75DhOGmTNn6nCVvhGKOBiwTCRQJAJpl0OLVPYkZanGi22qIcBggXPAr779F9WmZQueA47qHK4CDIsVAgmxE0sYy9BocIglLllSDvouTIBFbC+88EKdrggmlrn79++vxRniaS5BX3HFFWr69OkKcSQvlO2iiy5qEgeijAtllvj4zGXsJMMHw5BAvgQqJcAYG8aMCX7klmcNG0WAsQQNd8XLdu8rvYjhr/plDHJxCdrqYa4CbIojkoSFu3HjxswCDKsZl1jOEFsR+CwCLCIrS90U3TyHGqZNAukJ+BLg1atX670lIrL9+vVTixcvVvh+586daseOHWr58uXaULCdUIwcOVKNHj1aderUSa+gTZ48WU2dOjV9ZQJiNJIA4xnw8j/u0xTMjVgUYE8CbC47m9YoLFS5ZHOW+WxHvovahIXwDz30kHr00UfLS9B2WrJUbS9By7I3rF3TAka4G2+8UacnkwUvdxUTIQES8ELAhwBDbHGJ4Pbs2VOtWrVKtW3bVkFcIazYtIm9K+3atdPfd+7cWccZMWKEFtsuXbqoPn366L/nzp2rBg0apLZs2aLjZrkaSYB7fuyjjV+wgOmKMqTnuFrAYR1RloCxHCxX0HdZOjLjkgAJ1B+BrAIMCxeCK0IKMYaVC/HcteuDt/H06NFDPzoTARaK+B4CDdG145lpZqHeKAKMs8DntjlWvwMYf3c96Rjugg7rOBTgLLcU45IACfgikFWApRywWrHMLEvQsGg3b96sIIC4Jk6cqLp3767FGuIsFvCcOXPUypUr1eDBg7VQYwkaogxr2sfVCAIMwb2s9Cakow8/TO0vnQFuflgzvRkLYoyLS9BWT/ItwD46KtMgARJoPAK+BLio5BpBgMEem7A+WxJiWXY224MCTAEu6v3JcpFAQxOgAPtv/modQ/qHDq3VqUcdoVqULGC+jCGiXWkB++/0TJEESCA9AQpwemZxMaohwHC+gU1YD/7+5SZHkLgEHdBargIsx3mQpOw8NpOfP3++uvvuu/XRJLmCvsNvdCsZdxvxdxKofwIUYP9tXA0BNl1RvvnX93kMKapZXQXYdL4RlH6Y2AaFDRNgHFUSBxv+uyZTJAESKBIBCrD/1qiWAPMYUsK2dBVgvEXpjjvuaGL9QjDF9eO1115bdg+Josh5XbGKTUcecqZXiowzwDgwj/Rx4bP4jE5YLQYjARKoMQIUYP8NVg0BRi2+WPKEdVrpbUjvlCzgpbvgEesDb1jchGW1sasASzLi5xlvNoLjDHkpg2kBwykGBBkXBHjRokVll5L4zrSAFy5cqI8QwBMWLWD/NyRTJIGiEqAA+2+ZaggwjiL9/cdPUv/7d39Ufdoer1of2VxNKz0PpgAHtG9WAcaz4OHDh+tXC0YJMLxSwfNMEgGWtytRgP3fkEyRBIpKgALsv2WqJcA4CzzxmZe0JQxHHN//zQeOUGgBe7KAYdXKm4pkiVhcTuLtQ7B4ZblZ3EKKAGNjlhnfdCsJC1gEWMLAm43pWct/N2WKJEAC1SbgS4DhPAPuJsNeuCCeruCiEo+6Bg4cWJGqN8o5YMD8p0+coo5pfrg+hvTzXXvVpj1vUoCDellWC7giPZeZkAAJ1D0BXwJs+4OWFzNAmHv16qV9O4v3K3jCgmcsPAabNm2a/nvs2LGaNTxj4UJ4XOLi0rUhGkGAbScc9mdawJ4sYNdOyHgkQAIkEETAhwDDDSVW2mDZ4n9cpgDD17P4fJa3I8EClu8QHq4rIcwQXBFsfJ/1hQyNIMA4A3zhyceVl5ztzxRgCjBHPxIggQIS8CHAsrwsFiteLYgNoViOFpGNEmBblKOWstMibAQBlg1YEzbt1Hi+8vETVcdjW6oHntutP9e0AD/44IP6BfXr169v0vbdunXTx4FuuOGGtH1CcQk6NTJGIAESyIFAVgG2398r7wEWixbLzngpgwgwwuM7eQmDvPdXXtoACxgCLEvSeGaMlzS4Xo0gwGCD579tWrZQ+0tHj1od0Vz958499fEMGAJ8wQUX6OM55oVNTb/85S8pwK53BuN5J2C+A9p74gVJcP/+/YlLQh7xqLIKcHwO6UPAIhbRNZep06ek9NuY0vQZlzzsONXYBR1V7pq2gFExPK/4/Oc/H7rDL22j0QJOS4zhkxAo4mCapNxJw6QdTMkjnmwRGZnWsixlx9ckOETaPuOajxmPAuxIEY118ODBQ2I/8cQT6tlnn6UAO3JltMoQKOJgKht0siwjCr20gyl5xPe7IjKaNGlSeQmam7A+eIbb/fFnyo25dtZUdfPNN8c37ochat4CxowMA8nrr7+euNJRAWkBe8HIRCwCLoMplvtkxyqSk2d4SeFCFPv27Rv6AnUR4AkTJpTD4DtZWUqaD8JVQoCrwcPOMymTtDyC0nXpM0nLV4RwPhilrQct4LTEPgwfZgE7JhcajQLsmyjTA4G0g6l9drNnz54Km17atm3b5MymnN+0N8jAOpk8ebLCRhqxWhAf6eCCMA8ZMkQfTZE0sflGjqAsXbpUb9BJeqUdTGuJh/ALWoEL45OWR5gAJ+Vfi+Eq/fxX7sNvr30+FBdc/qa1YBvaAsYMVQYnUMXfaW4UuyUowLV4Kxe/zGkER/q0ODqQoyQQ1V27PnBhh2VjhJO/xdsRXtKxbt06dd555zURYHl5B34TkcWZTggw0oJgyK5YERwR5CR00wpOLfHAqgCcT8ApRZg3KZtRWh5JGDNMdgK0gB0ZhlnAMjhhRo/rnHPOUffcc49jLorHkJzJMWIUgTSCI+lg4MeLOGTQx/ERWKVyLASCLBYwxBJhTQHGJpkZM2aoYcOG6e87depUdqoAMWnfvr0WYFjCYu3aeSZt1bSCUys8MMmZPXu2XklIc6XlkSZthnUnQAF2ZBe1BG1ujXdMvhyNFnBWgowfRMBFcGqJZFrBIY9aat36KSsF2LEtowT43HPPbeKMg0vQjpAZLTcCFJymaMkjt67GhCMIUIAdu0eUAJ900klagLHElvWiBZyVIOPTAo7vAxTgeEYM4Z8ABdiRadQzYHl+hWdkuBYvXuyYC58BO4NjxEgCFBxawLxFqk+AAuzYBmECjOe/8v5cJI2/sSPU9aIF7EqO8aIIUIApwLxDqk+AAuzYBlFL0OZvWc8LU4AdG4jRaAGn9AWdZa9G0btb2k1pRa9PvZSPAuzYknHPgL/3ve/plG+55ZZMXrEowI4NxGgUYApwuQ9QgIs5IPgWYNQS7iSzXFET0awGJcrVrJTBoU6cU5Y4qiB4+xHejAR3lN/85jczvSKLApyyYRg8EQEuQXMJOlFHYaBcCeQhwGaB43w7p61coQUYHnvgpAD/m1dSbzVBMCjAabsIwychkFSAzXe42u9zNfMJexWcywsWsr5WTs+yU75aLoxH1vrLC+TFKUnSkxE+GJjtk5ZHUB8Co3q/Ku2OkgLs2KOCZgIUYEeYjFZxAlkFWLxfwYMVLrwUXVxHym/whoUL3q3wEgeEkfDdu3fXK0MiNPJSdnn5+rRp03RcLFaJK0x8TvrGm7SCk1aApbymz+ug+qPuO3fu1F7B5MXxwgX1ETec8GwlXvTAaPv27Qr+r1Ff/IMXMZPZ6NGjVZ8+ffRvKAM+ixcyKUceAuxh8bDifT1phmn7TNJ0o8JRgB0pRpnimDWLj1wkn+X1arSAHRuI0SIJpBFgGdiRoAiOiIG8EUmE1Hw9nPmCBbhP7NChQ3mFyBQT+IAWMcL/kibSQji8HWnJkiU6TFL/x2kH0ygBtutvlhf1hvjZL5pAWVH/cePGlQVY3G+ifnC3aQrw4MGDm7xpStKFr2xcEHBbgCVPpAcBN92AQtiLJMBZLXqMqeI3PK9bO22f8VEOCrAjxbhNWLgZWrdurVPnOWBHyIyWG4E0AiwDvSzHQkijBFh+Q+HNJWgIKiw786ULGJhtAZbBOuj1hEmBpB1M01jAcQJs1j9oCRqCKcIsFnCQAENUJT7qLS+qEHGWF9DjM+LjCpvsp+URxDlJn7EfU5gTFKSZ1oe19CEpjz2xCCqn+ZrMqMcmdlwfjJL2TwlHAU5L7MPwca4oZ86cqbp27eqY+kfRaAFnRsgEAggkGUwRLewZqLkEjT0O5usK5TdYyyK2sPiwXAoLFpag+dpCDMrmsvXKlSv1QC0CjHLIawuTvhEp7WCaRoBRNnMJWpaPUU5Mts36QxiDlqAhJBJO3pEsacoStCnAeJuUyQxWty3AwiholSAtDxcBhtjKayPRb1BeaS/kj79nzZqlrX+8zQmXPHKQ11SiL9n8sHqC9BBPlvJldQF1Rn2XL1+u2cvkDWkIB3l7VNzjCx+M0g42FOC0xGIEWDqPmWyW5yYUYMcGYrRIAkkFuFYxph1M64GHvAQmaLk3LY+0AiyCK5MJlAHP8fHOZ/NZv7ymEkKLOJhEYFXEFGDzcQbekIXJBy4sQWNyhnTN5X1MZmTjq6w+yGTG3EMgr9MM69M+GKW9XyjAaYklsIBlMxaCmn+7ZEUBdqHGOHEE6kFwouqYdjCtdR7mUn81BFjawn5dov18GiKIVQGx1mWDmWxQg2CaAmyulogFjf0AtgBDzLEpDW6AJU/sOMf3SC/JY8C0fSbuHkvyOwU4CaWAMFFL0OZvUeGSZE0BTkKJYdISqHXBiatv2sG01nmYO8WDlunT8khrAce1R96/o/7YaZ/lyKcPRmnrSQFOSyyBBYzXEcrzGrwVSV7O4JIVBdiFGuPEEah1wYmrX9rBlDziiCpFRvGM0oagAKcllkCAX3vtNfXzn/9c7du3T284kd3QLllRgF2oMU4cATpVaEqIPOJ6DAU4nlD6EBTg9Mx0jLClZdkCf9ttt6l7771X3Xrrreqee+5xzIWvI3QGx4gkQAJeCdAC9opTJ0YBdmQaJsD4HhsLunXrprD8jKVo7oJ2hMxoJEAChSFAAfbfFBRgR6ZRFjB26ckZNG7CcgTMaCRAAoUiQAH23xwUYEemccIqZ/Lkf8dsFJ8Bu5JjPBIgAZ8EKMA+aX6QFgXYkWmcAMf9njRbCnBSUgxHAiSQJwFXAbbPBvsqo+900+6c91EPCrAjxTiBNf2ROmaho1GAs9BjXBIgAV8EwgTYPIMc520qriyyhybotY3iFzvOH3TScHZZKMBxrRO++Tg+5kchmpU2RR1MEyEobJwAS5ysQkwBztpSjE8CJOCDQJQAixMMGe9Mv9Y4iimvU4QHrCDf13CgAW9ecDVpvjVrxowZelMrXFriEg9a8gpG8YctLoDhhAQvuhC/43BlKX6nMezLKx/zclaSljMt4LTEPgwfJsAbN25Ub7zxRjlVdJgsek8BdmwgRiMBEvBKIIkFDKHEyydE9HAKBC9ogFBCDPEyBriFlBckoIDy/mJxQWm6ooRvZ1wQePyNtGEBi7tJpItLXFnaLiplIoAw5osfwoyq/fv3e2UWlxgFOI5QyO9Rx5DsKBRgR8iMRgIkUBgCcRYwLF28utJ+vaS8dAFWLpaH8VYjvOMZlywny8scpLIQcogu0sQlFnSYAAe9AlKE2vQDHfVeYi5Bx3e1pCu/USlVbAkaHrHQcW644Yb4moWEoAXsjI4RSYAEPBKIE2B5LSUETyxPWKR405G89UjeZGSHufTSS8vvmDbfO20LcNwStCxNy6sQUX2xxiHqeLVh2DuJa0mAv31W20Na9vu/2XXId98754xMK7B2goUXYHFDuXDhQjVv3jyVdVPCjTfeqPa3Oll9eejwwFvpqquuUo888kj5t9Ytm6vurY/2eNsxKRIgARKgK8o8+kCWJegTjmiuPn3CUWrNn95Q3U85Tv9vXw0nwHgRA16Lddlll+kNA1mWnwHzy1f0V5/58gB1fp/LEwnwcS0OUxefcmwefYVpkgAJNDAB12NItYKslixgMB13djt1dPPD1K2/3qHu/Xx7/X/DCzCeMfzqV7/SIgxf0K+++qrzyxj27t2rPtv1c2rc7IXqlHbtEwkwLeBaud1ZThKoLQIUYP/tlcUC/u7nPq5aHNZMTXp2lxrzmbYUYLN5nnjiCfUf//EfCs88XK3g+++/X81f8l/q29N/HNryXIL2f1MwRRIggUMJUID994osAvyVj59YWoI+Wr313vtq24G31f95cQ8tYF9NtGHDBr38fNP0H6mOn/5sYgHmErSvFmA6JEACJoF6f2VjpY8ggW0WAU7SOxvuGbAN5aSTTtJb7cN23gVBhPj+r68PUZd+7RvqkgGDIjnTAk7SDRmGBEig0QhA3M4++2w99uL/Il6uAvyPnU9WbY8+Qr369l/UEaVl6FalDVkTn3mJFrBNYNKkSeXt9XEdAM987/rud9X8/2+B+uq3vhMrvkgPAmxeBw/sVer3G+Ky4u8kQAIkQAIFINDs6hGRpbj55psDfzc3XuF58J0bXqQABwnwr3/9a+35JeyC8N52511qUeno0gV9L1d/9/VhoZuu4vpLqyMOV71POz4uGH8nARIggbolgDG1Y8eOun4PP/yw6t+/fyHrip3Xtzz9glPZRvzNx0qbsA4rx33gud2NLcC33XabPn7Uo0ePJiDg/eU///M/1T333KPQMeCO7flt29WTK1aoF1/YruCY+iulc769rhroLLySYZujWqiepTNhvEiABEigUQlgnN2+fbs64YQT1A9+8AM1ZcqUQqLIIsBJKtRQz4Bh5cIBB3yf7tnz0Y40eIOB+zU8C0bHuP2uu9Sv/2eDWrPySc2w52VfVp/r3S/RknMcdApwHCH+TgIk0EgErrvuOnXnnXfqlzwU7coiwKYFvOfd99S/b3mlsS1g18bVXrNKz30f/9kidf2d96ieX43eeGXmc8gz4LcOKPXb9a5FYTwSIAESIIEKEvDxDJiOODw0GHY/T55yv/rZooXqrjmLIo8fSXbcBe0BPJMgARKoawJf+tKX1OOPP164OrrugkZF4A/6xT+/o+vU8biW3AUtrQtn4vJCaTjkuPzyYDeSYb1hRenZ8CWXXKLGz/2Z+swFX4jsNBTgwt1TLBAJkEDBCMAp0o4dOxQ8FRbpyiLA8AXdrfUx6qiSO8pVL7+h9paWoe2roZ4BS+XxJpDvfOc7asGCBfor83VYSRsfIvz3pZ17/8/jKyI3ZtkCTEccSQkzHAmQQCMRwOZYbIgt0uUqwDgHbF98BlwiggaGRxU89MeLGQYPHnzIruikHeDO0mattc89r0ZM+tfQKLSAk9JkOBIggUYm8Oijj+rqX3vttYXB4CrAeBHDa+/8RW3c82a5LnwbUglFv379DmlcFwsYiWDH9Iknnqimr/6fxC9joAVcmHuLBSEBEigYgaJZwa4CDKx4BWHXE49W775/UC3bvU9tP/DB82DzaqglaFi/QQ1snwtO0yd7XHSx6jvy26HPgqOWoG+66SY1c+ZMnd3111+v7rvvvjRZ67B4kfbdd9+tNm7c2CRu165d1fTp09Xw4cP1b2vXrlU4buWSz5VXXqkuuugiNWrUqHIeQd/Jj6gXLpf6pAbACCRAAnVDoGhWcBYBRqPgOfBVZ5ykTjvqCDVh087GFmBYv7B2bSvY1QIGzX8edaM6cPzJ6sslRx1BV9gSNN6kBA8wIpwQLRfBChNguyzID5sckIf5d5I7N0psg+IHCTA68qZNmwp51i8JA4YhARKoDIEi7Yh2FWCxfkEMy9BBy8/4raEsYOk+2GmHZ79nnnmmeuqpp9Szzz6rrUNYjWmv75Z8Qz+39y11zagxiQRYlqAhanjWMWDAgCbxIKhDhw7V34m1Km85kc8o57Zt21Tv3r11GhIecSByuMS5Ody9wRJG/XDdeOONZa8ziA/L9o477tC/Ie769evL6eF3bFRDWZctW6bDID1MGiCy7du311ax+RYWPF8XAcbvmGQgHbH0lyxZoi688MK0mBmeBEigQQgUyQp2FWD4ft5ROoKE5We5uAnrQxLwbgJBeu2119SWLVvUiBEj1Lx589TmzZtTd/GsAowMRUAhgFdccYUWVxG7RYsWaTF96KGHtFhDoNFBZQe3aQGbom6KItKFM5EgCxhiCXEVS1yWriGSSAOCiRdWyBK0fPfYY49pAcYlAo6/ER6/QXBFrPG9WMC7d+8uTwaq8Xqx1A3MCCRAAhUlsG/fPv2GpFtuuaWi+QZl5irASQvekBYwXkH4s5/9TPXs2VNzggh37txZHTz40WwlKUBXATaXxuPUSgAAIABJREFUoOETFSIrAgyL1bYSIZQQZli8UQIMoWzXrp1as2aNXm4W4QsTYNRT8od44pmx5J9UgEXYhZlYwBBhsXi5BJ20RzEcCZBAUQhQgB1bAlZumKDC+caPf/xjLboQX+xmPuecc/TLGNJergKMfMylXXyGRWguQWPpFk7KZTl5/PjxTZZ8ZQlaNmHJs1q8WcR8v6ZtAUseWNLGJcvDdv6y5I104bxElr1hfYctQSOvBx54QKfbvXt3bd0jXVk253PgtD2M4UmABKpFgALsSD5KgCEmECFcWNYVr1guWWURYJf8ihLHFOCilInlIAESyEZAHl3JZD8sNR/3P/KSST5OaeBRlzxaw2c5wZGmRljNw2M8+1RImjTMsBRgR3JRAgxPWNdcc41O2fXZrxSrEQUYy+d47ktr1rFzMhoJFJCAvb/EfHyF4mJDJVbBzI2c2JuCx13mng9Z7UIc7ANBHNnDItVGXjt37iyfBBEBlkdsCIe9KfZGU4w5yH/MmDF6Ay0ef2GlDauAuLBnhgKc/lGq2R2blZaOs6VQSi1KgPHbq6++qvNs06aN07PfRhbgAo4dLBIJkIAHAvJYTIQVGy2ffPLJ8qMwEVKxgO3HXdjzgQ2ueOwkm0IhtKaAy2Oqq6++Wm/YhICefvrpOp5s3DQtYFPQYZmjPLYAy54XWMAQaLGksyKhBexIMEqAb7vtNm354urTp4/eced6NaIF7MqK8UiABIpPQKxRiByWgXGZ/gqkBhBnCLBtcUK0bAG2N2qapzRg5SIvLEHj8SA2geKSJWgIMCxbeV8whD1MgH3TpQA7Eo0SYCSJhn7jjTeczv6aRaIAOzYQo5EACRSKgDxaQqHE0oX4XXfddU02f+I3XNhgib9xKkP8BMC6xQbQKAHG8rNYrEjHPG0hog/Bx/e2rwLkB4saj8BgLeN3WNCSnuuz47CGoAA7dtEwAcb39pVlxdtVgMU1JMoS5B4yyMNVmNcr8xiTzBIdsTEaCZAACZQJiLXZqM5zKMCON0OUBSw+oR988EF11llnOb8NCUVzFeC4XYRJXUyiDGECbDrVcMTIaCRAAg1MQJaTGxUBBdix5eM2Yc2ZM0fNmjVLrVu3Tr3++uuOubgLsCz3mNZvnItJuImUM7/mixxk2UcqYS7T4Dt7B6JzZRmRBEiABBqIAAXYsbGjBBjvAYYDDgiaqwcsKZarBSzx0cB4lnH77bfHuphEHAiwuKcUV46mBWx6vKIF7Nh5GI0ESIAESgQowI7dIEqAcWbt0ksv1Q44fvKTn6i2bdvqFzO0bt06dW5ZBVg2DcQJsLiYTCLA2KaPbfgU4NTNyQgkQAIkUCZAAXbsDHFL0EgWL2FYunSpOvHEE7X4uryW0FWATTeUskQsW/PDXEzCx7PpdtLeeSguJ0WAJQ++gcixE30YzTwykS2lYsaOeikG617MNvNVKr4QJZokBdixp8UJMHY+y45o+dtlN7SrADtWi9EqTAA3oEu/qHAxnbPDPRA2CDdy3QG00evv3KnqKCIF2LExowQYB77/5V/+pfwyBjwHxvWrX/0qdW4U4NTIaipCtQZh7NTHo5EsfsqTgC6iAM+dO1cNHDgwSfEzhYmqezUFuCj1zwS3TiJTgB0bMs4Rh5ks3gvs8vwXaVCAHRuoRqJlFeB+/fqVH21g4genAT169AitPfyU45J3U8u7q83HIxigcYlImXmkxZqXAKctIyYceD3oxIkTtZcjxB80aJDCaQVTjM26wpnO5MmTnT3Z5SnAWetv85B2HTlypBo9erSemOVd/7R9qR7DU4AdWzVuFzR2QMuVZYmRAuzYQDUSzVWAIbZjx44tL1+jP4q4QGSxCx97EHr16qWFBteqVau0Rx+8oQvH4/DMf/bs2VpgZOAVwcFn7F8whVrST4M2DwFG/cTFqwgp6rtr167yO7hR1wkTJuj3RWMFCvVAnaSu5v8iuvK7ydJMP+1qQV4CnLT+aNtp06bp5sIYlLT+Yen7rn+aflSvYSnAji0bJcAnnXSSPoKUtsMGFYUC7NhANRLNVYDR/0RYRIzFmsNnWHm4ICAQWrnCBFheoYkjZxAnO00R9bSTSd8CLIJoTzZQLvx23nnnle87ERzhESZA+B2XrB6YdRVLEZOZtD7d8xDgStQfExJMXMxJTR71r5FbNNdiUoAd8cZZwHv27FGy3Oey+1mKRQF2bKAaieYqwKgeRBOiIv0Lfw8ePLhs+YkFbAow/NzK0iu+hyDPmDFDW4gYeMeNG6d94cK5vYg4vof4uEwofQuwNCtEE876ZfkY9xosdtlvAQtYrHsRYNRD6oD6IM6wYcP0igAsamEgdbX5pu1SeQiwz/oLDyw5S/2lD+ExRt71T8uzHsNTgB1bNc4VpZls1DO5uOwpwHGEavv3LALsu+ZZnvWGlSUvAfZZd1i5mIjIhMNX2nkKsK8yIp1q1d9nHWo1LQqwY8tFCTAGMvOiBewIuQGiFUmA88BdCwKcR72RZq0IcLXqn1e+tZQuBdixtZJYwDj/+MADDzg54JBi0QJ2bKAaiUYBPlgjLZW+mBTg8DPg6WnWZwwKsGO7xp0DRrL79u3TuxCr8TIGx2oxWoUJUIApwBXuchXLLm4CUrGCFDgjCrBj4yQRYCQddy4zLntawHGEavt3CjAFuLZ7cHjpKcDxLUsBjmcUGCJMgOVIgxkpy+YOCrBjA9VINAowBbhGumrqYlKA45FRgOMZpRZgHOu45pprdLynn36az4AdGTdCNAowBbhe+zkFOL5lKcDxjFIJMAKj423YsEEdd9xxVX8fsGP1GK1CBCjAFOAKdbWKZ0MBjkdOAY5nlFqAH3zwQXXLLbfoeDfffHOm84VcgnZsoBqJlkWAxVsVqmr7NA6qvniCqiSaShxDMn0Ww7mGuM9MUk+cgYXjkTxezhAnQFnaPqhupi/wML/gUfX13T/i6p+kfeo9DAXYsYWjNmFhQIBfWrnoiMMRcgNEyzIIyyCLtxrNnz9fe4bCBTGRwVTcCsJ1I9xMwlsUXAziH+LIJkHxBQ2PSOJHGh6SxLOUuL1M2ySVFGDcd/BihXtPHGvYHGz3nTJ5gQtL04tWlntWGMUJUJa2TyrA4vkM4dGu0r7oD7jgT9z2lZ22jcPCx9XfVz61nA4F2LH14nxBo1PLG5DoiMMRcgNEyzII2xaw4BIBhltK08OTiCxexIAL7iZtAZaXMYj7SRGlJBZ2UHNVSoBRTvEPbXp2MgUY96EwEBeeYhGuXLmy/OICF7/HaeuO8FnaPkyAIahyyQspUG9ZJUCfEIsfbWOGFdedvm47CnA8SQpwPKPAEFECjGWwn/70p6pr166OqX8UjUvQmREWOoEsg7C5zGj6cY4SYFiIIjoAA3/QsPZEmGAVY9e++ARGmCzWYKUEGBMHXBAYWRGQephvPgIz+H4OEmB5DZ+vDhMnQFnaPkyAZUIlfQNvhAoTYNv1KJegfbV88nQowMlZNQkZJ8BY7pEr7RtkzIwowI4NVCPRsgzCpgUs1p9YNX379tUDr7zZR5agTQE2l11h9UGAbAHGO3RxubyKEPEqKcDyggUss8tSq728KgKMeoq1COveZOFaV7vLFUGA7SVolBFMUGesgAgDjFdZ3n0cdLvF1b9GbtFci0kBdsQbJcCvvfaaeu655zJZDlIsCrBjA9VItCwCXIkqwloWCznt6/gqJcCV4OCSR5wAFb3tXepsxomrf9b06yE+BdixFaMEWDa+wPKNCpckawpwEkq1G6bIg7C8S5gC7Na/4gSoyG3vVuOmseLq7yOPWk+DAuzYglHCKsuAr776qmrTpo3iErQj5AaIVuRBWF5Gj2Yo8iasonaTOAEqctv7YBpXfx951HoaFGDHFowS4Ntuu03de++9+lkLnkW5LN1xCdqxYWosWiMPwo1cd3TTRq9/jd2quRSXAuyINUqAYTlgJ+Ybb7yReSc0l6AdG6hGouEGrPcLr+UMuhq57iLAjdr29V7vpPWjACclZYVL8gwY/qAvueQSdcMNNzjmohQF2BkdI5IACZBAoQlQgB2bJ24X9M9//nP1/e9/X61fv57PgB0ZMxoJkAAJ1DMBCrBj6ybZhOXjPCEtYMcGYjQSIAESKDgBCrBjA8VZwE899ZS68847aQE78mU0EiABEqh3AhRgxxbmM2BHcIxGAiRAAiSgCVCAHTtC3C7oLP5zzSJxCdqxgRiNBEiABApOgALs2EBRAnzuuefqpWe56IjDETKjkQAJkEAdE6AAOzZu3OsIIcCdOnVyTP2jaLSAMyNkAiRAAiRQSAIUYMdmibOA9+zZo99Eg4vvA3aEzGgkQAIkUMcEKMCOjRv3DNhMNsvzYFrAjg3EaCRAAiRQcAIUYMcGinvL0caNG9VPfvITNW3aNPX666875kJPWM7gGJEESIAECk6AAuzYQGECjBd+z5gxQy8/L1myROFF11meBdMCdmwgRiMBEiCBghOgADs2UJgAQ3i/853vqAEDBmR+FSGKRgF2bCBGIwESIIGCE6AAOzZQmABv3bpVwQ/0zJkz9VGkW2+9Vd1zzz2OuVCAncExIgmQAAkUnAAF2LGB4p4BI1mI8fz589WYMWMcc6EAO4NjRBIgARIoOAEKsGMDJRFgx6SbROMStA+KTIMESIAEikegEu/EzuIIyibmQ/ealQp0MGtT+ChIkjJQgJNQYhgSIAESqD8CEGgPcuUNjA/dqzkB/v2+t9TV/xy8jH3VVVepRx55pAy4dcvmqnvro70BZ0IkQAIkQALVIUABDuHuYyaQpEkXLlyoJj84U317+o8Dg1OAk1BkGBIgARKoPQIU4CoL8N69e1X7Dh3UjzZuTSTAx7U4TF18yrG119NYYhIgARIggSYEKMBVFmBk/7UhQ9SRHT6pLr9u+CGloQXMO5YESIAE6pMABbgAAgwr+IySFXznnEWq46c/GyjC8uXBtw4o9duPXoVYn92StSIBEiCBxiDATVgB7VypZ8CS9fL//m/V+9JL1S3/9u/q3L+7PLTntTricNX7tOMbo2eyliRAAiRAAhUj4EP3amoXtEl2w4YN6iv9+6v2Z35GfW3cBHVKu/aHgG9zVAvV85TjKtYgzIgESIAESKAxCDS0AEsTf3/KFHX//T9QHc/6rOp+5TWlZenPlMWYFnBj3AisJQmQAAlUmgAF2CA+5f771U8XLFS/+MVqpf76V6WaH6HU0ccotX9PpduF+ZEACZAACeRAgM+AA6D6mAn4aCuUY//+/TqpHTt2qBdeeEH17NnTR9JMgwRIgARIoIoEuAs6BH4RBbiK/YRZkwAJkAAJeCZAAaYAe+5STI4ESIAESCAJAQowBThJP2EYEiABEiABzwQowBRgz12KyZEACZAACSQhQAGuUQG+v7RD+sknn1QLFiwIrMGVV16pli1bpjZt2qQ6lLxs5XGtXbtW9e3bt7xJLI88mCYJkAAJ1CsBCnCdCjAa1kV8b7rpJtW+fXs1atSo2D4fJMCYGGC39n333RcbnwFIgARIoJEJUIBrXICnlJx2XHHFFWrbtm26Jg899JB69NFHtfWLa8mSJWr48OH6d/wNi1UuHG+CYN5xxx36qx/96Efq61//uv77+uuv1/9LOtOnTy9buxBpXFdffbX+DkJ/9tlnq1mzZqkhpRdL4Ordu7e66KKLylZ6165d1e2336527typHn74YV0eOV7VyDcg604CJNC4BCjAdSDAED+IIN4tLNanWMC7d+9uskwMIRSxhiA/9thjWmQ3btyoSZgWsAgtrFnT2rUFWIT+wgsv1IIuZTCXyU0BlqXz+fPnq6FDh6qOHTuW82/cW5E1JwESaDQCFOA6E2ARtyABhohOmjRJPzeGIMKqhWhu375dW7AiyLIEbQqwhIHVaguwWMsQalOAIbCwxiU/sYCjnl032g3I+pIACTQuAQpwAwkwqooGl0sEd+bMmforc0l6/Pjx2pLFJc9zxXqGxYolZlmCRjyki+VvXLBqIcrf+ta3tLDjQhwKcOMNNGZ/q9fa5/Eohdzqtbc0rRcFuEYFuDG6J2tZ6wSKNsD45mm6ivWZNrn5pFnctIrWzj48QNbs6wiDukleN3hxuyRLVk8EijbA+Gab1/1Jbr5bqpjpFa2dKcBWP8nrBi9md2Sp6o1A0QYY33zzuj/JzXdLFTO9orUzBZgCXMw7haVyIlC0AcapEhGRKMBuRPPi5laa6sUq2v1BAaYAV+9uYM7eCRRtgPFdwbyEhNx8t1Qx0ytaO1OAEwqwnMtFcOw4tj1P4QjQ3Xff3eR8bdB3iC9HjFw8ZxWzW7NURSFQtAHGF5eRI0eqqVOnKgqwG9G8uLmVpnqxinZ/UIATCnCcy8gwsQ3qamECbJ4Vrl4XZc61TMAeYLZu3ao6d+5crtLBgwcPqd7cuXNVu3btVI8ePWKrLkIYG/DDAEFpIw34Sx8zZowyywcvb4sXL1b9+vXT/5tXtQQYZcHxQVxbtmxRnTp1Slr1Q8JFsRMOQe3jnKERkQL8AQwKcEhv8jETyLOjigtJ0/qVc7o4o3vttdfq87hywbpdv3592SqGgMv5X3ElKWFxnhcuI8VFJT4PGDDAR3WYRoMRCBLgyZMna+tx9erVavbs2Wrw4MGqZ8+eZVERgZ4zZ45auXKlmjZtmvbmJmIIAUKYzZs3K4gIfse1atUq3W8HDRqkP0M84HhmxowZWqzkd4j7hAkT1Lhx47TIQ9RwIX0Ij5RPBMoWYIg4roEDB1bcApaySBlQF5MdJt5SXzADq4kTJ+rJRZcuXTSHESNGqF69ejXhhPEOF5ijXuCGiTnC4TPyA1fhLuHBFG1otpHkg7zAEGVAOHNCRQGmAEcOhUUXYCk8BjhxciFep/CbaQHjzUgQZFxYll60aJF2kCEOBEwL2HRnSQu4wdQyh+pGCTCywwA9evToslUMAcAFYWnbtm0Ta1kGdAilxBOxFOE0xRyD/po1a1T37t11mvgbXt4gJCIIYhFDuO08IVSYKNgCbFqOeQlJmGUkFrA9IUH9ILS4pL4QRim/+GiHmNrsILZjx47VcSVdqWPQJAThkQcE1V7RQBtBpMU6hxjDR7y9mpEXtxy6cK5J0gIOwVsrAoxnwXjZArxMRQkwXoyAASaJAIurSApwrvdeQySexALG8i9WWHbt2qUtWFOARWAFlggCRABxbAFGOIiOCCtEV1ZvMCmFAIuHN1iF5pIuBBeTATvPogmwOQEBD3N5XLiAJeqOOiIMLFlcYQIsgoowWJkQqxqfzYkPPtsCbPNCGFN4wQ8TAOQtFwX4AxIU4BoVYHnfL4ovS8Tivk6WoGUTFsKaAowXL5jxZQlaXuggAixhsIQEn9G8SCAtgSTPgM0BHxawLKuay5vIF0vKQQIctgQtFrAtwEgf4tSyZUv1u9/9Tgs2LggF/o4SYPsZcl5CEmUBQ3DBTKx7EUuww+RCJjOmAKNe5hI0PoPl0qVL9VK+LCljEoILExE8X5Z88B2sZFi3iCOPCew2wmcpz4oVK9TFF1+s0+MSdPCdQwGuUQFOOxAyPAlUg0DRBpisDOyNS5UW4KzlL0r8vLgVpX5Jy1G0+8PHyi9dUSZtfYYjgZwJFG2A8V3dvISE3Hy3VDHTK1o7U4CtfpLXDV7M7shS1RuBog0wvvnmdX+Sm++WKmZ6RWtnCjAFuJh3CkvlRKDSAwx25dobk5wKnjASBTghKI5rgaAqfX/EtRYFmB01ro/w9xoi4GuAMXcro/pxTiiweQg7qs2dt3lgqxcBlg1oWRx7pOGbF7c0ZShCWF/3h6+6UIBTCDCOCeFML45xmJfpZAPfi4tJc+czdkovWLCgSbw495byu/kC8qDvkGgS95YIc+ONN+ozyhgsR40aFduPJN0sL0GHExPZ6S3nqLEzHMdUzKNcUhiTZ9COcPyOy3QHGvQdwph5h1UWYbBTF2WZMmWKPrNdq25CfQ4wsG7RRubxIez8xTlTtIuc24UFbJ4HNs/zmuFk52+cmEd1yryExAc3cZ4h5ReHHFH1SetZLPaGDQmQFzfX8lQrno929ll2CnBCAZbzvxAO+zIHfwzmDz/8sPYJLQ45unXr1sQRhyk0OCcZJoRhYhvUAZK4t0Q5cf5QzibbE4modH0KMCYjGNRfeumlQAHGTRIlgGFiG1T+IAG22xL5QShw3hKTpDi3oz5vQN9p+RxgTAEWobDPrMpRJQiwWMCw7uD1yjzbah5pylLnvITEJzebFY4QYdJietCSo1e2q0ucJ7Y9beE4kkxqXNnlxc21PNWK57OdfdSBApxQgDGQ48yf/RIGRDcFwRRCWJvLli3TOQRZwHHuLSFS8JQjl/ikxXcQxLTuLWHhSZqmoMLKETeaUk4pm+SN8KbFLuHEor3uuutCJxK2BTx+/HjNEpOBIAtYXHyK9WvmizPYOG8pbj3hlQyTHbMN5Hw23IZigiMuPlEX1EPSx2cI/RVXXKEdqyBdtC94yN8+brJKpuFzgAkTYDnvKvUSC9gW4KBwcgbYlUleQuKTmynAJhO5f2EZY5yQs8HiJhS8li9fXvY9LZ62cM4461J1Xtxc27Fa8Xy2s486UIATCnCUVRQlwFjuxQ2EQV+8Z0GUIUJi+YqI2d61TAtY8j///PO1KIszDx/uLU0PXGINwtvX9OnT1WmnnVa23s0ldREzCR/lOMQWYBE9iDaWpmXZVwQRlrlMCsAJYYSjPeERa/mBBx7QLSmel2SiZOYt9UQ41C9oNQO/hS2N+7jh8k7D5wATJMAov1htpn/oqCVoM1wjC7DpQct2PSkOOCDAQZ62KMB+7hyf94ePElGAPQtw0BK0KcBBL1kIc29pCzCKevXVVycS4DTuLdMIsCmEKI+rAMuLKjCw2M/GpUlk0hEnwLAsHnvssUQCjEnO6aefTgH2MXpUIY28LDmfA3OQBWx7H8NLL8RvtPm2JXMJ2vS0RQH209l8trOPElGAEwqwuQQtwoBnvbASMfjLkqhpxcVtwopzb2kuF4uVLQIMy9eXe0tzCVre9iRL0Fji3bZtm166NZeCZek3SICFFeLJhi9zE5Y830Vce2lelvClWZCvWT5ZgsbvsHIlfxHgb33rW9pixyVL0OZkBAIsz+SlDvaNxCVoH0NLPmnUggDnU/NsqebFLVupKh+bAhzC3MdMwEdzhnVUc+OOy2YmH2WrlTQgwLggfJhE1Jpfa27CKm5Py0tIijYw+26BvLj5Lmfe6RWtnX3oXsO4opRjSNhcBWF56qmnEh3lybtTFS19WOZ4rovnskGb1opWXrs8cbuwa6H8RS9jlvJl2ZEflq9s3MtSrqLHzYNb0escdG9jR35RLgqw1RKcKRala7IcJEACJOCXAC3gGl2C9tsNmBoJkAAJkEClCVCAKcCV7nPMjwRIgARIoESAAkwB5o1AAiRAAiRQBQIUYApwFbodsyQBEiABEqAAU4B5F5AACZAACVSBAAWYAlyFbscsSYAESIAEKMAUYN4FJEACJEACVSBAAaYAV6HbMUsSIAESIAEKMAWYdwEJkAAJkEAVCFCAa0CAq9AvmCUJkAAJkEAFCNAVZQBkHz4xK9B2zIIESIAESIAEvBDwoXt19TIGL1SZCAmQAAmQAAnEEKAAs4uQAAmQAAmQQBUIUICrAJ1ZkgAJkAAJkAAFmH2ABEiABEiABKpAgAJcBejMkgRIgARIgAQowOwDJEACJEACJFAFAoUS4CrUn1mSAAmQAAmQQNUIZD2X7OUYUtVqz4xJgARIgARIoEYJUIBrtOFYbBIgARIggdomQAGu7fZj6UmABEiABGqUAAW4RhuOxSYBEiABEqhtAhTg2m4/lp4ESIAESKBGCVCAa7ThWGwSIAESIIHaJkABru32Y+lJgARIgARqlEDuAjx+484aRcNikwAJkAAJNCqB41scrv7506flWn0KcK54mTgJkAAJkEAtEqgLAa5F8CwzCZAACZAACeRNIHcLOO8KMH0SIAESIAESqEUCFOBabDWWmQRIgARIoOYJUIBrvglZARIgARIggVokQAGuxVZjmUmABEiABBITmDRpkho7dqzasmWL6tSpk463evVq1bZtW7Vr1y7Vo0ePJmnNnTtXzZo1S02dOlV17txZzZkzRw0cODBxfkkDUoCTkmI4EiABEiCBmiQgArxixQp18cUX6zqsWrVKC/C6devUuHHjtDiLQI8cOVJ16NBBjRkzRofFZ4ix76sQAixwJk6cWK6wVHTr1q16BmLOXLp06aI/h81KkJ6AiwKGdDZv3hw685GZUhx0yS8sX8ymzjvvvCYzLXyHGVW/fv3UkCFDImdXmKnh2rlzp04nqFx2hzHLjHJt3769SQcC16CZn7BN855LvJgaF+IE1Qflt2eY0q5o8+7dux/yu80cafTs2VO3OWamS5YsKfcJmzvKcOmllybqA5KP8ENZwLldu3b65hTWSBN9xe4vcX3D1+9R7Ys80AYjRozQ2U2bNk1zWrlypf4b7YLfg+4vX+ULSifJfeFqVaCf4t/ixYvLWYOR1N8cL5LWMShNM25QPw5LO01Y3AsQAfRrsz523uj/Zr1kDJH2r3T7JuVahHDmGIF7AZoC3iLA+Nu8v8F20KBBWqTBHfdW3QswKjt79mw988ByAS50OHRO80Y1b2wIi8xU5AbE5/bt22uA6JQIg4EI6YsQmKK4Zs0anR8GrR07duh8BwwYoBtp3rx56pprrlF9+/bVQok0USb8JunJBALfLV26tLxkIY06YcIEPcOS3xAO32GQx4X8caEMKO/y5cubiLKIj/BAfFxSNhlsUW8pt8z0pP69evXS4g2WuGRCgM6FSwRXBFjqiN/MTihtgzxRJ9RDOGPSI0Ih/NFxkTcuCTdjxgwdT1gjrPyO8BiQTIHFb3ECLPxQLqmfcEL50XZSVvyO33DDiTChDOhj6BcoF9rAHAxRpj59+uibFsziQQjTAAACpUlEQVSkDVEnOz39xYfckK/MrBHnBz/4gXrggQfK6aBfYbIg/R2fwRV54G+ZAIAhyme3jwzIKDculB3tIPcIJg5Sj7xm8VJf+38pE/o52KNNpd+AIyY6YnlIX0Y/NOPJ4Ie0zXsY/QFpyj0p96e0IfJE+sgHfOW+MO8VYW72ffAV/uaEBn1I0pO+Kf0LaaIfSHgZf2QCJP0PbSX1k36D76T/4Dfp52YcGQMRDvWSvmFP3CvdvmHtzu+TEyiMBSwWq8zqTEtMBkUJI7/JTYGbzpzh4G9zQMWNgAEUA5GEQ5q40YYNG9YkrGldQawgVLjRTCHHDYHBGHHNwU7yxc1lWiAiCnLziChJ2qa4m3USFrYFjLzNQR1lExEDC4iKOShg8BaLzowLCxg3sWlJ2AO8PVNE15JBTiZFqDcusLAHT6m7HU8GGmEhbMTChfBgxmkzwAQKooJB0JwAme0teQXNdKWvILzkKfwgXsIRf59//vlq9+7dgcJnDvh2f0NcDPjgC5GQmTXqInmaEyTkaU+OpM+hLuaEBRMDMz3UR1YTwFImSGAjoieTKZQ5zMJKPmSkCymrTBAHEVAImfQhmaTK5FQme3a/M+9hlMBsWxFpmaSgf6DvoK+DgVxyX0r/sC1e+YxxQSwjM1+zb+N3pG8KtvR1qRvykYku7jMZL2yCYgHLeISJQZBog9Utt9yil1Clz5rtX432TdcbGNomUAgBzrtZ7AE77/x8pB+2ROwj7aKnIZMAWEXdunULXHIveh1YPr8EqnUP+8rXfEyTlIy5xJw0DsPVFoGGEODaahKWlgRIgARIoBEIUIAboZVZRxIgARIggcIRoAAXrklYIBIgARIggUYgQAFuhFZmHUmABEiABApHgAJcuCZhgUiABEiABBqBwP8PMtRbAMI5giwAAAAASUVORK5CYII=;" vertex="1" parent="1">
          <mxGeometry width="373.33" height="280" as="geometry" />
        </mxCell>
        <mxCell id="BaFMhR3DntHVQc-vTrnS-4" value="Suchauftrag" style="swimlane;fontStyle=0;childLayout=stackLayout;horizontal=1;startSize=26;fillColor=none;horizontalStack=0;resizeParent=1;resizeParentMax=0;resizeLast=0;collapsible=1;marginBottom=0;whiteSpace=wrap;html=1;" vertex="1" parent="1">
          <mxGeometry x="410" y="400" width="230" height="130" as="geometry" />
        </mxCell>
        <mxCell id="BaFMhR3DntHVQc-vTrnS-5" value="- Suchstring: String&lt;br&gt;&lt;div&gt;- min. Bewertung: int&lt;br&gt;&lt;div&gt;+ setSuchstring(String): void&lt;br&gt;&lt;div&gt;+ getSuchstring(): String&lt;br&gt;&lt;div&gt;+ setBewertung(int): void&lt;br&gt;&lt;div&gt;+ getBewertung(): String&lt;/div&gt;&lt;div&gt;&lt;br&gt;&lt;/div&gt;&lt;div&gt;&lt;br&gt;&lt;/div&gt;&lt;div&gt;&lt;br&gt;&lt;/div&gt;&lt;div&gt;&lt;br&gt;&lt;br&gt;&lt;/div&gt;&lt;br&gt;&lt;/div&gt;&lt;div&gt;&lt;br&gt;&lt;/div&gt;&lt;div&gt;&lt;br&gt;&lt;/div&gt;&lt;div&gt;&lt;br&gt;&lt;/div&gt;&lt;div&gt;&lt;br&gt;&lt;br&gt;&lt;/div&gt;&lt;br&gt;&lt;/div&gt;&lt;div&gt;&lt;br&gt;&lt;/div&gt;&lt;div&gt;&lt;br&gt;&lt;/div&gt;&lt;div&gt;&lt;br&gt;&lt;/div&gt;&lt;div&gt;&lt;br&gt;&lt;br&gt;&lt;/div&gt;&lt;br&gt;&lt;/div&gt;&lt;div&gt;&lt;br&gt;&lt;/div&gt;&lt;div&gt;&lt;br&gt;&lt;/div&gt;&lt;div&gt;&lt;br&gt;&lt;/div&gt;&lt;div&gt;&lt;br&gt;&lt;br&gt;&lt;/div&gt;&lt;br&gt;&lt;/div&gt;&lt;div&gt;&lt;br&gt;&lt;/div&gt;&lt;div&gt;&lt;br&gt;&lt;/div&gt;&lt;div&gt;&lt;br&gt;&lt;/div&gt;&lt;div&gt;&lt;br&gt;&lt;br&gt;&lt;/div&gt;" style="text;strokeColor=none;fillColor=none;align=left;verticalAlign=top;spacingLeft=4;spacingRight=4;overflow=hidden;rotatable=0;points=[[0,0.5],[1,0.5]];portConstraint=eastwest;whiteSpace=wrap;html=1;" vertex="1" parent="BaFMhR3DntHVQc-vTrnS-4">
          <mxGeometry y="26" width="230" height="104" as="geometry" />
        </mxCell>
        <mxCell id="BaFMhR3DntHVQc-vTrnS-8" value="Suchergebnis" style="swimlane;fontStyle=0;childLayout=stackLayout;horizontal=1;startSize=26;fillColor=none;horizontalStack=0;resizeParent=1;resizeParentMax=0;resizeLast=0;collapsible=1;marginBottom=0;whiteSpace=wrap;html=1;" vertex="1" parent="1">
          <mxGeometry x="680" y="400" width="203" height="80" as="geometry" />
        </mxCell>
        <mxCell id="BaFMhR3DntHVQc-vTrnS-9" value="&lt;div&gt;- Ergebnis: Liste&amp;lt;Hotel&amp;gt;&lt;/div&gt;&lt;div&gt;+ getErebnis(): Liste&amp;lt;Hotel&amp;gt;&lt;br&gt;+ setHotelListe(Liste&amp;lt;Hotel&amp;gt;): void&lt;/div&gt;" style="text;strokeColor=none;fillColor=none;align=left;verticalAlign=top;spacingLeft=4;spacingRight=4;overflow=hidden;rotatable=0;points=[[0,0.5],[1,0.5]];portConstraint=eastwest;whiteSpace=wrap;html=1;" vertex="1" parent="BaFMhR3DntHVQc-vTrnS-8">
          <mxGeometry y="26" width="203" height="54" as="geometry" />
        </mxCell>
        <mxCell id="BaFMhR3DntHVQc-vTrnS-16" value="&amp;lt;&amp;lt;interface&amp;gt;&amp;gt;&lt;br&gt;ReiseAnbieter" style="swimlane;fontStyle=0;childLayout=stackLayout;horizontal=1;startSize=26;fillColor=none;horizontalStack=0;resizeParent=1;resizeParentMax=0;resizeLast=0;collapsible=1;marginBottom=0;whiteSpace=wrap;html=1;" vertex="1" parent="1">
          <mxGeometry x="390" y="42" width="250" height="60" as="geometry" />
        </mxCell>
        <mxCell id="BaFMhR3DntHVQc-vTrnS-17" value="+ runQuery(d: Queryobject): Queryresult" style="text;strokeColor=none;fillColor=none;align=left;verticalAlign=top;spacingLeft=4;spacingRight=4;overflow=hidden;rotatable=0;points=[[0,0.5],[1,0.5]];portConstraint=eastwest;whiteSpace=wrap;html=1;" vertex="1" parent="BaFMhR3DntHVQc-vTrnS-16">
          <mxGeometry y="26" width="250" height="34" as="geometry" />
        </mxCell>
        <mxCell id="BaFMhR3DntHVQc-vTrnS-20" value="Hotelsuche" style="swimlane;fontStyle=1;align=center;verticalAlign=top;childLayout=stackLayout;horizontal=1;startSize=26;horizontalStack=0;resizeParent=1;resizeParentMax=0;resizeLast=0;collapsible=1;marginBottom=0;whiteSpace=wrap;html=1;" vertex="1" parent="1">
          <mxGeometry x="830" y="42" width="250" height="110" as="geometry" />
        </mxCell>
        <mxCell id="BaFMhR3DntHVQc-vTrnS-23" value="~ sucheHotel(s: SuchAuftrag): Suchergebnis&lt;div&gt;~ bewerteHotel(hotelname: String) :&amp;nbsp; int&lt;/div&gt;&lt;div&gt;&lt;br&gt;&lt;/div&gt;" style="text;strokeColor=none;fillColor=none;align=left;verticalAlign=top;spacingLeft=4;spacingRight=4;overflow=hidden;rotatable=0;points=[[0,0.5],[1,0.5]];portConstraint=eastwest;whiteSpace=wrap;html=1;" vertex="1" parent="BaFMhR3DntHVQc-vTrnS-20">
          <mxGeometry y="26" width="250" height="84" as="geometry" />
        </mxCell>
        <mxCell id="BaFMhR3DntHVQc-vTrnS-25" value="Hotel" style="swimlane;fontStyle=0;childLayout=stackLayout;horizontal=1;startSize=26;fillColor=none;horizontalStack=0;resizeParent=1;resizeParentMax=0;resizeLast=0;collapsible=1;marginBottom=0;whiteSpace=wrap;html=1;" vertex="1" parent="1">
          <mxGeometry x="670" y="42" width="140" height="110" as="geometry">
            <mxRectangle x="687" y="200" width="70" height="30" as="alternateBounds" />
          </mxGeometry>
        </mxCell>
        <mxCell id="BaFMhR3DntHVQc-vTrnS-26" value="- Name: String&lt;br&gt;- Bewertung: int&lt;br&gt;+ getName(): String&lt;br&gt;+ getBewertung(): int" style="text;strokeColor=none;fillColor=none;align=left;verticalAlign=top;spacingLeft=4;spacingRight=4;overflow=hidden;rotatable=0;points=[[0,0.5],[1,0.5]];portConstraint=eastwest;whiteSpace=wrap;html=1;" vertex="1" parent="BaFMhR3DntHVQc-vTrnS-25">
          <mxGeometry y="26" width="140" height="84" as="geometry" />
        </mxCell>
        <mxCell id="BaFMhR3DntHVQc-vTrnS-48" style="edgeStyle=orthogonalEdgeStyle;rounded=0;orthogonalLoop=1;jettySize=auto;html=1;exitX=0.5;exitY=0;exitDx=0;exitDy=0;entryX=0.494;entryY=1.012;entryDx=0;entryDy=0;entryPerimeter=0;" edge="1" parent="1" source="BaFMhR3DntHVQc-vTrnS-50" target="BaFMhR3DntHVQc-vTrnS-23">
          <mxGeometry relative="1" as="geometry">
            <mxPoint x="739" y="250" as="sourcePoint" />
          </mxGeometry>
        </mxCell>
        <mxCell id="BaFMhR3DntHVQc-vTrnS-49" style="edgeStyle=orthogonalEdgeStyle;rounded=0;orthogonalLoop=1;jettySize=auto;html=1;exitX=0.25;exitY=0;exitDx=0;exitDy=0;entryX=0.474;entryY=0.987;entryDx=0;entryDy=0;entryPerimeter=0;dashed=1;" edge="1" parent="1" source="BaFMhR3DntHVQc-vTrnS-50" target="BaFMhR3DntHVQc-vTrnS-17">
          <mxGeometry relative="1" as="geometry">
            <mxPoint x="681.5" y="250" as="sourcePoint" />
            <Array as="points">
              <mxPoint x="640" y="250" />
              <mxPoint x="640" y="190" />
              <mxPoint x="508" y="190" />
            </Array>
          </mxGeometry>
        </mxCell>
        <mxCell id="BaFMhR3DntHVQc-vTrnS-50" value="Adapter" style="swimlane;fontStyle=1;align=center;verticalAlign=top;childLayout=stackLayout;horizontal=1;startSize=26;horizontalStack=0;resizeParent=1;resizeParentMax=0;resizeLast=0;collapsible=1;marginBottom=0;whiteSpace=wrap;html=1;" vertex="1" parent="1">
          <mxGeometry x="540" y="250" width="370" height="120" as="geometry" />
        </mxCell>
        <mxCell id="BaFMhR3DntHVQc-vTrnS-51" value="- Hotelsuche : Hotelsuche" style="text;strokeColor=none;fillColor=none;align=left;verticalAlign=top;spacingLeft=4;spacingRight=4;overflow=hidden;rotatable=0;points=[[0,0.5],[1,0.5]];portConstraint=eastwest;whiteSpace=wrap;html=1;" vertex="1" parent="BaFMhR3DntHVQc-vTrnS-50">
          <mxGeometry y="26" width="370" height="26" as="geometry" />
        </mxCell>
        <mxCell id="BaFMhR3DntHVQc-vTrnS-52" value="" style="line;strokeWidth=1;fillColor=none;align=left;verticalAlign=middle;spacingTop=-1;spacingLeft=3;spacingRight=3;rotatable=0;labelPosition=right;points=[];portConstraint=eastwest;strokeColor=inherit;" vertex="1" parent="BaFMhR3DntHVQc-vTrnS-50">
          <mxGeometry y="52" width="370" height="8" as="geometry" />
        </mxCell>
        <mxCell id="BaFMhR3DntHVQc-vTrnS-53" value="&lt;div&gt;- toAuftrag(q: Queryobject): Suchauftrag&lt;br&gt;- toQuery(s: Suchergebnis): Queryresult&lt;br&gt;+ runQuery(d: Queryobject): Queryresult&lt;br&gt;&lt;br&gt;&lt;br&gt;&lt;/div&gt;" style="text;strokeColor=none;fillColor=none;align=left;verticalAlign=top;spacingLeft=4;spacingRight=4;overflow=hidden;rotatable=0;points=[[0,0.5],[1,0.5]];portConstraint=eastwest;whiteSpace=wrap;html=1;" vertex="1" parent="BaFMhR3DntHVQc-vTrnS-50">
          <mxGeometry y="60" width="370" height="60" as="geometry" />
        </mxCell>
        <UserObject label="a) Das benötigte Entwurfsmuster zur Lösung der Aufgabe ist das Adapter Pattern" placeholders="1" name="Variable" id="BaFMhR3DntHVQc-vTrnS-54">
          <mxCell style="text;html=1;strokeColor=none;fillColor=none;align=center;verticalAlign=middle;whiteSpace=wrap;overflow=hidden;" vertex="1" parent="1">
            <mxGeometry x="380" y="200" width="230" height="50" as="geometry" />
          </mxCell>
        </UserObject>
        <UserObject label="c) Sequenzdiagramm" placeholders="1" name="Variable" id="BaFMhR3DntHVQc-vTrnS-55">
          <mxCell style="text;html=1;strokeColor=none;fillColor=none;align=center;verticalAlign=middle;whiteSpace=wrap;overflow=hidden;" vertex="1" parent="1">
            <mxGeometry x="550" y="560" width="130" height="30" as="geometry" />
          </mxCell>
        </UserObject>
        <mxCell id="BaFMhR3DntHVQc-vTrnS-58" value="c:Adapter" style="shape=umlLifeline;perimeter=lifelinePerimeter;whiteSpace=wrap;html=1;container=1;dropTarget=0;collapsible=0;recursiveResize=0;outlineConnect=0;portConstraint=eastwest;newEdgeStyle={&quot;curved&quot;:0,&quot;rounded&quot;:0};" vertex="1" parent="1">
          <mxGeometry x="760" y="590" width="100" height="370" as="geometry" />
        </mxCell>
        <mxCell id="BaFMhR3DntHVQc-vTrnS-62" value="" style="html=1;points=[[0,0,0,0,5],[0,1,0,0,-5],[1,0,0,0,5],[1,1,0,0,-5]];perimeter=orthogonalPerimeter;outlineConnect=0;targetShapes=umlLifeline;portConstraint=eastwest;newEdgeStyle={&quot;curved&quot;:0,&quot;rounded&quot;:0};" vertex="1" parent="BaFMhR3DntHVQc-vTrnS-58">
          <mxGeometry x="45" y="50" width="10" height="260" as="geometry" />
        </mxCell>
        <mxCell id="BaFMhR3DntHVQc-vTrnS-78" value="toAuftrag(Queryobject q)" style="edgeStyle=orthogonalEdgeStyle;rounded=0;orthogonalLoop=1;jettySize=auto;html=1;curved=1;" edge="1" parent="BaFMhR3DntHVQc-vTrnS-58" source="BaFMhR3DntHVQc-vTrnS-62">
          <mxGeometry x="-0.0714" y="20" relative="1" as="geometry">
            <mxPoint x="55" y="110" as="sourcePoint" />
            <mxPoint x="55" y="180.00800000000004" as="targetPoint" />
            <Array as="points">
              <mxPoint x="100" y="130" />
              <mxPoint x="100" y="180" />
            </Array>
            <mxPoint as="offset" />
          </mxGeometry>
        </mxCell>
        <mxCell id="BaFMhR3DntHVQc-vTrnS-64" value="a:Hotelsuche" style="shape=umlLifeline;perimeter=lifelinePerimeter;whiteSpace=wrap;html=1;container=1;dropTarget=0;collapsible=0;recursiveResize=0;outlineConnect=0;portConstraint=eastwest;newEdgeStyle={&quot;curved&quot;:0,&quot;rounded&quot;:0};" vertex="1" parent="1">
          <mxGeometry x="420" y="590" width="100" height="370" as="geometry" />
        </mxCell>
        <mxCell id="BaFMhR3DntHVQc-vTrnS-65" value="" style="html=1;points=[[0,0,0,0,5],[0,1,0,0,-5],[1,0,0,0,5],[1,1,0,0,-5]];perimeter=orthogonalPerimeter;outlineConnect=0;targetShapes=umlLifeline;portConstraint=eastwest;newEdgeStyle={&quot;curved&quot;:0,&quot;rounded&quot;:0};" vertex="1" parent="BaFMhR3DntHVQc-vTrnS-64">
          <mxGeometry x="45" y="180" width="10" height="50" as="geometry" />
        </mxCell>
        <mxCell id="BaFMhR3DntHVQc-vTrnS-72" value="Suchergebnis" style="edgeStyle=orthogonalEdgeStyle;rounded=0;orthogonalLoop=1;jettySize=auto;html=1;curved=0;" edge="1" parent="1" source="BaFMhR3DntHVQc-vTrnS-62" target="BaFMhR3DntHVQc-vTrnS-65">
          <mxGeometry relative="1" as="geometry">
            <mxPoint x="800" y="810" as="sourcePoint" />
            <mxPoint x="475" y="810" as="targetPoint" />
            <Array as="points">
              <mxPoint x="720" y="795" />
              <mxPoint x="720" y="795" />
            </Array>
          </mxGeometry>
        </mxCell>
        <mxCell id="BaFMhR3DntHVQc-vTrnS-73" value="" style="edgeStyle=orthogonalEdgeStyle;rounded=0;orthogonalLoop=1;jettySize=auto;html=1;curved=0;entryX=1;entryY=0;entryDx=0;entryDy=5;entryPerimeter=0;" edge="1" parent="1" source="BaFMhR3DntHVQc-vTrnS-62" target="BaFMhR3DntHVQc-vTrnS-65">
          <mxGeometry relative="1" as="geometry">
            <mxPoint x="810" y="780" as="sourcePoint" />
            <mxPoint x="475.02857142857147" y="805" as="targetPoint" />
            <Array as="points">
              <mxPoint x="740" y="775" />
              <mxPoint x="740" y="775" />
            </Array>
            <mxPoint as="offset" />
          </mxGeometry>
        </mxCell>
        <mxCell id="BaFMhR3DntHVQc-vTrnS-76" value="initialisiere" style="edgeLabel;html=1;align=center;verticalAlign=middle;resizable=0;points=[];" vertex="1" connectable="0" parent="BaFMhR3DntHVQc-vTrnS-73">
          <mxGeometry x="-0.101" relative="1" as="geometry">
            <mxPoint as="offset" />
          </mxGeometry>
        </mxCell>
        <mxCell id="BaFMhR3DntHVQc-vTrnS-74" value="" style="edgeStyle=orthogonalEdgeStyle;rounded=0;orthogonalLoop=1;jettySize=auto;html=1;curved=0;exitX=1;exitY=1;exitDx=0;exitDy=-5;exitPerimeter=0;" edge="1" parent="1" source="BaFMhR3DntHVQc-vTrnS-65" target="BaFMhR3DntHVQc-vTrnS-62">
          <mxGeometry relative="1" as="geometry">
            <Array as="points">
              <mxPoint x="475" y="810" />
            </Array>
          </mxGeometry>
        </mxCell>
        <mxCell id="BaFMhR3DntHVQc-vTrnS-75" value="sucheHotel(Suchauftrag s)" style="edgeLabel;html=1;align=center;verticalAlign=middle;resizable=0;points=[];" vertex="1" connectable="0" parent="BaFMhR3DntHVQc-vTrnS-74">
          <mxGeometry x="0.0626" relative="1" as="geometry">
            <mxPoint as="offset" />
          </mxGeometry>
        </mxCell>
        <mxCell id="BaFMhR3DntHVQc-vTrnS-79" value="d:Reiseauftrag" style="shape=umlLifeline;perimeter=lifelinePerimeter;whiteSpace=wrap;html=1;container=1;dropTarget=0;collapsible=0;recursiveResize=0;outlineConnect=0;portConstraint=eastwest;newEdgeStyle={&quot;curved&quot;:0,&quot;rounded&quot;:0};" vertex="1" parent="1">
          <mxGeometry x="1010" y="590" width="100" height="370" as="geometry" />
        </mxCell>
        <mxCell id="BaFMhR3DntHVQc-vTrnS-80" value="" style="html=1;points=[[0,0,0,0,5],[0,1,0,0,-5],[1,0,0,0,5],[1,1,0,0,-5]];perimeter=orthogonalPerimeter;outlineConnect=0;targetShapes=umlLifeline;portConstraint=eastwest;newEdgeStyle={&quot;curved&quot;:0,&quot;rounded&quot;:0};" vertex="1" parent="BaFMhR3DntHVQc-vTrnS-79">
          <mxGeometry x="45" y="50" width="10" height="280" as="geometry" />
        </mxCell>
        <mxCell id="BaFMhR3DntHVQc-vTrnS-82" value="runQuery(Queryobject)" style="edgeStyle=orthogonalEdgeStyle;rounded=0;orthogonalLoop=1;jettySize=auto;html=1;curved=0;exitX=0;exitY=0;exitDx=0;exitDy=5;exitPerimeter=0;" edge="1" parent="1" source="BaFMhR3DntHVQc-vTrnS-80" target="BaFMhR3DntHVQc-vTrnS-62">
          <mxGeometry relative="1" as="geometry">
            <mxPoint x="1075" y="630" as="sourcePoint" />
            <mxPoint x="830" y="650" as="targetPoint" />
            <Array as="points">
              <mxPoint x="1055" y="651" />
            </Array>
          </mxGeometry>
        </mxCell>
        <mxCell id="BaFMhR3DntHVQc-vTrnS-83" value="toQuery(Suchergebnis)" style="edgeStyle=orthogonalEdgeStyle;rounded=0;orthogonalLoop=1;jettySize=auto;html=1;curved=1;" edge="1" parent="1">
          <mxGeometry x="-0.0714" y="20" relative="1" as="geometry">
            <mxPoint x="815" y="820" as="sourcePoint" />
            <mxPoint x="815" y="870.008" as="targetPoint" />
            <Array as="points">
              <mxPoint x="860" y="820" />
              <mxPoint x="860" y="870" />
            </Array>
            <mxPoint as="offset" />
          </mxGeometry>
        </mxCell>
        <mxCell id="BaFMhR3DntHVQc-vTrnS-84" value="Queryresult" style="edgeStyle=orthogonalEdgeStyle;rounded=0;orthogonalLoop=1;jettySize=auto;html=1;curved=0;exitX=1;exitY=1;exitDx=0;exitDy=-5;exitPerimeter=0;" edge="1" parent="1" source="BaFMhR3DntHVQc-vTrnS-62" target="BaFMhR3DntHVQc-vTrnS-80">
          <mxGeometry relative="1" as="geometry">
            <Array as="points">
              <mxPoint x="815" y="890" />
            </Array>
          </mxGeometry>
        </mxCell>
      </root>
    </mxGraphModel>
  </diagram>
</mxfile>
